<svg width="132" height="40" viewBox="0 0 132 40" fill="none" xmlns="http://www.w3.org/2000/svg">
<path d="M23.2305 11.3898H25.2305V25.3098H31.2305V27.3098H23.2305V11.3898ZM37.4605 11.3898C38.6472 11.3898 39.8072 11.7417 40.7939 12.401C41.7806 13.0603 42.5497 13.9973 43.0038 15.0937C43.4579 16.1901 43.5767 17.3965 43.3452 18.5603C43.1137 19.7242 42.5423 20.7933 41.7031 21.6324C40.864 22.4716 39.7949 23.043 38.631 23.2745C37.4672 23.506 36.2608 23.3872 35.1644 22.9331C34.068 22.4789 33.131 21.7099 32.4717 20.7232C31.8124 19.7365 31.4605 18.5765 31.4605 17.3898C31.4605 16.6019 31.6157 15.8216 31.9172 15.0937C32.2187 14.3657 32.6607 13.7043 33.2179 13.1472C33.775 12.59 34.4364 12.148 35.1644 11.8465C35.8923 11.545 36.6726 11.3898 37.4605 11.3898ZM37.4605 21.3898C38.2516 21.3898 39.025 21.1552 39.6828 20.7157C40.3406 20.2761 40.8533 19.6514 41.156 18.9205C41.4588 18.1896 41.538 17.3854 41.3836 16.6094C41.2293 15.8335 40.8483 15.1208 40.2889 14.5614C39.7295 14.002 39.0168 13.621 38.2409 13.4667C37.4649 13.3123 36.6607 13.3915 35.9298 13.6943C35.1989 13.997 34.5741 14.5097 34.1346 15.1675C33.6951 15.8253 33.4605 16.5987 33.4605 17.3898C33.4658 18.4472 33.8895 19.4595 34.6391 20.2053C35.3887 20.9511 36.4031 21.3698 37.4605 21.3698V21.3898ZM33.4605 25.3298H41.4605V27.3298H33.4605V25.3298ZM59.0605 27.3298H57.0605V25.8998C55.7707 26.8026 54.2349 27.2878 52.6605 27.2898C51.318 27.2988 49.9948 26.9698 48.8129 26.3331C47.6309 25.6963 46.6282 24.7724 45.8972 23.6464C45.1661 22.5204 44.7301 21.2285 44.6295 19.8897C44.5288 18.551 44.7667 17.2084 45.3212 15.9858C45.8757 14.7631 46.729 13.6996 47.8024 12.8934C48.8759 12.0871 50.135 11.5639 51.4637 11.3721C52.7925 11.1802 54.1482 11.3259 55.4058 11.7956C56.6635 12.2653 57.7828 13.0439 58.6605 14.0598L57.1905 15.3698C56.5229 14.6234 55.6792 14.056 54.7361 13.7193C53.7931 13.3825 52.7808 13.2871 51.7915 13.4418C50.8021 13.5965 49.8673 13.9964 49.072 14.6049C48.2768 15.2135 47.6465 16.0113 47.2387 16.9259C46.8308 17.8404 46.6583 18.8424 46.7369 19.8407C46.8155 20.839 47.1426 21.8017 47.6886 22.6411C48.2346 23.4805 48.9819 24.17 49.8626 24.6466C50.7432 25.1232 51.7292 25.3718 52.7305 25.3698C53.5615 25.3715 54.3831 25.1937 55.1391 24.8485C55.895 24.5033 56.5675 23.9989 57.1105 23.3698H51.7105V21.3698H59.0805L59.0605 27.3298ZM66.4205 11.4298C67.6072 11.4298 68.7672 11.7817 69.7539 12.441C70.7406 13.1003 71.5097 14.0373 71.9638 15.1337C72.4179 16.2301 72.5367 17.4365 72.3052 18.6003C72.0737 19.7642 71.5023 20.8333 70.6631 21.6724C69.824 22.5116 68.7549 23.083 67.591 23.3145C66.4272 23.546 65.2208 23.4272 64.1244 22.9731C63.028 22.5189 62.091 21.7499 61.4317 20.7632C60.7724 19.7765 60.4205 18.6165 60.4205 17.4298C60.4152 16.6368 60.5672 15.8507 60.8676 15.1168C61.168 14.3829 61.6109 13.7158 62.1707 13.1542C62.7305 12.5925 63.3961 12.1474 64.129 11.8445C64.8619 11.5417 65.6475 11.3871 66.4405 11.3898L66.4205 11.4298ZM66.4205 21.4298C67.2116 21.4298 67.985 21.1952 68.6428 20.7557C69.3006 20.3161 69.8133 19.6914 70.116 18.9605C70.4188 18.2296 70.498 17.4254 70.3436 16.6494C70.1893 15.8735 69.8083 15.1608 69.2489 14.6014C68.6895 14.042 67.9768 13.661 67.2009 13.5067C66.4249 13.3523 65.6207 13.4315 64.8898 13.7343C64.1589 14.037 63.5341 14.5497 63.0946 15.2075C62.6551 15.8653 62.4205 16.6387 62.4205 17.4298C62.4363 18.4837 62.8674 19.4888 63.6202 20.2266C64.3729 20.9643 65.3865 21.3752 66.4405 21.3698L66.4205 21.4298ZM62.4205 25.3698H70.4205V27.3698H62.4205V25.3698ZM74.5505 11.3898H76.5505V27.2898H74.5505V11.3898ZM79.3205 11.3898H81.3205C81.4235 11.3789 81.5274 11.3789 81.6305 11.3898C82.4681 11.2989 83.3155 11.3855 84.1174 11.6438C84.9193 11.9022 85.6579 12.3265 86.2849 12.8892C86.912 13.4519 87.4135 14.1404 87.7568 14.9098C88.1002 15.6792 88.2776 16.5123 88.2776 17.3548C88.2776 18.1973 88.1002 19.0304 87.7568 19.7998C87.4135 20.5692 86.912 21.2577 86.2849 21.8204C85.6579 22.3831 84.9193 22.8074 84.1174 23.0658C83.3155 23.3241 82.4681 23.4107 81.6305 23.3198H81.3205V27.3198H79.3205V11.3898ZM81.3205 13.3898V21.2998H81.6305C82.1954 21.375 82.7698 21.3287 83.3154 21.1638C83.8609 20.999 84.3649 20.7195 84.7936 20.3441C85.2224 19.9687 85.5659 19.506 85.8013 18.987C86.0367 18.468 86.1585 17.9047 86.1585 17.3348C86.1585 16.7649 86.0367 16.2016 85.8013 15.6826C85.5659 15.1636 85.2224 14.7009 84.7936 14.3255C84.3649 13.95 83.8609 13.6706 83.3154 13.5057C82.7698 13.3409 82.1954 13.2946 81.6305 13.3698C81.5216 13.3811 81.4142 13.4046 81.3105 13.4398L81.3205 13.3898ZM95.7305 12.5398L94.2505 13.7098C93.9952 13.443 93.669 13.2546 93.3103 13.1668C92.9516 13.079 92.5753 13.0954 92.2256 13.2141C91.8758 13.3327 91.5673 13.5487 91.3361 13.8367C91.1049 14.1247 90.9607 14.4727 90.9205 14.8398V14.9998C90.9205 15.8798 91.5305 16.4698 92.7205 16.5498C97.3005 16.8298 99.4005 18.9798 99.4005 21.8198V21.9998C99.2822 23.1238 98.8436 24.1902 98.1368 25.0722C97.43 25.9542 96.4847 26.6145 95.4135 26.9748C94.3422 27.335 93.19 27.38 92.0939 27.1043C90.9978 26.8287 90.0039 26.244 89.2305 25.4198L90.7605 24.2398C91.1166 24.6215 91.5515 24.9211 92.035 25.118C92.5185 25.3148 93.039 25.4042 93.5605 25.3798C94.5237 25.4306 95.4692 25.1073 96.1996 24.4774C96.9301 23.8476 97.389 22.9599 97.4805 21.9998V21.8598C97.4805 19.1898 94.8605 18.6998 92.5905 18.4798C90.4905 18.2798 88.9805 16.9698 88.9805 15.0798V14.9998C89.0545 14.0158 89.5036 13.0978 90.2349 12.4354C90.9662 11.7729 91.924 11.4165 92.9105 11.4398C93.4333 11.4244 93.9534 11.5187 94.4375 11.7168C94.9215 11.9149 95.3586 12.2123 95.7205 12.5898L95.7305 12.5398ZM107.23 25.2598C109.72 25.2598 111.69 22.5698 111.69 19.2598V11.2598H113.69V19.2598C113.69 23.6598 110.81 27.2098 107.27 27.2098C103.73 27.2098 100.85 23.6598 100.85 19.2598V11.2598H102.85V19.2598C102.77 22.6198 104.74 25.3098 107.22 25.3098L107.23 25.2598ZM129.04 27.2598H127.04V17.3598L122.43 23.3598L117.82 17.3598V27.2898H115.82V11.3898L122.42 20.0798L129.02 11.3898L129.04 27.2598Z" fill="#808080"/>
<path d="M13.63 9.00055C13.63 7.55777 13.0569 6.17408 12.0367 5.15389C11.0165 4.13369 9.63278 3.56055 8.19 3.56055C6.74722 3.56055 5.36354 4.13369 4.34334 5.15389C3.32314 6.17408 2.75 7.55777 2.75 9.00055V25.4505L7.23 28.6605V36.4805H9.15V28.6605L13.63 25.4505V9.00055ZM11.71 18.2005L9.15 20.7605V18.3605L11.71 15.8005V18.2005ZM4.71 15.8005L7.27 18.3605V20.7605L4.71 18.2005V15.8005ZM11.71 13.0805L8.19 16.6005L4.67 13.0005V10.6005L8.19 14.1205L11.71 10.6005V13.0805ZM8.19 5.48055C8.96415 5.48397 9.71583 5.74108 10.3299 6.21248C10.944 6.68388 11.3866 7.34358 11.59 8.09055L8.19 11.4805L4.79 8.09055C4.98594 7.33615 5.42537 6.6675 6.04013 6.18836C6.65489 5.70921 7.41059 5.44634 8.19 5.44054V5.48055ZM4.67 24.4805V20.8805L7.23 23.4405V26.3005L4.67 24.4805ZM9.15 26.3105V23.4405L11.71 20.8805V24.4705L9.15 26.3105Z" fill="#808080"/>
</svg>
