<svg width="124" height="32" viewBox="0 0 124 32" fill="none" xmlns="http://www.w3.org/2000/svg">
<path d="M36.8691 10.0697H39.8691V22.1997H36.8691V10.0697ZM41.0591 17.6197C41.0591 14.6197 42.8991 12.8297 45.7391 12.8297C48.5791 12.8297 50.4191 14.6197 50.4191 17.6197C50.4191 20.6197 48.6191 22.4197 45.7391 22.4197C42.8591 22.4197 41.0591 20.6697 41.0591 17.6197ZM47.4091 17.6197C47.4091 15.9697 46.7591 14.9997 45.7391 14.9997C44.7191 14.9997 44.0791 15.9997 44.0791 17.6197C44.0791 19.2397 44.7091 20.2197 45.7391 20.2197C46.7691 20.2197 47.4091 19.2997 47.4091 17.6297V17.6197ZM51.5491 22.7897H54.4291C54.5662 23.0942 54.7979 23.3463 55.0898 23.5085C55.3817 23.6706 55.7182 23.7342 56.0491 23.6897C57.1891 23.6897 57.7891 23.0697 57.7891 22.1697V20.4897H57.7291C57.4901 21.0046 57.1022 21.436 56.6156 21.7284C56.129 22.0207 55.5659 22.1605 54.9991 22.1297C52.8091 22.1297 51.3591 20.4597 51.3591 17.5897C51.3591 14.7197 52.7391 12.9097 55.0391 12.9097C55.6237 12.8868 56.2013 13.0431 56.6946 13.3576C57.1879 13.6722 57.5733 14.13 57.7991 14.6697V12.9997H60.7991V22.0997C60.7991 24.2897 58.8691 25.6497 56.0191 25.6497C53.3691 25.6497 51.7191 24.4597 51.5491 22.7997V22.7897ZM57.7991 17.6097C57.7991 16.1497 57.1291 15.2297 56.0691 15.2297C55.0091 15.2297 54.3591 16.1397 54.3591 17.6097C54.3591 19.0797 54.9991 19.9097 56.0691 19.9097C57.1391 19.9097 57.7991 19.0997 57.7991 17.6197V17.6097ZM61.9291 17.6097C61.9291 14.6097 63.7691 12.8197 66.6091 12.8197C69.4491 12.8197 71.2991 14.6097 71.2991 17.6097C71.2991 20.6097 69.4991 22.4097 66.6091 22.4097C63.7191 22.4097 61.9291 20.6697 61.9291 17.6197V17.6097ZM68.2791 17.6097C68.2791 15.9597 67.6291 14.9897 66.6091 14.9897C65.5891 14.9897 64.9991 15.9997 64.9991 17.6297C64.9991 19.2597 65.6291 20.2297 66.6491 20.2297C67.6691 20.2297 68.2791 19.2997 68.2791 17.6297V17.6097ZM72.4391 10.8197C72.4312 10.5168 72.5135 10.2184 72.6754 9.96231C72.8374 9.70621 73.0717 9.50396 73.3487 9.3812C73.6257 9.25844 73.9329 9.2207 74.2314 9.27275C74.5299 9.32481 74.8062 9.46431 75.0253 9.67358C75.2445 9.88286 75.3965 10.1525 75.4622 10.4483C75.5279 10.7441 75.5043 11.0527 75.3943 11.3351C75.2844 11.6174 75.0931 11.8608 74.8447 12.0343C74.5964 12.2078 74.302 12.3037 73.9991 12.3097C73.7983 12.3235 73.5968 12.2956 73.4073 12.2278C73.2177 12.16 73.0443 12.0538 72.8978 11.9157C72.7513 11.7777 72.6349 11.6108 72.556 11.4256C72.477 11.2405 72.4372 11.041 72.4391 10.8397V10.8197ZM72.4391 13.0197H75.4391V22.1997H72.4391V13.0197ZM86.3291 17.6097C86.3291 20.6097 84.9991 22.3197 82.7191 22.3197C82.1345 22.3572 81.5524 22.2143 81.0516 21.9103C80.5508 21.6062 80.1555 21.1557 79.9191 20.6197H79.8591V25.1397H76.8591V12.9997H79.8591V14.6397H79.9191C80.1445 14.0948 80.5323 13.6326 81.0297 13.3159C81.5271 12.9992 82.11 12.8434 82.6991 12.8697C84.9991 12.9097 86.3691 14.6297 86.3691 17.6297L86.3291 17.6097ZM83.3291 17.6097C83.3291 16.1497 82.6591 15.2197 81.6091 15.2197C80.5591 15.2197 79.8891 16.1597 79.8791 17.6097C79.8691 19.0597 80.5591 19.9897 81.6091 19.9897C82.6591 19.9897 83.3291 19.0797 83.3291 17.6297V17.6097ZM91.4791 12.8097C93.9691 12.8097 95.4791 13.9897 95.5491 15.8797H92.8191C92.8191 15.2297 92.2791 14.8197 91.4491 14.8197C90.6191 14.8197 90.2491 15.1397 90.2491 15.6097C90.2491 16.0797 90.5791 16.2297 91.2491 16.3697L93.1691 16.7597C94.9991 17.1497 95.7791 17.8897 95.7791 19.2797C95.7791 21.1797 94.0491 22.3997 91.4991 22.3997C88.9491 22.3997 87.2791 21.1797 87.1491 19.3097H90.0391C90.1291 19.9897 90.6691 20.3897 91.5491 20.3897C92.4291 20.3897 92.8291 20.0997 92.8291 19.6197C92.8291 19.1397 92.5491 19.0397 91.8291 18.8897L90.0991 18.5197C88.3091 18.1497 87.3691 17.1997 87.3691 15.7997C87.3891 13.9997 88.9991 12.8297 91.4791 12.8297V12.8097ZM105.789 22.1797H102.899V20.4697H102.839C102.68 21.0438 102.33 21.5463 101.846 21.8938C101.362 22.2412 100.774 22.4127 100.179 22.3797C99.7233 22.4056 99.2673 22.3334 98.8418 22.1679C98.4163 22.0024 98.0313 21.7476 97.7128 21.4205C97.3943 21.0935 97.1496 20.7018 96.9955 20.2721C96.8413 19.8424 96.7812 19.3846 96.8191 18.9297V12.9997H99.8191V18.2397C99.8191 19.3297 100.379 19.9097 101.309 19.9097C101.527 19.9101 101.743 19.864 101.942 19.7743C102.14 19.6846 102.318 19.5534 102.462 19.3896C102.605 19.2257 102.713 19.033 102.776 18.8244C102.839 18.6157 102.858 18.3959 102.829 18.1797V12.9997H105.829L105.789 22.1797ZM107.239 12.9997H110.139V14.7697H110.199C110.358 14.2032 110.701 13.7054 111.173 13.3544C111.645 13.0034 112.221 12.8188 112.809 12.8297C113.408 12.7818 114.002 12.9609 114.475 13.3315C114.947 13.7021 115.263 14.2369 115.359 14.8297H115.419C115.6 14.2306 115.976 13.709 116.487 13.3469C116.997 12.9848 117.614 12.8028 118.239 12.8297C118.647 12.816 119.053 12.8883 119.431 13.0419C119.81 13.1954 120.151 13.4269 120.434 13.7211C120.717 14.0154 120.935 14.3659 121.074 14.7498C121.212 15.1337 121.269 15.5426 121.239 15.9497V22.1997H118.239V16.7497C118.239 15.7497 117.789 15.2897 116.949 15.2897C116.762 15.2881 116.576 15.3267 116.405 15.4029C116.234 15.4791 116.081 15.5911 115.957 15.7314C115.833 15.8717 115.74 16.0369 115.685 16.216C115.63 16.3952 115.615 16.584 115.639 16.7697V22.1997H112.789V16.7097C112.789 15.7897 112.339 15.2897 111.519 15.2897C111.33 15.2898 111.142 15.33 110.97 15.4077C110.797 15.4855 110.642 15.599 110.517 15.7407C110.391 15.8824 110.297 16.0492 110.24 16.2301C110.184 16.4109 110.166 16.6016 110.189 16.7897V22.1997H107.189L107.239 12.9997Z" fill="#808080"/>
<path d="M28.4796 10.6209C27.9707 9.45723 27.2972 8.3728 26.4796 7.40087C25.2711 5.92121 23.7629 4.71426 22.0543 3.85947C20.3457 3.00469 18.4754 2.52144 16.5666 2.44153C14.6578 2.36162 12.7537 2.68686 10.9796 3.39586C9.20558 4.10485 7.60178 5.18152 6.27381 6.555C4.94583 7.92847 3.92378 9.56762 3.27493 11.3646C2.62608 13.1615 2.36513 15.0755 2.50927 16.9805C2.65342 18.8856 3.19937 20.7385 4.11121 22.4173C5.02305 24.0962 6.2801 25.5629 7.79962 26.7209C8.77462 27.4788 9.85197 28.0949 10.9996 28.5509C12.6086 29.2103 14.3307 29.5499 16.0696 29.5509C19.659 29.543 23.0988 28.1122 25.6351 25.5722C28.1713 23.0322 29.597 19.5903 29.5996 16.0009C29.6022 14.1494 29.2209 12.3175 28.4796 10.6209ZM16.0596 5.19086C17.6212 5.1907 19.1639 5.532 20.5796 6.19086C20.2344 6.34003 19.8714 6.44422 19.4996 6.50087C18.2762 6.67796 17.1429 7.24594 16.2688 8.12004C15.3947 8.99413 14.8267 10.1275 14.6496 11.3509C14.5719 12.037 14.2598 12.6753 13.7661 13.1581C13.2724 13.6409 12.6273 13.9385 11.9396 14.0009C10.7162 14.178 9.58288 14.746 8.70879 15.6201C7.8347 16.4942 7.26671 17.6275 7.08962 18.8509C7.02966 19.5033 6.75131 20.1164 6.29962 20.5909C5.52027 18.9442 5.17017 17.127 5.28189 15.3086C5.39361 13.4902 5.96352 11.7296 6.93859 10.1906C7.91365 8.65166 9.26219 7.38438 10.8587 6.50671C12.4552 5.62904 14.2478 5.16951 16.0696 5.17086L16.0596 5.19086ZM7.78962 23.0009C7.90962 22.8909 8.02962 22.7909 8.14962 22.6709C9.03927 21.8084 9.61033 20.6698 9.76962 19.4409C9.8342 18.7501 10.1426 18.1049 10.6396 17.6209C11.1179 17.1231 11.7616 16.8172 12.4496 16.7609C13.673 16.5838 14.8063 16.0158 15.6804 15.1417C16.5545 14.2676 17.1225 13.1343 17.2996 11.9109C17.3429 11.1884 17.6529 10.5077 18.1696 10.0009C18.6597 9.51272 19.3095 9.21797 19.9996 9.17086C21.1235 9.01623 22.1717 8.51658 22.9996 7.74087C23.9423 8.52294 24.7409 9.46376 25.3596 10.5209C25.3216 10.5722 25.278 10.6192 25.2296 10.6609C24.7523 11.1631 24.1094 11.4757 23.4196 11.5409C22.1949 11.7149 21.0599 12.2819 20.1852 13.1565C19.3106 14.0312 18.7436 15.1662 18.5696 16.3909C18.4991 17.0793 18.1928 17.7222 17.7026 18.2106C17.2123 18.6991 16.5683 19.003 15.8796 19.0709C14.6526 19.2466 13.5151 19.8135 12.6359 20.6872C11.7568 21.561 11.1829 22.695 10.9996 23.9209C10.9458 24.4096 10.7779 24.8789 10.5096 25.2909C9.48361 24.6817 8.56471 23.9081 7.78962 23.0009ZM16.0596 26.8609C15.0449 26.862 14.035 26.7206 13.0596 26.4409C13.3933 25.8189 13.6102 25.141 13.6996 24.4409C13.7697 23.754 14.0746 23.1123 14.5628 22.6241C15.051 22.1359 15.6927 21.831 16.3796 21.7609C17.6048 21.5858 18.7404 21.0187 19.6165 20.1444C20.4925 19.2702 21.062 18.1357 21.2396 16.9109C21.3097 16.224 21.6146 15.5823 22.1028 15.0941C22.591 14.6059 23.2327 14.301 23.9196 14.2309C24.8416 14.111 25.7204 13.7677 26.4796 13.2309C26.9012 14.8288 26.9511 16.502 26.6256 18.1222C26.3001 19.7424 25.6077 21.2666 24.6017 22.5777C23.5957 23.8887 22.3028 24.952 20.822 25.6858C19.3413 26.4196 17.7122 26.8045 16.0596 26.8109V26.8609Z" fill="#808080"/>
</svg>
