<svg width="152" height="19" viewBox="0 0 152 19" fill="none" xmlns="http://www.w3.org/2000/svg">
<path d="M75.693 16.3734H70.573V2.68538H75.693V16.3734ZM71.073 15.8734H75.193V3.18538H71.073V15.8734ZM82.817 16.3734H77.8V2.68538H88.282C89.7836 2.56378 91.279 2.98535 92.496 3.87338C93.0199 4.35269 93.426 4.94657 93.6825 5.60867C93.9391 6.27078 94.0392 6.98321 93.975 7.69038C94.0498 8.91235 93.6609 10.1176 92.886 11.0654C91.969 12.1174 90.443 12.6594 88.351 12.6784C87.824 12.6924 83.875 12.6784 82.82 12.6784L82.817 16.3734ZM78.297 15.8734H82.317V12.1734H82.568C82.619 12.1734 87.746 12.1894 88.339 12.1734C90.288 12.1564 91.689 11.6734 92.508 10.7304C93.1978 9.87283 93.5404 8.78752 93.468 7.68937C93.5295 7.05574 93.4442 6.41647 93.2188 5.82112C92.9933 5.22577 92.6338 4.69035 92.168 4.25638C91.0396 3.44648 89.659 3.06631 88.275 3.18438H78.3L78.297 15.8734ZM87.22 9.60338H82.283V5.87737H87.253C87.6053 5.82869 87.9642 5.86982 88.2963 5.99691C88.6285 6.12401 88.9232 6.33295 89.153 6.60437C89.3615 6.95131 89.4598 7.35335 89.435 7.75737C89.4537 8.13247 89.3727 8.50585 89.2 8.83938C88.9629 9.12526 88.6562 9.34533 88.3094 9.47843C87.9627 9.61153 87.5875 9.65318 87.22 9.59938V9.60338ZM82.783 9.10338H87.22C88.04 9.10338 88.548 8.93238 88.773 8.58038C88.8969 8.32453 88.953 8.04113 88.936 7.75737C88.9579 7.45943 88.8933 7.16151 88.75 6.89937L88.744 6.89038C88.506 6.54038 88.033 6.37737 87.253 6.37737H82.783V9.10338ZM103.1 16.5754C98.61 16.5754 95.93 15.4604 94.909 13.1674C94.7419 12.7245 94.6285 12.2632 94.571 11.7934L94.527 11.5054H99.869L99.904 11.7154C99.9451 11.9286 100.036 12.1293 100.168 12.3014C100.379 12.5564 101.083 12.9844 103.419 12.9844C106.227 12.9844 106.227 12.4914 106.227 12.2264C106.227 11.7794 105.902 11.6264 103.612 11.3824L103.177 11.3414C102.315 11.2604 101.225 11.1574 100.727 11.1144C96.527 10.7344 94.652 9.42938 94.652 6.88438C94.652 4.21138 97.843 2.48438 102.782 2.48438C106.811 2.48438 109.407 3.54638 110.496 5.64338C110.754 6.13116 110.928 6.65936 111.009 7.20537L111.044 7.48637H105.696L105.674 7.26038C105.653 7.08376 105.578 6.91807 105.458 6.78638C105.258 6.51838 104.626 6.07538 102.664 6.07538C100.255 6.07538 99.923 6.38337 99.923 6.71537C99.923 7.15837 100.684 7.31538 103.123 7.57638C104.14 7.65938 105.775 7.82738 106.335 7.89538C109.856 8.27738 111.427 9.55037 111.427 12.0244C111.428 14.0994 109.983 16.5754 103.1 16.5754ZM95.111 12.0054C95.1611 12.3352 95.2473 12.6584 95.368 12.9694C96.298 15.0584 98.828 16.0754 103.1 16.0754C106.672 16.0754 110.931 15.3754 110.931 12.0244C110.931 9.83137 109.541 8.74537 106.282 8.39237C105.722 8.32437 104.097 8.15738 103.082 8.07338C100.482 7.79138 99.425 7.64137 99.425 6.71537C99.425 5.75737 100.564 5.57538 102.666 5.57538C104.327 5.57538 105.4 5.87538 105.855 6.48038C105.979 6.62943 106.073 6.80132 106.131 6.98637H110.465C110.378 6.59962 110.24 6.22607 110.055 5.87538C109.055 3.95638 106.612 2.98438 102.784 2.98438C98.149 2.98438 95.154 4.51538 95.154 6.88438C95.154 9.14438 96.835 10.2604 100.773 10.6164C101.273 10.6594 102.362 10.7624 103.226 10.8444L103.664 10.8854C105.791 11.1094 106.729 11.2494 106.729 12.2264C106.729 13.2784 105.516 13.4844 103.421 13.4844C101.483 13.4844 100.259 13.1934 99.786 12.6204C99.6402 12.4377 99.5302 12.229 99.462 12.0054H95.111ZM120.927 16.5584C115.707 16.5584 112.827 14.4474 112.827 10.6134V2.68538H117.879V10.6134C117.879 11.9284 119.056 12.6824 121.107 12.6824C123.067 12.6824 124.284 11.8954 124.284 10.6304V2.68538H129.284V11.0334C129.289 14.5444 126.24 16.5584 120.924 16.5584H120.927ZM113.327 3.18538V10.6134C113.327 15.3514 118.085 16.0584 120.927 16.0584C123.865 16.0584 128.792 15.4054 128.792 11.0334V3.18538H124.792V10.6304C124.792 12.1804 123.348 13.1824 121.115 13.1824C118.781 13.1824 117.387 12.2224 117.387 10.6134V3.18538H113.327ZM150.472 16.3734H145.704V10.1934L143 16.3734H138.841L136.165 10.2054V16.3734H131.38V2.68538H137.674L140.944 10.2324L144.372 2.68538H150.478L150.472 16.3734ZM146.204 15.8734H149.972V3.18538H144.69L140.928 11.4644L137.342 3.18538H131.876V15.8734H135.661V7.79938L139.161 15.8764H142.661L146.198 7.81137L146.204 15.8734ZM6.054 2.93538H1.5V16.1234H14.084V12.6124H6.054V2.93538ZM23.276 2.63538C17.463 2.63538 14.406 5.39038 14.406 9.43538C14.406 14.0054 17.615 16.3234 23.276 16.3234C29.508 16.3234 32.129 13.6354 32.129 9.43538C32.129 5.17038 29.172 2.63338 23.276 2.63338V2.63538ZM23.259 6.06238C23.6547 6.06052 24.0502 6.08356 24.443 6.13138L19.352 11.2224C19.1111 10.6775 18.9936 10.086 19.008 9.49038C19.008 7.42138 20.05 6.06037 23.259 6.06037V6.06238ZM23.276 12.9504C22.8947 12.9521 22.5137 12.9307 22.135 12.8864L27.235 7.78638C27.4669 8.32228 27.5779 8.90271 27.56 9.48638C27.56 11.4994 26.6 12.9484 23.276 12.9484V12.9504ZM41.152 11.1504H45.839C45.77 11.4757 45.6262 11.7804 45.419 12.0404C44.4473 12.832 43.2072 13.2172 41.958 13.1154C41.3292 13.1827 40.6934 13.114 40.0935 12.914C39.4936 12.7141 38.9436 12.3875 38.481 11.9564C38.0071 11.2613 37.782 10.4265 37.842 9.58738C37.7653 8.70812 38.0101 7.83089 38.531 7.11837C39.186 6.37837 40.295 6.05938 41.925 6.05938C42.9621 5.97351 43.9979 6.23986 44.865 6.81538C45.1383 7.03246 45.3426 7.32429 45.453 7.65538H49.8C49.7684 7.10985 49.6372 6.57471 49.413 6.07638C48.372 3.95938 45.952 2.69938 41.837 2.69938C38.258 2.69938 35.856 3.79138 34.529 5.43838C33.6526 6.62774 33.2027 8.07782 33.252 9.55438C33.1953 11.0644 33.6336 12.5515 34.5 13.7894C35.811 15.4894 38.146 16.3254 40.952 16.3254C42.8175 16.4555 44.6703 15.933 46.193 14.8474L46.311 16.1234H49.922V8.31138H41.152V11.1504ZM60.171 2.63238C54.359 2.63238 51.301 5.38737 51.301 9.43237C51.301 14.0024 54.509 16.3204 60.171 16.3204C66.404 16.3204 69.025 13.6324 69.025 9.43237C69.025 5.17037 66.068 2.63338 60.171 2.63338V2.63238ZM60.155 6.05938C60.5403 6.05824 60.9253 6.08028 61.308 6.12538L56.237 11.1994C56.0036 10.6605 55.89 10.0775 55.904 9.49038C55.9 7.42138 56.946 6.06037 60.155 6.06037V6.05938ZM60.171 12.9474C59.7796 12.9491 59.3885 12.9263 59 12.8794L64.117 7.76138C64.3577 8.30441 64.4729 8.8947 64.454 9.48838C64.456 11.4994 63.5 12.9484 60.171 12.9484V12.9474Z" fill="#808080"/>
</svg>
