<svg width="32" height="32" viewBox="0 0 32 32" fill="none" xmlns="http://www.w3.org/2000/svg">
<path fill-rule="evenodd" clip-rule="evenodd" d="M3.73813 11.1376C3.36461 14.6081 3.38127 18.6108 3.90103 22.0672C4.18863 23.9797 5.74952 25.4458 7.67628 25.6134L9.68992 25.7884C13.8887 26.1534 18.1111 26.1534 22.3099 25.7884L24.3235 25.6134C26.2503 25.4458 27.8112 23.9797 28.0988 22.0672C28.6185 18.6108 28.6352 14.6084 28.2616 11.1378C28.2133 10.7354 28.1591 10.3336 28.0988 9.93249C27.8112 8.01997 26.2503 6.55377 24.3235 6.38628L22.3099 6.21124C18.1111 5.84625 13.8887 5.84625 9.68992 6.21124L7.67628 6.38628C5.74952 6.55377 4.18863 8.01997 3.90103 9.93249C3.84072 10.3335 3.78643 10.7353 3.73813 11.1376ZM9.86312 8.20373C13.9465 7.84876 18.0532 7.84876 22.1367 8.20373L24.1503 8.37877C25.156 8.4662 25.9708 9.23156 26.1209 10.2299C26.1365 10.3336 26.1517 10.4373 26.1665 10.5411L18.7519 14.6604C17.0404 15.6112 14.9593 15.6112 13.2479 14.6604L5.83328 10.5411C5.84803 10.4373 5.8632 10.3336 5.87879 10.2299C6.02892 9.23156 6.84371 8.4662 7.84948 8.37877L9.86312 8.20373ZM26.4112 12.693C26.6699 15.7166 26.5731 18.7632 26.1209 21.7697C25.9708 22.7681 25.156 23.5334 24.1503 23.6209L22.1367 23.796C18.0532 24.1509 13.9465 24.1509 9.86312 23.796L7.84948 23.6209C6.84371 23.5334 6.02892 22.7681 5.87879 21.7697C5.42667 18.7632 5.32992 15.7168 5.58855 12.6931L12.2766 16.4086C14.5921 17.695 17.4076 17.695 19.7231 16.4086L26.4112 12.693Z" fill="black"/>
</svg>
