<svg width="140" height="30" viewBox="0 0 140 30" fill="none" xmlns="http://www.w3.org/2000/svg">
<path d="M22.4191 13.3713C22.0401 13.7526 21.7498 14.2128 21.569 14.719C21.3882 15.2253 21.3213 15.7652 21.373 16.3003L21.355 16.2823C21.4082 16.9122 21.3232 17.546 21.1061 18.1397C20.889 18.7333 20.5451 19.2724 20.0982 19.7194C19.6512 20.1663 19.112 20.5104 18.5183 20.7274C17.9247 20.9445 17.2908 21.0295 16.661 20.9763L16.6791 20.9943C15.9257 20.9242 15.1689 21.0881 14.512 21.4638C13.8552 21.8395 13.3302 22.4086 13.0087 23.0936C12.6872 23.7786 12.5847 24.546 12.7153 25.2914C12.846 26.0367 13.2033 26.7236 13.7386 27.2584C14.2739 27.7932 14.9611 28.1499 15.7065 28.2798C16.452 28.4098 17.2193 28.3066 17.904 27.9845C18.5887 27.6623 19.1573 27.1369 19.5324 26.4797C19.9075 25.8225 20.0708 25.0657 20 24.3123L20.019 24.3303C19.9658 23.7005 20.0507 23.0666 20.2678 22.4729C20.4849 21.8793 20.829 21.3402 21.2759 20.8932C21.7229 20.4463 22.262 20.1022 22.8556 19.8852C23.4493 19.6681 24.0831 19.5831 24.713 19.6363L24.694 19.6183C25.3094 19.6736 25.929 19.5727 26.4951 19.3249C27.0611 19.0771 27.5554 18.6904 27.9322 18.2007C28.309 17.711 28.5563 17.134 28.6507 16.5234C28.7452 15.9127 28.6839 15.2881 28.4727 14.7073C28.2615 14.1266 27.9071 13.6086 27.4424 13.2013C26.9777 12.794 26.4178 12.5106 25.8144 12.3774C25.211 12.2442 24.5837 12.2654 23.9907 12.4391C23.3977 12.6129 22.8582 12.9335 22.4221 13.3713H22.4191Z" fill="#808080"/>
<path d="M15.0412 18.6353L15.0222 18.6173C15.5575 18.6712 16.0981 18.6055 16.605 18.4249C17.1118 18.2443 17.5722 17.9534 17.9528 17.5731C18.3333 17.1928 18.6247 16.7326 18.8056 16.2259C18.9866 15.7192 19.0527 15.1787 18.9992 14.6433L19.0182 14.6613C18.965 14.0314 19.05 13.3976 19.267 12.8039C19.4841 12.2103 19.8282 11.6712 20.2751 11.2242C20.7221 10.7773 21.2612 10.4332 21.8548 10.2162C22.4485 9.99902 23.0823 9.91409 23.7122 9.96726L23.6932 9.94926C24.4467 10.0201 25.2036 9.85662 25.8608 9.48136C26.5181 9.1061 27.0435 8.53723 27.3655 7.85236C27.6875 7.1675 27.7904 6.39997 27.6602 5.65446C27.53 4.90895 27.173 4.22177 26.6378 3.68663C26.1027 3.1515 25.4155 2.79446 24.67 2.66424C23.9245 2.53401 23.157 2.63692 22.4721 2.95894C21.7872 3.28095 21.2184 3.8064 20.8431 4.46361C20.4678 5.12081 20.3044 5.87778 20.3752 6.63126L20.3572 6.61226C20.4105 7.24215 20.3257 7.87609 20.1087 8.46981C19.8917 9.06353 19.5476 9.60272 19.1007 10.0498C18.6537 10.4967 18.1145 10.8408 17.5208 11.0578C16.927 11.2748 16.2931 11.3596 15.6632 11.3063L15.6812 11.3253C15.1459 11.2714 14.6052 11.3371 14.0984 11.5177C13.5916 11.6982 13.1312 11.9892 12.7506 12.3695C12.37 12.7498 12.0787 13.21 11.8977 13.7167C11.7168 14.2234 11.6507 14.7639 11.7042 15.2993L11.6862 15.2813C11.7392 15.9111 11.6541 16.5449 11.437 17.1385C11.2198 17.732 10.8758 18.2711 10.4289 18.718C9.98194 19.1649 9.4429 19.5089 8.84934 19.7261C8.25578 19.9432 7.62199 20.0283 6.99218 19.9753L7.01018 19.9933C6.2567 19.9225 5.49973 20.0859 4.84252 20.4612C4.18532 20.8365 3.65987 21.4053 3.33786 22.0902C3.01584 22.7751 2.91292 23.5426 3.04315 24.2881C3.17338 25.0336 3.53042 25.7208 4.06555 26.2559C4.60069 26.7911 5.28787 27.1481 6.03338 27.2783C6.77889 27.4085 7.54642 27.3056 8.23129 26.9836C8.91615 26.6616 9.48502 26.1362 9.86028 25.479C10.2356 24.8217 10.399 24.0648 10.3282 23.3113L10.3472 23.3293C10.294 22.6994 10.379 22.0656 10.5961 21.4719C10.8131 20.8783 11.1572 20.3392 11.6041 19.8922C12.0511 19.4453 12.5902 19.1012 13.1838 18.8842C13.7775 18.6671 14.4113 18.5821 15.0412 18.6353Z" fill="#808080"/>
<path d="M8.34021 16.6289C8.71923 16.2477 9.00941 15.7875 9.19005 15.2812C9.37069 14.7749 9.43733 14.2349 9.38521 13.6999L9.4042 13.7179C9.351 13.0879 9.43596 12.4538 9.65317 11.86C9.87038 11.2662 10.2146 10.727 10.6618 10.28C11.109 9.83306 11.6483 9.48907 12.2422 9.27212C12.8361 9.05516 13.4702 8.97046 14.1002 9.02394L14.0812 9.00594C14.8344 9.07651 15.5911 8.91302 16.248 8.53778C16.9049 8.16255 17.43 7.59382 17.7519 6.90917C18.0737 6.22451 18.1765 5.45726 18.0463 4.71203C17.9161 3.9668 17.5591 3.27988 17.0242 2.74494C16.4893 2.21 15.8023 1.85308 15.0571 1.72286C14.3119 1.59263 13.5446 1.69545 12.86 2.01727C12.1753 2.33909 11.6066 2.86426 11.2314 3.52116C10.8561 4.17806 10.6926 4.93472 10.7632 5.68794L10.7452 5.66994C10.7984 6.29979 10.7134 6.93366 10.4963 7.5273C10.2792 8.12094 9.93523 8.66005 9.48827 9.10701C9.04132 9.55397 8.5022 9.898 7.90856 10.115C7.31492 10.3321 6.68106 10.4171 6.05121 10.3639L6.06921 10.3819C5.45378 10.3267 4.83437 10.4278 4.26839 10.6757C3.70241 10.9236 3.20816 11.3104 2.83145 11.8002C2.45474 12.2899 2.20776 12.8669 2.11338 13.4775C2.01901 14.0882 2.0803 14.7128 2.29157 15.2934C2.50284 15.8741 2.85727 16.392 3.322 16.7992C3.78673 17.2065 4.34673 17.4898 4.95011 17.623C5.55348 17.7561 6.18071 17.7348 6.77368 17.5611C7.36664 17.3873 7.90614 17.0667 8.3422 16.6289H8.34021Z" fill="#808080"/>
<path d="M39.3164 6.65625H42.2864V21.1092H39.3164V6.65625Z" fill="#808080"/>
<path d="M43.9689 16.1586C43.9648 15.12 44.269 14.1034 44.843 13.2378C45.417 12.3722 46.235 11.6964 47.1934 11.2961C48.1518 10.8957 49.2074 10.7888 50.2266 10.9889C51.2458 11.189 52.1827 11.687 52.9186 12.42C53.6545 13.1529 54.1563 14.0878 54.3605 15.1062C54.5647 16.1246 54.462 17.1807 54.0655 18.1407C53.669 19.1006 52.9965 19.9214 52.1332 20.4988C51.2698 21.0763 50.2546 21.3846 49.2159 21.3846C48.5265 21.3925 47.8424 21.2628 47.2036 21.0032C46.5648 20.7436 45.9842 20.3593 45.4957 19.8728C45.0071 19.3862 44.6205 18.8071 44.3584 18.1694C44.0962 17.5317 43.9638 16.8481 43.9689 16.1586ZM51.4929 16.1586C51.4805 15.7109 51.3364 15.2768 51.0787 14.9105C50.8209 14.5443 50.4609 14.2621 50.0437 14.0994C49.6264 13.9366 49.1705 13.9004 48.7328 13.9954C48.2951 14.0904 47.8951 14.3122 47.5828 14.6333C47.2706 14.9543 47.0598 15.3603 46.9771 15.8005C46.8943 16.2406 46.943 16.6954 47.1173 17.108C47.2916 17.5206 47.5836 17.8726 47.9568 18.1201C48.3301 18.3676 48.7681 18.4996 49.2159 18.4996C49.5226 18.5078 49.8277 18.4523 50.112 18.3367C50.3962 18.2211 50.6534 18.0479 50.8673 17.828C51.0812 17.608 51.2473 17.3461 51.3549 17.0588C51.4626 16.7715 51.5096 16.465 51.4929 16.1586Z" fill="#808080"/>
<path d="M66.3009 11.2088V20.6088C66.3009 23.9348 63.7069 25.3408 61.0739 25.3408C60.1469 25.4102 59.2186 25.2229 58.3909 24.7996C57.5633 24.3762 56.8682 23.7331 56.3819 22.9408L58.9159 21.4758C59.1203 21.8888 59.446 22.2295 59.8493 22.4524C60.2527 22.6752 60.7145 22.7696 61.1729 22.7228C61.4659 22.7634 61.7643 22.7376 62.046 22.6473C62.3276 22.557 62.5854 22.4045 62.8002 22.2012C63.015 21.9978 63.1813 21.7488 63.2869 21.4724C63.3924 21.1961 63.4344 20.8996 63.4099 20.6048V19.6998C63.0621 20.1253 62.6195 20.4634 62.1174 20.6869C61.6153 20.9104 61.0679 21.0131 60.5189 20.9868C59.2127 20.9456 57.9738 20.3978 57.0644 19.4592C56.155 18.5207 55.6465 17.2651 55.6465 15.9583C55.6465 14.6515 56.155 13.3959 57.0644 12.4574C57.9738 11.5188 59.2127 10.971 60.5189 10.9298C61.0679 10.9035 61.6153 11.0062 62.1174 11.2297C62.6195 11.4532 63.0621 11.7913 63.4099 12.2168V11.2068L66.3009 11.2088ZM63.4109 15.9598C63.4309 15.4812 63.3071 15.0075 63.0556 14.5998C62.8041 14.192 62.4363 13.8689 61.9996 13.672C61.5629 13.475 61.0773 13.4133 60.6052 13.4947C60.1331 13.5761 59.6962 13.7969 59.3506 14.1288C59.0051 14.4606 58.7668 14.8882 58.6663 15.3566C58.5659 15.825 58.6079 16.3128 58.7871 16.7571C58.9662 17.2014 59.2742 17.582 59.6714 17.8498C60.0686 18.1176 60.5369 18.2604 61.0159 18.2598C61.328 18.2816 61.6411 18.2378 61.9352 18.1312C62.2293 18.0246 62.4978 17.8575 62.7234 17.6409C62.949 17.4242 63.1268 17.1627 63.2452 16.8731C63.3636 16.5836 63.4201 16.2725 63.4109 15.9598Z" fill="#808080"/>
<path d="M67.9826 16.1586C67.9785 15.12 68.2826 14.1034 68.8567 13.2378C69.4307 12.3722 70.2487 11.6964 71.2071 11.2961C72.1655 10.8957 73.2211 10.7888 74.2403 10.9889C75.2595 11.189 76.1964 11.687 76.9323 12.42C77.6682 13.1529 78.17 14.0878 78.3742 15.1062C78.5784 16.1246 78.4757 17.1807 78.0792 18.1407C77.6827 19.1006 77.0102 19.9214 76.1469 20.4988C75.2835 21.0763 74.2683 21.3846 73.2296 21.3846C72.5402 21.3925 71.856 21.2628 71.2173 21.0032C70.5785 20.7436 69.9979 20.3593 69.5094 19.8728C69.0208 19.3862 68.6342 18.8071 68.3721 18.1694C68.1099 17.5317 67.9775 16.8481 67.9826 16.1586ZM75.5066 16.1586C75.4942 15.7109 75.3501 15.2768 75.0924 14.9105C74.8346 14.5443 74.4746 14.2621 74.0574 14.0994C73.6401 13.9366 73.1841 13.9004 72.7465 13.9954C72.3088 14.0904 71.9088 14.3122 71.5965 14.6333C71.2843 14.9543 71.0735 15.3603 70.9907 15.8005C70.9079 16.2406 70.9567 16.6954 71.131 17.108C71.3053 17.5206 71.5973 17.8726 71.9705 18.1201C72.3438 18.3676 72.7817 18.4996 73.2296 18.4996C73.5363 18.5078 73.8414 18.4523 74.1256 18.3367C74.4099 18.2211 74.6671 18.0479 74.881 17.828C75.0949 17.608 75.261 17.3461 75.3686 17.0588C75.4763 16.7715 75.5233 16.465 75.5066 16.1586Z" fill="#808080"/>
<path d="M79.8613 8.55544C79.8613 8.20299 79.9658 7.85846 80.1616 7.56542C80.3574 7.27237 80.6358 7.04396 80.9614 6.90909C81.287 6.77421 81.6453 6.73892 81.991 6.80768C82.3366 6.87644 82.6542 7.04616 82.9034 7.29538C83.1526 7.54459 83.3223 7.86211 83.3911 8.20779C83.4598 8.55346 83.4245 8.91176 83.2897 9.23738C83.1548 9.563 82.9264 9.84131 82.6333 10.0371C82.3403 10.2329 81.9958 10.3374 81.6433 10.3374C81.1722 10.3327 80.7216 10.1435 80.3884 9.81032C80.0553 9.47714 79.866 9.0266 79.8613 8.55544ZM80.1613 11.2084H83.1323V21.1084H80.1573L80.1613 11.2084Z" fill="#808080"/>
<path d="M95.9557 16.1583C95.99 16.8126 95.8947 17.4672 95.6751 18.0845C95.4556 18.7018 95.1162 19.2696 94.6764 19.7553C94.2367 20.2409 93.7052 20.6349 93.1127 20.9145C92.5201 21.194 91.8782 21.3537 91.2237 21.3843C90.6733 21.4143 90.1232 21.3215 89.6131 21.1126C89.103 20.9036 88.6459 20.5838 88.2747 20.1763V25.0673H85.3047V11.2083H88.2747V12.1383C88.646 11.7311 89.1033 11.4115 89.6133 11.2028C90.1234 10.994 90.6734 10.9013 91.2237 10.9313C91.8783 10.9618 92.5204 11.1214 93.1131 11.401C93.7058 11.6806 94.2373 12.0746 94.6771 12.5604C95.1169 13.0462 95.4563 13.6142 95.6757 14.2317C95.8951 14.8491 95.9903 15.5039 95.9557 16.1583ZM92.9857 16.1583C92.9741 15.695 92.8261 15.2454 92.5602 14.8657C92.2943 14.4861 91.9224 14.1933 91.491 14.0241C91.0595 13.8548 90.5877 13.8165 90.1346 13.9141C89.6815 14.0116 89.2673 14.2406 88.9437 14.5724C88.6201 14.9043 88.4016 15.3241 88.3155 15.7796C88.2294 16.235 88.2795 16.7056 88.4596 17.1327C88.6396 17.5598 88.9417 17.9242 89.3279 18.1805C89.7141 18.4367 90.1672 18.5734 90.6307 18.5733C90.9489 18.5875 91.2665 18.5342 91.5627 18.417C91.8588 18.2999 92.1269 18.1214 92.3492 17.8934C92.5716 17.6653 92.7432 17.3929 92.8529 17.0939C92.9626 16.7949 93.0079 16.476 92.9857 16.1583Z" fill="#808080"/>
<path d="M105.12 18.1379C105.12 20.4149 103.141 21.3849 101.003 21.3849C100.139 21.4631 99.2718 21.2805 98.5129 20.8604C97.754 20.4404 97.1386 19.8024 96.7461 19.0289L99.3191 17.5639C99.4232 17.9214 99.6468 18.2325 99.9525 18.445C100.258 18.6576 100.628 18.7589 100.999 18.7319C101.711 18.7319 102.068 18.5139 102.068 18.1189C102.068 17.0289 97.1971 17.6039 97.1971 14.1789C97.1971 12.0199 99.0191 10.9319 101.078 10.9319C101.852 10.9074 102.618 11.091 103.297 11.4635C103.976 11.8361 104.543 12.3839 104.938 13.0499L102.404 14.4159C102.293 14.1566 102.108 13.9357 101.872 13.7808C101.636 13.6259 101.36 13.5439 101.078 13.5449C100.563 13.5449 100.246 13.7449 100.246 14.0989C100.25 15.2279 105.12 14.4749 105.12 18.1379Z" fill="#808080"/>
<path d="M115.971 11.209V21.109H113.001V20.178C112.658 20.5888 112.223 20.9125 111.731 21.1225C111.239 21.3325 110.705 21.4228 110.171 21.386C108.171 21.386 106.471 19.961 106.471 17.286V11.209H109.441V16.851C109.416 17.0868 109.443 17.3252 109.52 17.5495C109.596 17.7739 109.721 17.9789 109.885 18.1502C110.049 18.3215 110.248 18.455 110.469 18.5415C110.689 18.628 110.926 18.6654 111.163 18.651C112.252 18.651 113.004 18.018 113.004 16.612V11.212L115.971 11.209Z" fill="#808080"/>
<path d="M132.999 15.0307V21.1087H130.029V15.2877C130.029 14.2977 129.554 13.6647 128.604 13.6647C127.614 13.6647 127.059 14.3577 127.059 15.5257V21.1087H124.09V15.2877C124.09 14.2977 123.615 13.6647 122.664 13.6647C121.674 13.6647 121.12 14.3577 121.12 15.5257V21.1087H118.15V11.2087H121.12V12.1187C121.428 11.715 121.832 11.3948 122.295 11.1875C122.759 10.9801 123.267 10.8922 123.773 10.9317C124.281 10.9068 124.787 11.0141 125.242 11.243C125.696 11.4718 126.083 11.8146 126.366 12.2377C126.695 11.795 127.131 11.443 127.633 11.2146C128.135 10.9862 128.687 10.8889 129.237 10.9317C131.51 10.9327 132.999 12.5557 132.999 15.0307Z" fill="#808080"/>
<path d="M135.513 11.1482C136.73 11.1482 137.717 10.1614 137.717 8.94423C137.717 7.72699 136.73 6.74023 135.513 6.74023C134.296 6.74023 133.309 7.72699 133.309 8.94423C133.309 10.1614 134.296 11.1482 135.513 11.1482Z" fill="#808080"/>
</svg>
