<svg width="32" height="32" viewBox="0 0 32 32" fill="none" xmlns="http://www.w3.org/2000/svg">
<path fill-rule="evenodd" clip-rule="evenodd" d="M16.0001 8.33398C13.6069 8.33398 11.6667 10.2741 11.6667 12.6673C11.6667 15.0605 13.6069 17.0007 16.0001 17.0007C18.3933 17.0007 20.3334 15.0605 20.3334 12.6673C20.3334 10.2741 18.3933 8.33398 16.0001 8.33398ZM13.6667 12.6673C13.6667 11.3787 14.7114 10.334 16.0001 10.334C17.2887 10.334 18.3334 11.3787 18.3334 12.6673C18.3334 13.956 17.2887 15.0007 16.0001 15.0007C14.7114 15.0007 13.6667 13.956 13.6667 12.6673Z" fill="black"/>
<path fill-rule="evenodd" clip-rule="evenodd" d="M15.9999 3C10.6612 3 6.33325 7.32792 6.33325 12.6667C6.33325 14.6241 6.9151 16.4457 7.91528 17.968L4.46722 23.9401C4.27114 24.2799 4.29168 24.7027 4.51976 25.0217C4.74782 25.3408 5.14133 25.4971 5.52614 25.4213L9.0113 24.7363L10.1605 28.0971C10.2874 28.4681 10.6195 28.7308 11.0099 28.7688C11.4002 28.8068 11.7767 28.6132 11.9728 28.2735L15.4125 22.3157C15.6069 22.3275 15.8027 22.3333 15.9999 22.3333C16.1971 22.3333 16.393 22.3275 16.5874 22.3157L20.0271 28.2735C20.2234 28.6135 20.6005 28.8072 20.9911 28.7687C21.3818 28.7303 21.7138 28.4668 21.8401 28.0951L22.9834 24.7273L26.4715 25.4209C26.8566 25.4976 27.2509 25.3417 27.4795 25.0227C27.7082 24.7035 27.7289 24.2801 27.5326 23.9401L24.0846 17.968C25.0847 16.4457 25.6666 14.6241 25.6666 12.6667C25.6666 7.32792 21.3387 3 15.9999 3ZM8.33325 12.6667C8.33325 8.43248 11.7657 5 15.9999 5C20.2341 5 23.6666 8.43248 23.6666 12.6667C23.6666 16.9008 20.2341 20.3333 15.9999 20.3333C11.7657 20.3333 8.33325 16.9008 8.33325 12.6667ZM13.3116 21.9547C11.7743 21.5104 10.3945 20.6949 9.2758 19.6115L7.29952 23.0345L9.48214 22.6055C9.97288 22.5089 10.4594 22.7899 10.6212 23.2631L11.341 25.3679L13.3116 21.9547ZM20.6557 25.3623L18.6883 21.9547C20.2255 21.5104 21.6053 20.6949 22.7241 19.6115L24.6971 23.0289L22.5134 22.5948C22.0213 22.4969 21.5329 22.7789 21.3715 23.2541L20.6557 25.3623Z" fill="black"/>
</svg>
