<svg width="32" height="32" viewBox="0 0 32 32" fill="none" xmlns="http://www.w3.org/2000/svg">
<path d="M17 9.33398C17 8.7817 16.5523 8.33398 16 8.33398C15.4477 8.33398 15 8.7817 15 9.33398V16.0007C15 16.3455 15.1776 16.6659 15.47 16.8487L19.47 19.3486C19.9384 19.6413 20.5553 19.4991 20.848 19.0307C21.1407 18.5623 20.9984 17.9453 20.53 17.6527L17 15.4464V9.33398Z" fill="black"/>
<path fill-rule="evenodd" clip-rule="evenodd" d="M15.9999 4.33398C9.5566 4.33398 4.33325 9.55733 4.33325 16.0007C4.33325 22.444 9.5566 27.6673 15.9999 27.6673C22.4433 27.6673 27.6666 22.444 27.6666 16.0007C27.6666 9.55733 22.4433 4.33398 15.9999 4.33398ZM6.33325 16.0007C6.33325 10.6619 10.6612 6.33398 15.9999 6.33398C21.3387 6.33398 25.6666 10.6619 25.6666 16.0007C25.6666 21.3394 21.3387 25.6673 15.9999 25.6673C10.6612 25.6673 6.33325 21.3394 6.33325 16.0007Z" fill="black"/>
</svg>
