<svg width="32" height="32" viewBox="0 0 32 32" fill="none" xmlns="http://www.w3.org/2000/svg">
<path fill-rule="evenodd" clip-rule="evenodd" d="M25.239 19.2944C23.5439 19.105 21.7894 19.105 20.0944 19.2944C19.6826 19.3404 19.3578 19.6666 19.3115 20.0627C19.1091 21.7932 19.1091 23.5415 19.3115 25.272C19.3578 25.6682 19.6826 25.9943 20.0944 26.0403C21.7894 26.2298 23.5439 26.2298 25.239 26.0403C25.6508 25.9943 25.9756 25.6682 26.0219 25.272C26.2243 23.5415 26.2243 21.7932 26.0219 20.0627C25.9756 19.6666 25.6508 19.3404 25.239 19.2944ZM19.8723 17.3068C21.715 17.1008 23.6184 17.1008 25.4611 17.3068C26.7822 17.4544 27.8522 18.4944 28.0083 19.8303C28.2288 21.7152 28.2288 23.6195 28.0083 25.5044C27.8522 26.8403 26.7822 27.8803 25.4611 28.0279C23.6184 28.2339 21.715 28.2339 19.8723 28.0279C18.5512 27.8803 17.4812 26.8403 17.325 25.5044C17.1046 23.6195 17.1046 21.7152 17.325 19.8303C17.4812 18.4944 18.5512 17.4544 19.8723 17.3068Z" fill="black"/>
<path fill-rule="evenodd" clip-rule="evenodd" d="M11.9056 19.2944C10.2107 19.105 8.45615 19.105 6.76119 19.2944C6.34934 19.3404 6.02454 19.6666 5.97822 20.0627C5.77581 21.7932 5.77581 23.5415 5.97822 25.272C6.02454 25.6682 6.34934 25.9943 6.76119 26.0403C8.45615 26.2298 10.2107 26.2298 11.9056 26.0403C12.3175 25.9943 12.6423 25.6682 12.6886 25.272C12.891 23.5415 12.891 21.7932 12.6886 20.0627C12.6423 19.6666 12.3175 19.3404 11.9056 19.2944ZM6.53905 17.3068C8.38165 17.1008 10.2852 17.1008 12.1278 17.3068C13.4489 17.4544 14.5189 18.4944 14.675 19.8303C14.8956 21.7152 14.8956 23.6195 14.675 25.5044C14.5189 26.8403 13.4489 27.8803 12.1278 28.0279C10.2852 28.2339 8.38165 28.2339 6.53905 28.0279C5.21793 27.8803 4.14801 26.8403 3.99177 25.5044C3.7713 23.6195 3.7713 21.7152 3.99177 19.8303C4.14801 18.4944 5.21793 17.4544 6.53905 17.3068Z" fill="black"/>
<path fill-rule="evenodd" clip-rule="evenodd" d="M25.239 5.96044C23.5439 5.771 21.7894 5.771 20.0944 5.96044C19.6826 6.00646 19.3578 6.33258 19.3115 6.72866C19.1091 8.45925 19.1091 10.2075 19.3115 11.9381C19.3578 12.3342 19.6826 12.6603 20.0944 12.7064C21.7894 12.8958 23.5439 12.8958 25.239 12.7064C25.6508 12.6603 25.9756 12.3342 26.0219 11.9381C26.2243 10.2075 26.2243 8.45925 26.0219 6.72866C25.9756 6.33258 25.6508 6.00646 25.239 5.96044ZM19.8723 3.97281C21.715 3.76688 23.6184 3.76688 25.4611 3.97281C26.7822 4.12046 27.8522 5.16045 28.0083 6.49633C28.2288 8.38128 28.2288 10.2855 28.0083 12.1705C27.8522 13.5063 26.7822 14.5463 25.4611 14.6939C23.6184 14.8999 21.715 14.8999 19.8723 14.6939C18.5512 14.5463 17.4812 13.5063 17.325 12.1705C17.1046 10.2855 17.1046 8.38128 17.325 6.49633C17.4812 5.16045 18.5512 4.12046 19.8723 3.97281Z" fill="black"/>
<path fill-rule="evenodd" clip-rule="evenodd" d="M11.9056 5.96044C10.2107 5.771 8.45615 5.771 6.76119 5.96044C6.34934 6.00646 6.02454 6.33258 5.97822 6.72866C5.77581 8.45925 5.77581 10.2075 5.97822 11.9381C6.02454 12.3342 6.34934 12.6603 6.76119 12.7064C8.45615 12.8958 10.2107 12.8958 11.9056 12.7064C12.3175 12.6603 12.6423 12.3342 12.6886 11.9381C12.891 10.2075 12.891 8.45925 12.6886 6.72866C12.6423 6.33258 12.3175 6.00646 11.9056 5.96044ZM6.53905 3.97281C8.38165 3.76688 10.2852 3.76688 12.1278 3.97281C13.4489 4.12046 14.5189 5.16045 14.675 6.49633C14.8956 8.38128 14.8956 10.2855 14.675 12.1705C14.5189 13.5063 13.4489 14.5463 12.1278 14.6939C10.2852 14.8999 8.38165 14.8999 6.53905 14.6939C5.21793 14.5463 4.14801 13.5063 3.99177 12.1705C3.7713 10.2855 3.7713 8.38128 3.99177 6.49633C4.14801 5.16045 5.21793 4.12046 6.53905 3.97281Z" fill="black"/>
</svg>
