<svg width="32" height="32" viewBox="0 0 32 32" fill="none" xmlns="http://www.w3.org/2000/svg">
<path fill-rule="evenodd" clip-rule="evenodd" d="M15 5.04484C9.39351 5.55007 5 10.262 5 16C5 22.0751 9.92487 27 16 27C19.0952 27 21.8913 25.7225 23.8913 23.6635L15.3715 16.7777C15.1365 16.5879 15 16.302 15 16V5.04484ZM17 5.04484V15H26.9552C26.4796 9.72287 22.2772 5.52039 17 5.04484ZM26.9552 17H18.8283L25.1495 22.1087C26.1443 20.6219 26.786 18.8796 26.9552 17ZM3 16C3 8.82029 8.82029 3 16 3C23.1797 3 29 8.82029 29 16C29 19.0949 27.9172 21.9397 26.1107 24.1721C23.7291 27.1153 20.0843 29 16 29C8.82029 29 3 23.1797 3 16Z" fill="black"/>
</svg>
