<svg width="96" height="24" viewBox="0 0 96 24" fill="none" xmlns="http://www.w3.org/2000/svg">
<path d="M2.35352 22.2602H22.8735V1.74023H2.35352V22.2602ZM18.9239 10.0258H14.5879V5.68983H18.9239V10.0258ZM6.30232 5.68983H10.6407V13.9746H18.9239V18.3106H6.30232V5.68983ZM36.2359 1.74023C34.2067 1.74023 32.223 2.34198 30.5358 3.46936C28.8485 4.59675 27.5335 6.19914 26.7569 8.07391C25.9803 9.94871 25.7772 12.0116 26.1731 14.0018C26.569 15.9921 27.5461 17.8202 28.981 19.2551C30.4159 20.6901 32.244 21.6672 34.2343 22.0631C36.2246 22.459 38.2875 22.2558 40.1623 21.4793C42.0371 20.7027 43.6394 19.3877 44.7668 17.7004C45.8942 16.0131 46.4959 14.0294 46.4959 12.0002C46.4927 9.28007 45.4107 6.67227 43.4873 4.74883C41.5639 2.82539 38.9561 1.74341 36.2359 1.74023ZM36.2359 18.3106C34.9879 18.3106 33.7678 17.9406 32.73 17.2471C31.6923 16.5538 30.8835 15.5682 30.4059 14.4151C29.9283 13.2621 29.8033 11.9933 30.0467 10.7691C30.2903 9.54503 30.8913 8.42063 31.7738 7.53811C32.6563 6.65559 33.7807 6.05458 35.0048 5.81109C36.2289 5.5676 37.4977 5.69257 38.6508 6.17019C39.8039 6.6478 40.7895 7.45663 41.4828 8.49439C42.1763 9.53207 42.5463 10.7522 42.5463 12.0002C42.5438 13.6731 41.8781 15.2767 40.6952 16.4596C39.5123 17.6425 37.9087 18.3081 36.2359 18.3106ZM83.2111 1.74023C81.1815 1.74008 79.1981 2.34168 77.5107 3.46897C75.8234 4.59626 74.5083 6.19859 73.7315 8.07335C72.9549 9.94807 72.7515 12.0111 73.1474 14.0014C73.5431 15.9917 74.5203 17.8199 75.9551 19.2549C77.3899 20.6898 79.2181 21.6671 81.2087 22.063C83.1983 22.459 85.2615 22.2558 87.1367 21.4794C89.0111 20.7028 90.6135 19.3878 91.7407 17.7005C92.8687 16.0132 93.4703 14.0295 93.4703 12.0002C93.4671 9.28023 92.3855 6.67252 90.4623 4.74911C88.5391 2.8257 85.9311 1.74363 83.2111 1.74023ZM83.2111 18.3106C81.9631 18.3108 80.7431 17.9408 79.7051 17.2475C78.6672 16.5542 77.8583 15.5687 77.3805 14.4157C76.9027 13.2626 76.7777 11.9938 77.0211 10.7696C77.2645 9.54551 77.8655 8.42103 78.7479 7.53839C79.6304 6.65579 80.7551 6.0547 81.9791 5.81115C83.2031 5.56759 84.4719 5.69251 85.6247 6.17011C86.7783 6.64771 87.7639 7.45652 88.4575 8.49431C89.1503 9.53207 89.5207 10.7522 89.5207 12.0002C89.5183 13.673 88.8527 15.2764 87.6695 16.4593C86.4871 17.6422 84.8839 18.3079 83.2111 18.3106ZM59.7231 1.74023C57.6939 1.74023 55.7102 2.34198 54.023 3.46936C52.3357 4.59675 51.0207 6.19914 50.2441 8.07391C49.4675 9.94871 49.2644 12.0116 49.6603 14.0018C50.0562 15.9921 51.0333 17.8202 52.4682 19.2551C53.9031 20.6901 55.7312 21.6672 57.7215 22.0631C59.7117 22.459 61.7747 22.2558 63.6495 21.4793C65.5243 20.7027 67.1266 19.3877 68.254 17.7004C69.3814 16.0131 69.9831 14.0294 69.9831 12.0002C69.9799 9.28007 68.8979 6.67227 66.9745 4.74883C65.0511 2.82539 62.4433 1.74341 59.7231 1.74023ZM59.7231 18.3106C58.5603 18.3112 57.4199 17.9905 56.4279 17.3838C55.4359 16.7772 54.6307 15.9083 54.1013 14.873C53.572 13.8376 53.339 12.6761 53.4281 11.5167C53.5172 10.3573 53.9249 9.24503 54.6063 8.30271C55.2876 7.36044 56.2161 6.62472 57.2891 6.1768C58.3623 5.72887 59.5383 5.58617 60.6873 5.76443C61.8364 5.94269 62.9139 6.43498 63.8008 7.18697C64.6878 7.93895 65.3497 8.92143 65.7135 10.0258H59.7231V13.9746H65.7135C65.2968 15.2349 64.4939 16.332 63.4187 17.1102C62.3435 17.8886 61.0505 18.3085 59.7231 18.3106Z" fill="#808080"/>
</svg>
