<svg width="32" height="32" viewBox="0 0 32 32" fill="none" xmlns="http://www.w3.org/2000/svg">
<path d="M16 27C16.5523 27 17 27.4477 17 28V29.3333C17 29.8856 16.5523 30.3333 16 30.3333C15.4477 30.3333 15 29.8856 15 29.3333V28C15 27.4477 15.4477 27 16 27Z" fill="black"/>
<path d="M30.3333 16C30.3333 16.5523 29.8856 17 29.3333 17H28C27.4477 17 27 16.5523 27 16C27 15.4477 27.4477 15 28 15H29.3333C29.8856 15 30.3333 15.4477 30.3333 16Z" fill="black"/>
<path fill-rule="evenodd" clip-rule="evenodd" d="M8.33325 16.0007C8.33325 11.7665 11.7657 8.33398 15.9999 8.33398C20.2341 8.33398 23.6666 11.7665 23.6666 16.0007C23.6666 20.2348 20.2341 23.6673 15.9999 23.6673C11.7657 23.6673 8.33325 20.2348 8.33325 16.0007ZM15.9999 10.334C12.8703 10.334 10.3333 12.871 10.3333 16.0007C10.3333 19.1303 12.8703 21.6673 15.9999 21.6673C19.1295 21.6673 21.6666 19.1303 21.6666 16.0007C21.6666 12.871 19.1295 10.334 15.9999 10.334Z" fill="black"/>
<path d="M25.1924 23.7773C24.8019 23.3867 24.1688 23.3867 23.7783 23.7773C23.3877 24.1678 23.3877 24.801 23.7783 25.1915L24.7211 26.1343C25.1116 26.5249 25.7447 26.5249 26.1352 26.1343C26.5257 25.7438 26.5257 25.1106 26.1352 24.7201L25.1924 23.7773Z" fill="black"/>
<path d="M8.22169 25.1915C8.61221 24.801 8.61221 24.1678 8.22169 23.7773C7.83116 23.3867 7.198 23.3867 6.80748 23.7773L5.86467 24.7201C5.47415 25.1106 5.47415 25.7438 5.86467 26.1343C6.25519 26.5249 6.88836 26.5249 7.27888 26.1343L8.22169 25.1915Z" fill="black"/>
<path d="M5.00008 16C5.00008 16.5523 4.55236 17 4.00008 17H2.66675C2.11447 17 1.66675 16.5523 1.66675 16C1.66675 15.4477 2.11447 15 2.66675 15H4.00008C4.55236 15 5.00008 15.4477 5.00008 16Z" fill="black"/>
<path d="M26.1353 7.27938C26.5259 6.88885 26.5259 6.25569 26.1353 5.86517C25.7448 5.47463 25.1116 5.47463 24.7211 5.86517L23.7783 6.80797C23.3877 7.1985 23.3877 7.83166 23.7783 8.22218C24.1688 8.61271 24.802 8.61271 25.1925 8.22218L26.1353 7.27938Z" fill="black"/>
<path d="M7.27913 5.86516C6.8886 5.47464 6.25544 5.47464 5.86492 5.86516C5.47439 6.25569 5.47439 6.88885 5.86492 7.27938L6.80772 8.22218C7.19825 8.61272 7.83141 8.61272 8.22193 8.22218C8.61247 7.83166 8.61247 7.19849 8.22193 6.80797L7.27913 5.86516Z" fill="black"/>
<path d="M16 1.66602C16.5523 1.66602 17 2.11374 17 2.66602V3.99935C17 4.55163 16.5523 4.99935 16 4.99935C15.4477 4.99935 15 4.55163 15 3.99935V2.66602C15 2.11374 15.4477 1.66602 16 1.66602Z" fill="black"/>
</svg>
