<svg width="127" height="48" viewBox="0 0 127 48" fill="none" xmlns="http://www.w3.org/2000/svg">
<path d="M25.7441 24.3402C25.7441 22.5879 26.7904 21.3672 28.3893 21.3672C29.9882 21.3672 31.0343 22.5879 31.0343 24.3402C31.0343 26.073 29.9882 27.3133 28.3893 27.3133C26.7904 27.3133 25.7441 26.073 25.7441 24.3402Z" fill="#808080"/>
<path d="M39.2651 21.2891C37.7452 21.2891 36.7188 22.4704 36.7188 24.0849C36.7188 25.7191 37.7649 26.9398 39.2651 26.9398C40.9232 26.9398 42.0286 25.6994 42.0286 24.0849C42.0286 22.4901 40.9232 21.2891 39.2651 21.2891Z" fill="#808080"/>
<path d="M48.0762 24.3402C48.0762 22.5879 49.1224 21.3672 50.7213 21.3672C52.3202 21.3672 53.3664 22.5879 53.3664 24.3402C53.3664 26.073 52.3202 27.3133 50.7213 27.3133C49.1224 27.3133 48.0762 26.073 48.0762 24.3402Z" fill="#808080"/>
<path d="M64.1621 24.3598C64.1621 22.6074 65.228 21.3867 66.9059 21.3867C68.5838 21.3867 69.5904 22.6271 69.5904 24.3598C69.5904 26.0924 68.5838 27.3131 66.9059 27.3131C65.228 27.3131 64.1621 26.1121 64.1621 24.3598Z" fill="#808080"/>
<path fill-rule="evenodd" clip-rule="evenodd" d="M63.1584 44.9398C96.6978 44.9398 123.887 35.4236 123.887 23.6847C123.887 11.9459 96.6978 2.42969 63.1584 2.42969C29.6189 2.42969 2.42969 11.9459 2.42969 23.6847C2.42969 35.4236 29.6189 44.9398 63.1584 44.9398ZM21.842 29.2242V14.5754H19.4337V29.2242H21.842ZM23.3159 24.3412C23.3159 27.334 25.3294 29.4605 28.389 29.4605C31.4486 29.4605 33.462 27.334 33.462 24.3412C33.462 21.3485 31.4486 19.2221 28.389 19.2221C25.3294 19.2221 23.3159 21.3485 23.3159 24.3412ZM38.8516 29.0273C36.1077 29.0273 34.2719 26.9796 34.2719 24.1443C34.2719 21.2894 36.1472 19.1827 38.9305 19.1827C40.3715 19.1827 41.5953 19.7931 42.1875 20.8169L42.3257 19.4977H44.4575V28.732C44.4575 31.9413 42.4442 34.0086 39.2858 34.0086C36.6012 34.0086 34.647 32.3548 34.3312 29.8148H36.7592C36.8973 31.0947 37.9238 31.8232 39.4239 31.8232C41.1018 31.8232 42.1086 30.7599 42.1086 29.1651V27.5112C41.4966 28.4563 40.2728 29.0273 38.8516 29.0273ZM45.6493 24.3412C45.6493 27.334 47.6628 29.4605 50.7224 29.4605C53.782 29.4605 55.7954 27.334 55.7954 24.3412C55.7954 21.3485 53.782 19.2221 50.7224 19.2221C47.6628 19.2221 45.6493 21.3485 45.6493 24.3412ZM59.8426 16.0718C59.8426 16.8791 59.1913 17.5091 58.4016 17.5091C57.5924 17.5091 56.9804 16.8791 56.9804 16.0718C56.9804 15.2842 57.5924 14.6542 58.4016 14.6542C59.1913 14.6542 59.8426 15.2842 59.8426 16.0718ZM59.6058 19.4977V29.2242H57.1976V19.4977H59.6058ZM61.7156 33.733H64.0646V27.8853C64.6765 28.8894 65.999 29.4801 67.4598 29.4801C70.3418 29.4801 72.0591 27.275 72.0196 24.2428C71.9604 21.191 70.2036 19.2024 67.44 19.2024C65.9596 19.2024 64.6173 19.8521 64.0251 20.9744L63.8869 19.4977H61.7156V33.733ZM76.5395 29.4801C74.2102 29.4801 72.71 28.2397 72.6311 26.3102H74.8222C74.8222 27.1568 75.4341 27.649 76.5 27.649C77.3883 27.649 78.1187 27.2947 78.1187 26.5267C78.1187 25.9754 77.7238 25.6801 77.0922 25.5029L75.3946 25.0697C73.5194 24.5775 72.789 23.534 72.789 22.2739C72.789 20.4231 74.3484 19.2024 76.4408 19.2024C78.5529 19.2024 79.9939 20.4231 80.0729 22.3527H77.8818C77.8818 21.506 77.2895 20.9941 76.3816 20.9941C75.513 20.9941 74.9801 21.4666 74.9801 22.1361C74.9801 22.7662 75.4735 23.0221 76.2039 23.219L77.9213 23.6324C79.5202 24.0262 80.3887 24.9713 80.3887 26.3693C80.3887 28.2594 78.8292 29.4801 76.5395 29.4801ZM85.3841 29.4801C86.7062 29.4801 87.9694 28.8697 88.542 27.964L88.7003 29.2242H90.9504V19.4977H88.542V24.5972C88.542 26.3496 87.8709 27.334 86.2919 27.334C85.0683 27.334 84.2195 26.7433 84.2195 24.7351V19.4977H81.811V25.5816C81.811 27.905 83.0743 29.4801 85.3841 29.4801ZM95.4843 23.6324V29.2242H93.0759V19.4977H95.2864L95.4052 20.6003C95.9778 19.734 97.0043 19.2024 98.1487 19.2024C99.7673 19.2024 100.833 19.9112 101.366 21.0531C101.841 19.9112 103.005 19.2024 104.486 19.2024C106.854 19.2024 108.097 20.6201 108.097 22.8646V29.2242H105.768V23.4158C105.768 22.0377 105.019 21.3091 103.854 21.3091C102.709 21.3091 101.801 22.0574 101.801 23.6521V29.2242H99.4515V23.4158C99.4515 22.0377 98.702 21.3091 97.5567 21.3091C96.4123 21.3091 95.4843 22.0574 95.4843 23.6324Z" fill="#808080"/>
</svg>
