<svg width="132" height="35" viewBox="0 0 132 35" fill="none" xmlns="http://www.w3.org/2000/svg">
<path d="M44.8293 25.2035C44.2345 25.2358 43.6462 25.0667 43.1593 24.7235C42.9559 24.5727 42.7922 24.3746 42.6824 24.1464C42.5726 23.9181 42.5201 23.6666 42.5293 23.4135V14.1435C42.5245 14.1043 42.5286 14.0644 42.5415 14.027C42.5543 13.9896 42.5755 13.9557 42.6035 13.9277C42.6315 13.8997 42.6654 13.8785 42.7028 13.8657C42.7402 13.8528 42.7801 13.8487 42.8193 13.8535H44.4993C44.6893 13.8535 44.7793 13.9535 44.7793 14.1435V22.6935C44.7793 23.0735 44.9493 23.2635 45.2993 23.2635C45.4477 23.2696 45.5961 23.2528 45.7393 23.2135C45.9393 23.2135 46.0493 23.2735 46.0593 23.4535L46.2093 24.7035C46.2165 24.74 46.2158 24.7775 46.2073 24.8137C46.1988 24.8498 46.1826 24.8838 46.1598 24.9131C46.1371 24.9425 46.1083 24.9667 46.0755 24.984C46.0426 25.0013 46.0064 25.0114 45.9693 25.0135C45.6013 25.1351 45.2168 25.1992 44.8293 25.2035Z" fill="#808080"/>
<path d="M54.2793 24.1347C53.4352 24.8322 52.3743 25.2137 51.2793 25.2137C50.1843 25.2137 49.1235 24.8322 48.2793 24.1347C47.5374 23.3857 47.1211 22.374 47.1211 21.3197C47.1211 20.2654 47.5374 19.2537 48.2793 18.5047C49.1251 17.8108 50.1853 17.4316 51.2793 17.4316C52.3733 17.4316 53.4335 17.8108 54.2793 18.5047C55.0042 19.2606 55.4089 20.2674 55.4089 21.3147C55.4089 22.362 55.0042 23.3688 54.2793 24.1247V24.1347ZM49.8593 22.8147C50.2511 23.1696 50.7607 23.3661 51.2893 23.3661C51.8179 23.3661 52.3276 23.1696 52.7193 22.8147C53.0739 22.4071 53.2691 21.885 53.2691 21.3447C53.2691 20.8045 53.0739 20.2824 52.7193 19.8747C52.3276 19.5199 51.8179 19.3233 51.2893 19.3233C50.7607 19.3233 50.2511 19.5199 49.8593 19.8747C49.5048 20.2824 49.3095 20.8045 49.3095 21.3447C49.3095 21.885 49.5048 22.4071 49.8593 22.8147Z" fill="#808080"/>
<path d="M64.6609 17.6856C64.8509 17.6856 64.9409 17.7856 64.9409 17.9756V25.1456C64.9584 25.6296 64.8678 26.1113 64.6758 26.5558C64.4838 27.0004 64.1952 27.3966 63.8309 27.7156C63.0223 28.4051 61.9825 28.7624 60.9209 28.7156C59.9621 28.7493 59.016 28.4875 58.2109 27.9656C57.8671 27.7399 57.5734 27.4458 57.3481 27.1018C57.1227 26.7577 56.9705 26.371 56.9009 25.9656C56.9009 25.7656 56.9009 25.6756 57.1709 25.6756H58.8509C58.9222 25.678 58.9914 25.7011 59.0499 25.7419C59.1085 25.7827 59.154 25.8395 59.1809 25.9056C59.2899 26.2093 59.5071 26.4622 59.7909 26.6156C60.1368 26.7941 60.5218 26.8835 60.9109 26.8756C61.1457 26.8885 61.3807 26.8544 61.6022 26.7754C61.8237 26.6965 62.0272 26.5741 62.2009 26.4156C62.3596 26.2498 62.483 26.0535 62.5638 25.8387C62.6446 25.6239 62.681 25.3949 62.6709 25.1656V24.5356C62.0694 24.978 61.3373 25.2068 60.5909 25.1856C60.0685 25.2046 59.5477 25.1179 59.0596 24.9306C58.5716 24.7432 58.1265 24.4593 57.7509 24.0956C57.03 23.3498 56.627 22.353 56.627 21.3156C56.627 20.2783 57.03 19.2815 57.7509 18.5356C58.1283 18.1752 58.574 17.894 59.0617 17.7085C59.5495 17.523 60.0694 17.437 60.5909 17.4556C61.3589 17.4353 62.1107 17.6789 62.7209 18.1456V17.9856C62.7163 17.9473 62.7203 17.9084 62.7326 17.8718C62.7449 17.8353 62.7652 17.8019 62.792 17.7741C62.8188 17.7463 62.8515 17.7249 62.8876 17.7113C62.9238 17.6977 62.9625 17.6924 63.0009 17.6956L64.6609 17.6856ZM60.7809 23.4056C61.0385 23.4136 61.2948 23.3649 61.5315 23.2629C61.7682 23.161 61.9797 23.0083 62.1509 22.8156C62.4834 22.3863 62.6638 21.8586 62.6638 21.3156C62.6638 20.7726 62.4834 20.245 62.1509 19.8156C61.9803 19.6256 61.7701 19.4751 61.5352 19.3749C61.3002 19.2747 61.0462 19.2272 60.7909 19.2356C60.5303 19.2274 60.2711 19.2759 60.0311 19.3778C59.7911 19.4797 59.5761 19.6325 59.4009 19.8256C59.0326 20.2363 58.8389 20.7744 58.8609 21.3256C58.8429 21.8714 59.0323 22.4038 59.3909 22.8156C59.5665 23.0082 59.7816 23.1607 60.0215 23.2625C60.2614 23.3643 60.5204 23.4131 60.7809 23.4056Z" fill="#808080"/>
<path d="M73.57 24.1338C72.7242 24.8277 71.664 25.2069 70.57 25.2069C69.476 25.2069 68.4158 24.8277 67.57 24.1338C66.8445 23.3762 66.4395 22.3678 66.4395 21.3188C66.4395 20.2699 66.8445 19.2614 67.57 18.5038C68.4166 17.8117 69.4765 17.4336 70.57 17.4336C71.6635 17.4336 72.7234 17.8117 73.57 18.5038C74.2949 19.2597 74.6996 20.2665 74.6996 21.3138C74.6996 22.3611 74.2949 23.3679 73.57 24.1238V24.1338ZM69.14 22.8138C69.3317 22.9962 69.5577 23.1387 69.8049 23.2331C70.0521 23.3275 70.3155 23.372 70.58 23.3638C70.8428 23.3706 71.1044 23.3256 71.3498 23.2312C71.5952 23.1368 71.8195 22.995 72.01 22.8138C72.3588 22.4034 72.5503 21.8824 72.5503 21.3438C72.5503 20.8052 72.3588 20.2842 72.01 19.8738C71.8195 19.6927 71.5952 19.5508 71.3498 19.4565C71.1044 19.3621 70.8428 19.317 70.58 19.3238C70.3155 19.3157 70.0521 19.3601 69.8049 19.4545C69.5577 19.5489 69.3317 19.6915 69.14 19.8738C68.7913 20.2842 68.5998 20.8052 68.5998 21.3438C68.5998 21.8824 68.7913 22.4034 69.14 22.8138Z" fill="#808080"/>
<path d="M78.309 15.9843C78.0447 16.2157 77.7053 16.3432 77.354 16.3432C77.0027 16.3432 76.6634 16.2157 76.399 15.9843C76.2792 15.8712 76.1837 15.7348 76.1184 15.5835C76.0532 15.4322 76.0195 15.2691 76.0195 15.1043C76.0195 14.9395 76.0532 14.7765 76.1184 14.6251C76.1837 14.4738 76.2792 14.3374 76.399 14.2243C76.6661 13.9987 77.0044 13.875 77.354 13.875C77.7036 13.875 78.0419 13.9987 78.309 14.2243C78.4289 14.3374 78.5244 14.4738 78.5896 14.6251C78.6549 14.7765 78.6885 14.9395 78.6885 15.1043C78.6885 15.2691 78.6549 15.4322 78.5896 15.5835C78.5244 15.7348 78.4289 15.8712 78.309 15.9843ZM78.519 25.2043C77.9246 25.2335 77.3373 25.0647 76.849 24.7243C76.6487 24.5713 76.4878 24.3725 76.38 24.1446C76.2721 23.9167 76.2203 23.6663 76.229 23.4143V17.9743C76.2242 17.9351 76.2283 17.8952 76.2412 17.8578C76.254 17.8204 76.2752 17.7865 76.3032 17.7585C76.3312 17.7305 76.3651 17.7093 76.4025 17.6965C76.4399 17.6836 76.4798 17.6795 76.519 17.6843H78.199C78.389 17.6843 78.479 17.7843 78.479 17.9743V22.6943C78.479 23.0743 78.649 23.2643 78.989 23.2643C79.1407 23.2698 79.2923 23.2529 79.439 23.2143C79.639 23.2143 79.749 23.2743 79.759 23.4543L79.909 24.7043C79.9162 24.7408 79.9155 24.7783 79.907 24.8145C79.8985 24.8506 79.8823 24.8846 79.8595 24.9139C79.8368 24.9433 79.808 24.9675 79.7752 24.9848C79.7423 25.0021 79.7061 25.0122 79.669 25.0143C79.2978 25.1366 78.9099 25.2007 78.519 25.2043Z" fill="#808080"/>
<path d="M86.0908 17.4447C86.6156 17.424 87.1391 17.5089 87.6304 17.6944C88.1217 17.88 88.5708 18.1623 88.9508 18.5247C89.658 19.2837 90.0512 20.2824 90.0512 21.3197C90.0512 22.357 89.658 23.3558 88.9508 24.1147C88.5726 24.4804 88.1241 24.7655 87.6325 24.9528C87.1409 25.1402 86.6165 25.2259 86.0908 25.2047C85.342 25.2214 84.6081 24.9932 84.0008 24.5547V28.1647C84.0008 28.3547 83.9008 28.4447 83.7108 28.4447H82.0308C81.9925 28.4519 81.953 28.4496 81.9157 28.4381C81.8785 28.4265 81.8446 28.4061 81.817 28.3785C81.7895 28.3509 81.769 28.3171 81.7575 28.2798C81.7459 28.2426 81.7437 28.2031 81.7508 28.1647V19.9647C81.7626 19.8845 81.7554 19.8027 81.73 19.7257C81.7045 19.6488 81.6613 19.5788 81.604 19.5215C81.5467 19.4642 81.4768 19.4211 81.3998 19.3956C81.3229 19.3701 81.241 19.363 81.1608 19.3747H80.8308C80.6108 19.3747 80.5008 19.2947 80.5008 19.1347V17.9547C80.4956 17.8817 80.5156 17.8091 80.5575 17.7491C80.5993 17.689 80.6605 17.6451 80.7308 17.6247C81.0767 17.499 81.4428 17.438 81.8108 17.4447C82.1778 17.4122 82.5461 17.4901 82.8686 17.6682C83.191 17.8464 83.453 18.1168 83.6208 18.4447C83.9429 18.1189 84.3281 17.8622 84.7528 17.6902C85.1775 17.5183 85.6328 17.4347 86.0908 17.4447ZM84.5308 22.8147C84.7091 23.0011 84.9233 23.1494 85.1605 23.2507C85.3977 23.352 85.6529 23.4042 85.9108 23.4042C86.1687 23.4042 86.424 23.352 86.6611 23.2507C86.8983 23.1494 87.1125 23.0011 87.2908 22.8147C87.6664 22.3958 87.8637 21.8469 87.8408 21.2847C87.867 20.7221 87.6692 20.1719 87.2908 19.7547C87.1125 19.5684 86.8983 19.4201 86.6611 19.3188C86.424 19.2174 86.1687 19.1652 85.9108 19.1652C85.6529 19.1652 85.3977 19.2174 85.1605 19.3188C84.9233 19.4201 84.7091 19.5684 84.5308 19.7547C84.167 20.1793 83.9776 20.726 84.0008 21.2847C83.9805 21.843 84.1696 22.3887 84.5308 22.8147Z" fill="#808080"/>
<path d="M94.7691 25.2036C93.8714 25.2405 92.9813 25.0258 92.1991 24.5836C91.8853 24.3946 91.6181 24.1373 91.4172 23.8309C91.2164 23.5245 91.0872 23.1768 91.0391 22.8136C91.0391 22.6136 91.1091 22.5136 91.3291 22.5136H92.7991C92.869 22.5164 92.9369 22.5383 92.9951 22.5772C93.0533 22.616 93.0997 22.6701 93.1291 22.7336C93.3391 23.2736 93.8891 23.5436 94.7691 23.5436C95.0761 23.5577 95.3817 23.4958 95.6591 23.3636C95.7549 23.3204 95.837 23.252 95.8969 23.1657C95.9568 23.0794 95.9921 22.9784 95.9991 22.8736C95.9991 22.6136 95.8391 22.4336 95.5191 22.3136C95.1396 22.1873 94.7472 22.1034 94.3491 22.0636C93.8776 22.0102 93.41 21.9267 92.9491 21.8136C92.5009 21.7122 92.0934 21.4788 91.7791 21.1436C91.594 20.9158 91.4578 20.6523 91.3788 20.3696C91.2999 20.0869 91.28 19.7909 91.3203 19.5002C91.3607 19.2094 91.4604 18.93 91.6133 18.6795C91.7662 18.4289 91.969 18.2125 92.2091 18.0436C92.9299 17.5845 93.7756 17.3608 94.6291 17.4036C95.4555 17.3757 96.2731 17.5801 96.9891 17.9936C97.2777 18.1571 97.5261 18.3828 97.7164 18.6544C97.9067 18.926 98.034 19.2366 98.0891 19.5636C98.0891 19.7636 97.9991 19.8636 97.8191 19.8636H96.3391C96.2768 19.8673 96.2148 19.8521 96.1613 19.82C96.1078 19.7879 96.0652 19.7403 96.0391 19.6836C95.9402 19.4468 95.754 19.257 95.5191 19.1536C95.2541 19.015 94.9581 18.9461 94.6591 18.9536C94.366 18.9377 94.0736 18.9962 93.8091 19.1236C93.7159 19.1596 93.6357 19.2226 93.5786 19.3046C93.5216 19.3866 93.4904 19.4838 93.4891 19.5836C93.4955 19.7204 93.5456 19.8515 93.632 19.9577C93.7184 20.0639 93.8365 20.1395 93.9691 20.1736C94.3531 20.3184 94.7524 20.419 95.1591 20.4736C95.6268 20.5352 96.0908 20.622 96.5491 20.7336C96.9973 20.8351 97.4048 21.0684 97.7191 21.4036C97.8873 21.5883 98.0171 21.8044 98.1012 22.0396C98.1853 22.2747 98.222 22.5242 98.2091 22.7736C98.2177 23.1193 98.1366 23.4613 97.9736 23.7663C97.8106 24.0712 97.5713 24.3287 97.2791 24.5136C96.532 24.9933 95.6565 25.2339 94.7691 25.2036Z" fill="#808080"/>
<path d="M108.781 24.7036C108.787 24.7391 108.785 24.7754 108.777 24.8103C108.768 24.8453 108.753 24.8781 108.731 24.907C108.71 24.9359 108.683 24.9602 108.652 24.9785C108.621 24.9968 108.587 25.0087 108.551 25.0136C108.186 25.1328 107.805 25.1969 107.421 25.2036C107.041 25.243 106.657 25.1836 106.307 25.0312C105.956 24.8788 105.651 24.6385 105.421 24.3336C104.715 24.9409 103.801 25.2525 102.871 25.2036C102.439 25.2235 102.008 25.1528 101.605 24.9961C101.202 24.8394 100.836 24.6001 100.531 24.2936C100.228 23.9725 99.9928 23.5935 99.8398 23.1794C99.6869 22.7653 99.6192 22.3246 99.6406 21.8836V17.9736C99.6406 17.7836 99.7306 17.6836 99.9206 17.6836H101.601C101.791 17.6836 101.881 17.7836 101.881 17.9736V21.5836C101.863 22.0334 102.016 22.4732 102.311 22.8136C102.458 22.9696 102.637 23.0922 102.835 23.1733C103.033 23.2544 103.247 23.292 103.461 23.2836C103.68 23.2932 103.899 23.2593 104.105 23.1837C104.311 23.1082 104.5 22.9926 104.661 22.8436C104.813 22.6866 104.932 22.5 105.009 22.2953C105.087 22.0906 105.121 21.8722 105.111 21.6536V17.9736C105.111 17.7836 105.201 17.6836 105.391 17.6836H107.091C107.281 17.6836 107.371 17.7836 107.371 17.9736V22.6836C107.371 23.0736 107.541 23.2636 107.871 23.2636C108.026 23.2696 108.181 23.2528 108.331 23.2136C108.369 23.203 108.409 23.2011 108.447 23.2081C108.486 23.215 108.522 23.2306 108.554 23.2537C108.586 23.2768 108.612 23.3068 108.631 23.3414C108.649 23.376 108.659 23.4144 108.661 23.4536L108.781 24.7036Z" fill="#808080"/>
<path d="M124.671 24.7043C124.68 24.7401 124.681 24.7775 124.674 24.8137C124.666 24.8498 124.651 24.884 124.629 24.9136C124.607 24.9432 124.579 24.9676 124.546 24.985C124.514 25.0025 124.478 25.0125 124.441 25.0143C124.069 25.1352 123.682 25.1993 123.291 25.2043C122.696 25.235 122.109 25.0661 121.621 24.7243C121.41 24.5779 121.239 24.3818 121.122 24.1533C121.005 23.9248 120.946 23.6709 120.951 23.4143V21.0643C120.972 20.6159 120.822 20.1762 120.531 19.8343C120.391 19.678 120.217 19.5548 120.024 19.4735C119.83 19.3923 119.621 19.355 119.411 19.3643C119.222 19.3572 119.034 19.3931 118.86 19.4693C118.687 19.5455 118.534 19.6601 118.411 19.8043C118.147 20.1394 118.012 20.5582 118.031 20.9843V24.6743C118.031 24.8643 117.941 24.9643 117.751 24.9643H116.061C116.022 24.9692 115.982 24.965 115.945 24.9522C115.907 24.9393 115.873 24.9181 115.845 24.8901C115.817 24.8622 115.796 24.8282 115.783 24.7908C115.77 24.7534 115.766 24.7136 115.771 24.6743V21.0643C115.793 20.6208 115.654 20.1842 115.381 19.8343C115.259 19.6873 115.106 19.569 114.933 19.4878C114.761 19.4066 114.572 19.3644 114.381 19.3643C114.177 19.3561 113.974 19.391 113.784 19.4669C113.594 19.5427 113.423 19.6577 113.281 19.8043C112.995 20.1287 112.848 20.5525 112.871 20.9843V24.6743C112.876 24.7136 112.872 24.7534 112.859 24.7908C112.846 24.8282 112.825 24.8622 112.797 24.8901C112.769 24.9181 112.735 24.9393 112.698 24.9522C112.66 24.965 112.62 24.9692 112.581 24.9643H110.951C110.761 24.9643 110.671 24.8643 110.671 24.6743V19.9643C110.683 19.8841 110.676 19.8023 110.65 19.7253C110.625 19.6484 110.582 19.5784 110.524 19.5211C110.467 19.4638 110.397 19.4207 110.32 19.3952C110.243 19.3697 110.161 19.3626 110.081 19.3743H109.751C109.531 19.3743 109.421 19.2943 109.421 19.1343V17.9543C109.416 17.8813 109.436 17.8087 109.478 17.7487C109.52 17.6886 109.581 17.6447 109.651 17.6243C109.997 17.4986 110.363 17.4376 110.731 17.4443C111.084 17.4142 111.439 17.4846 111.754 17.6474C112.069 17.8102 112.331 18.0587 112.511 18.3643C112.848 18.0446 113.248 17.7978 113.685 17.6395C114.122 17.4812 114.587 17.4148 115.051 17.4443C115.502 17.4223 115.951 17.5068 116.363 17.691C116.775 17.8752 117.137 18.1538 117.421 18.5043C117.752 18.1446 118.159 17.863 118.612 17.6796C119.065 17.4963 119.553 17.416 120.041 17.4443C120.477 17.4239 120.913 17.4942 121.321 17.6509C121.729 17.8075 122.1 18.047 122.411 18.3543C122.715 18.6748 122.95 19.0537 123.103 19.468C123.256 19.8822 123.324 20.3233 123.301 20.7643V22.6943C123.301 23.0743 123.471 23.2643 123.791 23.2643C123.946 23.2715 124.101 23.2547 124.251 23.2143C124.458 23.2143 124.568 23.2943 124.581 23.4543L124.671 24.7043Z" fill="#808080"/>
<path d="M7.41 16.3847C8.14777 13.4194 9.85643 10.7861 12.2639 8.90424C14.6714 7.02234 17.6393 6 20.695 6C23.7507 6 26.7186 7.02234 29.1261 8.90424C31.5336 10.7861 33.2422 13.4194 33.98 16.3847H32.78C30.7557 16.3549 28.7729 16.9599 27.11 18.1147C27.014 18.1842 26.9138 18.2477 26.81 18.3047H26.67C26.5662 18.2477 26.466 18.1842 26.37 18.1147C24.6924 16.9866 22.7166 16.3841 20.695 16.3841C18.6734 16.3841 16.6976 16.9866 15.02 18.1147C14.924 18.1842 14.8238 18.2477 14.72 18.3047H14.58C14.4762 18.2477 14.376 18.1842 14.28 18.1147C12.6171 16.9599 10.6343 16.3549 8.61 16.3847H7.41ZM30.62 22.6547C31.236 22.175 31.9995 21.924 32.78 21.9447H34.39V18.7347H32.78C31.4052 18.7181 30.0619 19.146 28.95 19.9547C28.3243 20.416 27.5674 20.6649 26.79 20.6649C26.0126 20.6649 25.2557 20.416 24.63 19.9547C23.4899 19.1611 22.1341 18.7356 20.745 18.7356C19.3559 18.7356 18.0001 19.1611 16.86 19.9547C16.2343 20.416 15.4774 20.6649 14.7 20.6649C13.9226 20.6649 13.1657 20.416 12.54 19.9547C11.4144 19.1356 10.0518 18.7072 8.66 18.7347H7V21.9447H8.61C9.39051 21.924 10.154 22.175 10.77 22.6547C11.908 23.4489 13.2623 23.8747 14.65 23.8747C16.0377 23.8747 17.392 23.4489 18.53 22.6547C19.1468 22.1765 19.9097 21.9257 20.69 21.9447C21.4708 21.9223 22.2348 22.1735 22.85 22.6547C23.9901 23.4484 25.3459 23.8738 26.735 23.8738C28.1241 23.8738 29.4799 23.4484 30.62 22.6547ZM30.62 28.3947C31.236 27.915 31.9995 27.664 32.78 27.6847H34.39V24.4747H32.78C31.4052 24.4581 30.0619 24.886 28.95 25.6947C28.3243 26.156 27.5674 26.4049 26.79 26.4049C26.0126 26.4049 25.2557 26.156 24.63 25.6947C23.4899 24.9011 22.1341 24.4757 20.745 24.4757C19.3559 24.4757 18.0001 24.9011 16.86 25.6947C16.2343 26.156 15.4774 26.4049 14.7 26.4049C13.9226 26.4049 13.1657 26.156 12.54 25.6947C11.4144 24.8757 10.0518 24.4472 8.66 24.4747H7V27.6847H8.61C9.39051 27.664 10.154 27.915 10.77 28.3947C11.908 29.1889 13.2623 29.6147 14.65 29.6147C16.0377 29.6147 17.392 29.1889 18.53 28.3947C19.1468 27.9165 19.9097 27.6657 20.69 27.6847C21.4708 27.6623 22.2348 27.9135 22.85 28.3947C23.9901 29.1884 25.3459 29.6138 26.735 29.6138C28.1241 29.6138 29.4799 29.1884 30.62 28.3947Z" fill="#808080"/>
</svg>
