<svg width="152" height="39" viewBox="0 0 152 39" fill="none" xmlns="http://www.w3.org/2000/svg">
<path d="M53.0605 24.7759H61.9465V22.3562H55.9954V10.8945H53.0605V24.7759Z" fill="#808080"/>
<path d="M67.9678 24.9805C71.1264 24.9805 73.0921 22.8183 73.0921 19.6123C73.0921 16.3859 71.1264 14.2305 67.9678 14.2305C64.8093 14.2305 62.8438 16.3859 62.8438 19.6123C62.8438 22.8183 64.8093 24.9805 67.9678 24.9805ZM67.9814 22.7437C66.5241 22.7437 65.7786 21.4084 65.7786 19.5919C65.7786 17.7754 66.5241 16.4334 67.9814 16.4334C69.4116 16.4334 70.1571 17.7754 70.1571 19.5919C70.1571 21.4084 69.4116 22.7437 67.9814 22.7437Z" fill="#808080"/>
<path d="M79.0865 28.8982C82.0621 28.8982 84.1768 27.5425 84.1768 24.8788V14.3661H81.3097V16.1148H81.2013C80.8149 15.2675 79.9677 14.2305 78.2257 14.2305C75.9415 14.2305 74.0098 16.0064 74.0098 19.5513C74.0098 23.0148 75.8873 24.628 78.2325 24.628C79.8931 24.628 80.8217 23.7943 81.2013 22.9335H81.3233V24.8381C81.3233 26.2683 80.4082 26.8241 79.1543 26.8241C77.88 26.8241 77.2361 26.2683 76.9989 25.6379L74.3284 25.9972C74.674 27.6374 76.2804 28.8982 79.0865 28.8982ZM79.1475 22.459C77.7309 22.459 76.9582 21.3339 76.9582 19.5377C76.9582 17.7686 77.7174 16.5283 79.1475 16.5283C80.5506 16.5283 81.3368 17.7144 81.3368 19.5377C81.3368 21.3745 80.537 22.459 79.1475 22.459Z" fill="#808080"/>
<path d="M90.6066 24.9805C93.7652 24.9805 95.7308 22.8183 95.7308 19.6123C95.7308 16.3859 93.7652 14.2305 90.6066 14.2305C87.4481 14.2305 85.4824 16.3859 85.4824 19.6123C85.4824 22.8183 87.4481 24.9805 90.6066 24.9805ZM90.6202 22.7437C89.1629 22.7437 88.4173 21.4084 88.4173 19.5919C88.4173 17.7754 89.1629 16.4334 90.6202 16.4334C92.0503 16.4334 92.7959 17.7754 92.7959 19.5919C92.7959 21.4084 92.0503 22.7437 90.6202 22.7437Z" fill="#808080"/>
<path d="M97.0362 24.776H99.9236V14.365H97.0362V24.776ZM98.4867 13.0229C99.3475 13.0229 100.052 12.3655 100.052 11.5589C100.052 10.7591 99.3475 10.1016 98.4867 10.1016C97.6327 10.1016 96.9277 10.7591 96.9277 11.5589C96.9277 12.3655 97.6327 13.0229 98.4867 13.0229Z" fill="#808080"/>
<path d="M101.664 28.6813H104.551V23.1097H104.639C105.039 23.9773 105.913 24.9466 107.594 24.9466C109.967 24.9466 111.817 23.0691 111.817 19.5851C111.817 16.0064 109.885 14.2305 107.601 14.2305C105.859 14.2305 105.026 15.2675 104.639 16.1148H104.51V14.3661H101.664V28.6813ZM104.49 19.5716C104.49 17.7144 105.276 16.5283 106.679 16.5283C108.11 16.5283 108.869 17.7686 108.869 19.5716C108.869 21.3881 108.096 22.6488 106.679 22.6488C105.29 22.6488 104.49 21.4288 104.49 19.5716Z" fill="#808080"/>
<path d="M121.832 17.3348C121.574 15.4167 120.029 14.2305 117.399 14.2305C114.735 14.2305 112.98 15.4641 112.986 17.4704C112.98 19.0294 113.962 20.0393 115.996 20.446L117.799 20.8052C118.707 20.9882 119.121 21.3203 119.134 21.8422C119.121 22.459 118.45 22.8996 117.44 22.8996C116.409 22.8996 115.725 22.459 115.549 21.6118L112.709 21.7609C112.98 23.7536 114.674 24.9805 117.433 24.9805C120.13 24.9805 122.062 23.6045 122.069 21.5508C122.062 20.0461 121.079 19.1446 119.06 18.7311L117.175 18.3515C116.206 18.1414 115.847 17.8093 115.854 17.3077C115.847 16.6842 116.552 16.2775 117.446 16.2775C118.45 16.2775 119.046 16.8265 119.188 17.4975L121.832 17.3348Z" fill="#808080"/>
<path d="M129.99 20.3434C129.997 21.7397 129.041 22.4717 128.004 22.4717C126.913 22.4717 126.208 21.7058 126.201 20.4789V14.3652H123.314V20.9941C123.32 23.4274 124.744 24.9118 126.838 24.9118C128.404 24.9118 129.529 24.1052 129.997 22.8851H130.105V24.7762H132.877V14.3652H129.99V20.3434Z" fill="#808080"/>
<path d="M134.615 24.7771H137.503V18.5278C137.503 17.3755 138.235 16.6096 139.197 16.6096C140.146 16.6096 140.783 17.2603 140.783 18.2838V24.7771H143.583V18.4193C143.583 17.3416 144.2 16.6096 145.25 16.6096C146.172 16.6096 146.863 17.1857 146.863 18.3448V24.7771H149.744V17.7754C149.744 15.5183 148.402 14.2305 146.463 14.2305C144.938 14.2305 143.752 15.01 143.325 16.2029H143.217C142.885 14.9964 141.82 14.2305 140.39 14.2305C138.987 14.2305 137.923 14.9761 137.489 16.2029H137.367V14.3661H134.615V24.7771Z" fill="#808080"/>
<path d="M17.1229 2H26.1217L22.5096 12.0943C16.152 13.2115 11.2894 19.3625 11.2894 26.783C11.2894 30.1305 12.279 33.2197 13.9489 35.7049H2L12.9236 5.17808C13.6104 3.25863 15.2735 2 17.1229 2Z" fill="#808080"/>
<path d="M26.1219 2L23.5833 9.09426L22.8184 2H26.1219Z" fill="#808080"/>
<path d="M31.8172 2H22.8184L26.4153 12.0517C32.8994 13.0452 37.8945 19.262 37.8945 26.783C37.8945 30.1305 36.9049 33.2197 35.235 35.7049H46.9401L36.0165 5.17809C35.3297 3.25863 33.6666 2 31.8172 2Z" fill="#808080"/>
<path d="M15.5173 34.7321C13.9795 32.5421 13.0625 29.7816 13.0625 26.7816C13.0625 19.6642 18.2241 13.8945 24.5912 13.8945C30.9584 13.8945 36.12 19.6642 36.12 26.7816C36.12 29.7816 35.203 32.5421 33.6652 34.7321C31.1407 32.8527 27.9979 31.7382 24.5912 31.7382C21.1846 31.7382 18.0418 32.8527 15.5173 34.7321Z" fill="#808080"/>
</svg>
