<svg width="130" height="47" viewBox="0 0 130 47" fill="none" xmlns="http://www.w3.org/2000/svg">
<path d="M12.9512 20.2348C12.9147 21.0916 12.8965 22.1764 12.8965 23.489C12.8965 24.8016 12.9147 25.8954 12.9512 26.7705C12.9876 27.6274 13.0605 28.311 13.1699 28.8215C13.2975 29.3319 13.4707 29.6874 13.6895 29.888C13.9265 30.0885 14.2364 30.1888 14.6193 30.1888C15.0021 30.1888 15.3029 30.0885 15.5217 29.888C15.7587 29.6874 15.9319 29.3319 16.0413 28.8215C16.1689 28.311 16.2509 27.6274 16.2874 26.7705C16.3239 25.8954 16.3421 24.8016 16.3421 23.489C16.3421 22.1764 16.3239 21.0916 16.2874 20.2348C16.2509 19.3597 16.1689 18.6669 16.0413 18.1565C15.9319 17.646 15.7587 17.2905 15.5217 17.09C15.3029 16.8894 15.0021 16.7891 14.6193 16.7891C14.2364 16.7891 13.9265 16.8894 13.6895 17.09C13.4707 17.2905 13.2975 17.646 13.1699 18.1565C13.0605 18.6669 12.9876 19.3597 12.9512 20.2348Z" fill="#808080"/>
<path fill-rule="evenodd" clip-rule="evenodd" d="M13.9202 3.1733C7.32643 3.3144 2.08523 8.7556 2.19103 15.35L2.32103 23.4524L2.19103 31.5548C2.08523 38.1493 7.32643 43.5905 13.9202 43.7315L22.0238 43.9049L30.1274 43.7315C36.7212 43.5905 41.9625 38.1493 41.8567 31.5548L41.7267 23.4524L41.8567 15.35C41.9625 8.7556 36.7212 3.3144 30.1274 3.1733L22.0238 3L13.9202 3.1733ZM22.3038 33.7698L19.241 36.4224L16.4517 33.4143C16.2329 33.4508 16.0141 33.4782 15.7954 33.4964C15.5948 33.5328 15.3669 33.5511 15.1117 33.5511H14.6195C13.3251 33.5511 12.2312 33.3779 11.3379 33.0315C10.4446 32.6851 9.72453 32.1108 9.17763 31.3087C8.63073 30.4883 8.23873 29.44 8.00173 28.1639C7.76473 26.8695 7.64623 25.3107 7.64623 23.4877C7.64623 21.6646 7.76473 20.115 8.00173 18.8388C8.23873 17.5444 8.63073 16.4962 9.17763 15.694C9.72453 14.8736 10.4446 14.2811 11.3379 13.9165C12.2312 13.5336 13.3251 13.3422 14.6195 13.3422C15.9139 13.3422 17.0077 13.5336 17.901 13.9165C18.7943 14.2811 19.5145 14.8736 20.0614 15.694C20.6083 16.4962 21.0003 17.5444 21.2373 18.8388C21.4743 20.115 21.5928 21.6646 21.5928 23.4877C21.5928 25.3654 21.4652 26.9515 21.2099 28.2459C20.9547 29.5403 20.5354 30.5977 19.952 31.4181L22.3038 33.7698ZM30.936 20.753V19.6592C30.936 18.5471 30.8266 17.7905 30.6078 17.3895C30.3891 16.9884 30.0336 16.7878 29.5413 16.7878C29.1585 16.7878 28.8486 16.8881 28.6116 17.0887C28.3928 17.2892 28.2196 17.6447 28.092 18.1552C27.9826 18.6656 27.9097 19.3584 27.8732 20.2335C27.8367 21.0903 27.8185 22.1751 27.8185 23.4877C27.8185 24.8003 27.8367 25.8941 27.8732 26.7692C27.9097 27.6261 27.9826 28.3097 28.092 28.8202C28.2196 29.3306 28.3928 29.6861 28.6116 29.8867C28.8486 30.0872 29.1585 30.1875 29.5413 30.1875C29.8512 30.1875 30.1065 30.1146 30.307 29.9687C30.5076 29.8046 30.6625 29.5403 30.7719 29.1757C30.8813 28.8111 30.9542 28.3279 30.9907 27.7263C31.0454 27.1065 31.0727 26.3317 31.0727 25.4019H35.995V26.8513C35.995 28.2186 35.8127 29.3398 35.4481 30.2148C35.0835 31.0899 34.6004 31.7827 33.9988 32.2931C33.3971 32.7854 32.7044 33.1135 31.9204 33.2776C31.1548 33.4599 30.3617 33.5511 29.5413 33.5511C28.1193 33.5511 26.9526 33.3779 26.041 33.0315C25.1295 32.6851 24.4185 32.1108 23.908 31.3087C23.3975 30.4883 23.042 29.44 22.8415 28.1639C22.6592 26.8695 22.568 25.3107 22.568 23.4877C22.568 21.6281 22.6774 20.0512 22.8962 18.7568C23.1332 17.4624 23.5252 16.4141 24.0721 15.612C24.619 14.8098 25.3391 14.2355 26.2324 13.8891C27.1257 13.5245 28.2287 13.3422 29.5413 13.3422C30.6899 13.3422 31.6652 13.4881 32.4674 13.7798C33.2695 14.0715 33.9167 14.4908 34.409 15.0377C34.9194 15.5664 35.284 16.2136 35.5028 16.9793C35.7398 17.7267 35.8583 18.5745 35.8583 19.5225V20.753H30.936Z" fill="#808080"/>
<path fill-rule="evenodd" clip-rule="evenodd" d="M65.7551 16.9361L70.2133 21.5626L74.6715 16.9361H82.4172L74.0803 24.8673L82.4172 32.7984H74.6715L70.2133 28.1601L65.7551 32.7984H57.9976L66.3346 24.8673L57.9976 16.9361H65.7551ZM65.3253 24.8673L56.2578 16.2412H66.0515L70.2133 20.5601L74.3751 16.2412H83.8192V16.2294H99.8252C103.485 16.192 106.583 19.2526 106.533 22.9249C106.532 24.2458 106.175 25.4634 105.46 26.5471C104.922 27.3674 104.24 28.0423 103.423 28.5555L106.836 32.9376V30.0957C106.836 27.8691 108.5 26.4496 110.414 25.5082C112.347 24.5578 114.786 23.964 116.817 23.4836L116.82 23.4829L116.843 23.4771C118.095 23.1692 119.161 22.9071 119.92 22.6244C120.304 22.4811 120.556 22.3514 120.7 22.2412C120.718 22.2272 120.733 22.2148 120.746 22.2041C120.702 22.1637 120.612 22.1034 120.435 22.0339C120.022 21.8722 119.317 21.7504 118.249 21.7501C117.108 21.7619 116.138 21.8547 115.476 22.0869C115.15 22.2014 114.953 22.3318 114.842 22.4542C114.748 22.5593 114.692 22.684 114.697 22.8796L114.714 23.5912H107.084V22.8963C107.084 21.4697 107.364 20.2769 107.924 19.2996C108.487 18.3179 109.307 17.6011 110.307 17.087C112.269 16.0783 114.972 15.8281 117.986 15.8281C121.072 15.8281 123.634 16.1842 125.448 17.101C126.366 17.5656 127.112 18.1839 127.625 18.988C128.139 19.7942 128.391 20.7432 128.391 21.8223C128.391 23.8192 127.186 25.0911 125.709 25.9201C124.275 26.725 122.47 27.1821 120.971 27.5478H128.131V33.4698H107.25L107.259 33.4816H98.8952L95.9032 29.6104H91.4082V33.4816H84.1442L84.1572 33.4934H74.3746L70.2133 29.164L66.052 33.4934H56.2578L65.3253 24.8673ZM83.8192 33.1716V16.5629L75.0895 24.8673L83.8192 33.1716ZM96.2462 28.9155L99.2382 32.7866H105.836L102.371 28.3371C102.588 28.2366 102.795 28.1254 102.994 28.0038C103.752 27.5396 104.382 26.9229 104.878 26.1655C105.517 25.1977 105.836 24.1119 105.836 22.9199C105.884 19.6388 103.105 16.8889 99.8292 16.9243H84.5152V32.7866H90.7112V28.9155H96.2462ZM117.324 28.2427C117.541 27.9774 117.934 27.7518 118.456 27.5478C119.071 27.307 119.863 27.0962 120.753 26.8855C123.804 26.1419 127.695 25.1269 127.695 21.8223C127.695 17.9511 124.1 16.523 117.986 16.523C112.237 16.523 108.16 17.4596 107.806 22.2013C107.789 22.4245 107.78 22.656 107.78 22.8963H114.001C114 22.8701 114 22.8443 114.001 22.8189C114.035 21.409 115.981 21.0783 118.246 21.0551C120.457 21.0551 121.474 21.5508 121.474 22.2236C121.474 23.054 119.512 23.5367 117.048 24.1426L116.981 24.1591C112.889 25.1269 107.532 26.4724 107.532 30.0957V32.7748H127.434V28.2427H117.324ZM120.785 22.2574C120.785 22.2574 120.781 22.253 120.779 22.2428C120.785 22.252 120.785 22.2574 120.785 22.2574ZM98.9322 22.9199C98.9322 22.5484 98.6402 22.2576 98.2682 22.2576H91.4082V23.5704H98.2682C98.4682 23.5704 98.6082 23.5097 98.7332 23.3845C98.8762 23.2419 98.9322 23.0993 98.9322 22.9199ZM99.6282 22.9199C99.6282 22.1645 99.0252 21.5626 98.2682 21.5626H90.7112V24.2653H98.2682C98.6462 24.2653 98.9662 24.1355 99.2262 23.8759C99.4982 23.6044 99.6282 23.2858 99.6282 22.9199Z" fill="#808080"/>
<path d="M58.5703 44.2424H61.5382V40.1787L64.5116 44.2424H65.9955L68.969 40.1787V44.2424H71.9369V36.625H68.2271L65.2536 40.4337L62.2858 36.625H58.5703V44.2424Z" fill="#808080"/>
<path d="M78.1894 36.4375C75.3238 36.4432 72.979 37.2706 72.9903 40.1555V40.7109C72.979 43.5901 75.3238 44.4233 78.1894 44.4289C81.0494 44.4233 83.3944 43.5901 83.3834 40.7109V40.1555C83.3834 37.2763 81.0554 36.4375 78.1894 36.4375ZM80.4154 40.5239C80.4324 41.7708 79.4014 41.9975 78.1894 42.0145C76.972 41.9975 75.9411 41.7708 75.9581 40.5239V40.3369C75.9411 39.0956 76.972 38.8689 78.1894 38.8519C79.4014 38.8689 80.4324 39.0956 80.4154 40.3369V40.5239Z" fill="#808080"/>
<path d="M91.6984 40.4458C91.6984 41.2109 91.2624 41.84 90.4924 41.84H87.2414V39.0515H90.4924C91.2624 39.0515 91.6984 39.6749 91.6984 40.4458ZM84.2734 36.6371V44.2544H91.0474C93.1374 44.2828 94.6894 42.5145 94.6724 40.4458C94.6894 38.3657 93.1374 36.6087 91.0474 36.6371H84.2734Z" fill="#808080"/>
<path d="M102.935 40.5301C102.952 41.7826 101.922 41.998 100.709 42.015C99.4918 41.998 98.4668 41.7826 98.4778 40.5301V36.625H95.5098V40.7171C95.4988 43.5963 97.8548 44.4238 100.709 44.4294C103.564 44.4238 105.92 43.5963 105.909 40.7171V36.625H102.935V40.5301Z" fill="#808080"/>
<path d="M107.244 36.625V44.2424H116.154V41.828H110.212V36.625H107.244Z" fill="#808080"/>
<path d="M117.168 44.254H126.078V42.2987H120.136V41.3238H126.078V39.5612H120.136V38.5863H126.078V36.6367H117.168V44.254Z" fill="#808080"/>
<path d="M60.2792 7.6065V6.0012H64.6781C64.8912 6.0012 65.0767 6.0783 65.2279 6.2395C65.386 6.3938 65.4616 6.583 65.4616 6.8073C65.4616 7.0247 65.386 7.2139 65.2279 7.3752C65.0767 7.5294 64.8912 7.6065 64.6781 7.6065H60.2792ZM56.6777 3.2463V12.6677H60.2792V10.3684H65.5785C67.4824 10.3965 69.0976 8.7491 69.0701 6.8073C69.0976 4.8586 67.4824 3.2252 65.5785 3.2463H56.6777Z" fill="#808080"/>
<path d="M76.2393 3C72.7615 3.007 69.916 4.0305 69.9297 7.5986V8.2856C69.916 11.8467 72.7615 12.8771 76.2393 12.8841C79.71 12.8771 82.556 11.8467 82.542 8.2856V7.5986C82.542 4.0375 79.717 3 76.2393 3ZM78.94 8.0542C78.961 9.5964 77.71 9.8768 76.2393 9.8979C74.7616 9.8768 73.5107 9.5964 73.5313 8.0542V7.8229C73.5107 6.2877 74.7616 6.0073 76.2393 5.9863C77.71 6.0073 78.961 6.2877 78.94 7.8229V8.0542Z" fill="#808080"/>
<path d="M96.5847 9.21159L94.4467 3.24609H90.3917L88.2477 9.21159L86.1097 3.24609H82.0547L86.1097 12.6675H90.3917L92.4197 7.95679L94.4467 12.6675H98.7287L102.785 3.24609H98.7287L96.5847 9.21159Z" fill="#808080"/>
<path d="M103.059 12.6675H113.87V10.2491H106.66V9.04329H113.87V6.86319H106.66V5.65749H113.87V3.24609H103.059V12.6675Z" fill="#808080"/>
<path d="M115.787 3.23848V12.66H119.388V10.3607H122.605L124.344 12.66H128.179L126.165 10.0172C126.77 9.72978 127.258 9.29518 127.622 8.72738C127.994 8.15258 128.179 7.50768 128.179 6.79958C128.207 4.85078 126.591 3.21748 124.688 3.23848H115.787ZM123.78 5.99348C124.22 5.99348 124.571 6.35098 124.571 6.79958C124.571 7.01688 124.495 7.20618 124.337 7.36738C124.186 7.52168 124 7.59878 123.78 7.59878H119.388V5.99348H123.78Z" fill="#808080"/>
</svg>
