<svg width="64" height="56" viewBox="0 0 64 56" fill="none" xmlns="http://www.w3.org/2000/svg">
<path d="M13.9436 47.86H16.7702C16.7397 48.1446 16.6787 48.7038 16.4753 49.1004C15.8347 50.473 14.3605 51.2355 11.5645 51.2355C9.32761 51.2355 7.87366 50.6763 7.09078 49.7308C6.5519 49.1004 6.27734 48.226 6.27734 47.1076C6.27734 46.0909 6.53158 45.247 7.0399 44.6267C7.85334 43.61 9.31745 43 11.6153 43C14.7468 43 16.0483 44.1184 16.5262 45.308C16.6888 45.7248 16.7397 46.1926 16.7499 46.4467H13.9233C13.9131 46.2637 13.8419 46.0298 13.7199 45.857C13.4251 45.43 12.7743 45.1148 11.5848 45.1148C10.5071 45.1148 9.72417 45.3893 9.36825 45.9485C9.18529 46.223 9.1141 46.6298 9.1141 47.1381C9.1141 47.6871 9.20561 48.0634 9.39881 48.3378C9.79537 48.9275 10.6799 49.1512 11.595 49.1512C12.6625 49.1512 13.425 48.9377 13.7606 48.4497C13.8827 48.2768 13.9335 48.0735 13.9436 47.86Z" fill="#808080"/>
<path d="M25.5021 48.9873V51.1122H17.8867V43.1309H20.6421V48.9873H25.5021Z" fill="#808080"/>
<path d="M34.9924 51.1122V49.1296H29.2681V48.0925H34.7585V46.1505H29.2681V45.1237H34.9213V43.1309H26.584V51.1122H34.9924Z" fill="#808080"/>
<path fill-rule="evenodd" clip-rule="evenodd" d="M43.372 49.638H39.061L38.3188 51.1122H35.4414L39.7016 43.1309H42.9856L47.012 51.1122H44.0736L43.372 49.638ZM39.9557 47.8485H42.508L41.552 45.9167L41.2673 45.1948L40.9624 45.9269L39.9557 47.8485Z" fill="#808080"/>
<path fill-rule="evenodd" clip-rule="evenodd" d="M57.2294 45.5609C57.2294 44.8389 57.0566 44.3204 56.6902 43.9442C56.2126 43.4358 55.3886 43.1309 54.1286 43.1309H47.7734V51.1122H50.4886V48.2959H52.959L54.9414 51.1122H57.9718L55.5622 47.8587C56.1006 47.7773 56.5382 47.452 56.8222 47.0656C57.0766 46.7097 57.2294 46.181 57.2294 45.5609ZM54.5854 45.815C54.5854 45.9472 54.5654 46.1099 54.4942 46.2319C54.3926 46.4353 54.1286 46.5166 53.691 46.5166H50.4982V45.0626H53.6398C54.067 45.0626 54.3518 45.1338 54.4942 45.3981C54.5654 45.4998 54.5854 45.6625 54.5854 45.815Z" fill="#808080"/>
<path d="M42.2376 6.77966C42.2376 6.9119 42.2176 7.07454 42.1464 7.19654C42.0448 7.3999 41.78 7.48126 41.3429 7.48126H38.1504V6.02734H41.2921C41.7192 6.02734 42.004 6.09846 42.1464 6.36286C42.2176 6.46454 42.2376 6.62718 42.2376 6.77966Z" fill="#808080"/>
<path d="M50.1855 8.81385H52.7375L51.7815 6.882L51.4967 6.16016L51.1919 6.89224L50.1855 8.81385Z" fill="#808080"/>
<path fill-rule="evenodd" clip-rule="evenodd" d="M1.63281 6.76315C1.96201 3.52171 4.69953 0.992188 8.02785 0.992188H55.9716C59.522 0.992188 62.3996 3.87019 62.3996 7.42043V47.649C62.3996 51.1993 59.522 54.0773 55.9716 54.0773H8.02785C4.47761 54.0773 1.59961 51.1993 1.59961 47.649V7.42043C1.59961 7.19851 1.61089 6.97931 1.63281 6.76315ZM2.93881 18.9718L24.5444 26.2789C25.133 25.6817 25.9339 25.1626 26.8974 24.7582C27.119 24.6651 27.3476 24.5789 27.5823 24.4995L18.5746 15.36H25.6256L29.5839 24.0138C30.1066 23.9318 30.644 23.8796 31.1887 23.8587C31.3699 23.8518 31.5511 23.8482 31.732 23.8482V15.36H37.8382L33.8799 24.014C34.4897 24.1097 35.0817 24.2463 35.6438 24.4223C36.3672 24.6489 37.0257 24.9358 37.6002 25.2723L54.5212 15.36H61.0604V18.7907L36.2914 27.1677C35.7707 26.6394 34.9943 26.2135 34.0603 25.9437C33.1264 25.6739 32.0769 25.5724 31.0444 25.652C30.012 25.7316 29.0431 25.9888 28.2602 26.3909C27.4773 26.7932 26.9155 27.3224 26.646 27.9116C26.3765 28.5008 26.4113 29.1236 26.746 29.7013C27.0807 30.2789 27.7004 30.7855 28.5265 31.1569C29.3526 31.5281 30.3482 31.7476 31.3874 31.7875C31.9647 31.8097 32.5412 31.7759 33.0942 31.689C33.5362 31.6197 33.9637 31.5164 34.3642 31.3809L42.5732 39.7095H36.7634L33.8795 33.4058C32.471 33.6269 30.9894 33.6265 29.5839 33.4059L26.7006 39.7095H20.8909L27.5822 32.9203C26.9558 32.7084 26.3775 32.4489 25.8633 32.1477L12.9547 39.7095H2.93881V38.448L24.5443 31.1408C24.0472 30.6364 23.7066 30.0815 23.5432 29.5018C23.3501 28.8166 23.4105 28.1177 23.7152 27.4516L2.93881 24.1905V18.9718ZM61.0604 38.629L31.732 28.7098L61.0604 33.3133V38.629ZM61.0604 41.0487H2.93881V47.649C2.93881 50.4596 5.21721 52.738 8.02785 52.738H55.9716C58.782 52.738 61.0604 50.4596 61.0604 47.649V41.0487ZM17.2019 8.99855V4.09787H14.477V8.75447C14.477 9.58823 13.7043 10.1474 12.403 10.1474C11.0405 10.1474 10.2982 9.60855 10.2982 8.74431V4.09787H7.54289V8.74431C7.54289 11.1641 9.52561 12.1911 12.2911 12.1911C15.2498 12.1911 17.2019 11.154 17.2019 8.99855ZM26.3786 12.0793V9.95423H21.5186V4.09787H18.7633V12.0793H26.3786ZM34.5673 4.09787V6.10083H31.1918V12.0793H28.4058V6.10083H25.0405V4.09787H34.5673ZM44.8796 6.52787C44.8796 5.80603 44.7068 5.28747 44.3412 4.91123C43.8636 4.40291 43.0396 4.09787 41.7788 4.09787H35.4243V12.0793H38.139V9.26287H40.6097L42.5924 12.0793H45.622L43.2124 8.82567C43.7516 8.74431 44.1884 8.41895 44.4732 8.03263C44.7276 7.67683 44.8796 7.14811 44.8796 6.52787ZM53.6012 10.6049H49.29L48.5484 12.0793H45.6708L49.9308 4.09787H53.2148L57.2412 12.0793H54.3028L53.6012 10.6049Z" fill="#808080"/>
</svg>
