<svg width="125" height="32" viewBox="0 0 125 32" fill="none" xmlns="http://www.w3.org/2000/svg">
<path d="M23.0163 13.5C25.4072 13.5 25.9451 14.5385 25.9451 15.8337C25.9451 17.2067 25.2944 18.1903 23.0262 18.1903C20.7725 18.1903 20.1211 17.2638 20.1211 15.8337C20.1211 14.4265 20.8312 13.5 23.0163 13.5Z" fill="#808080"/>
<path d="M48.0027 13.5C50.3935 13.5 50.9314 14.5385 50.9314 15.8337C50.9314 17.2067 50.28 18.1903 48.0126 18.1903C45.7596 18.1903 45.1074 17.2638 45.1074 15.8337C45.1074 14.4265 45.8175 13.5 48.0027 13.5Z" fill="#808080"/>
<path fill-rule="evenodd" clip-rule="evenodd" d="M1.84961 29.3321V2.32031H122.671V29.3321H1.84961ZM59.4329 27.8083H121.147V3.84412H59.4329V27.8083ZM23.0292 20.4887C27.2738 20.4887 29.0582 18.6578 29.0582 15.7984C29.0582 12.8925 27.0483 11.1653 23.0292 11.1653C19.0719 11.1653 16.9888 13.0411 16.9888 15.7984C16.9888 18.91 19.174 20.4887 23.0292 20.4887ZM8.27189 11.371V20.3516H16.8387V17.9599H11.3713V11.371H8.27189ZM38.646 20.3516L38.566 19.4815C37.5291 20.2214 36.2671 20.5775 34.9965 20.4887C33.0864 20.4887 31.4955 19.9165 30.6033 18.7615C30.0148 17.9182 29.7177 16.9059 29.7568 15.8784C29.7234 14.8725 30.0308 13.8847 30.6292 13.0754C31.5321 11.9546 33.1686 11.211 35.6052 11.211C38.4083 11.211 40.0555 12.0689 40.7641 13.5104C40.9161 13.8499 41.0055 14.2141 41.0277 14.5855H38.0624C37.9876 14.3598 37.8486 14.1609 37.6624 14.0133C37.0717 13.6216 36.3663 13.4405 35.6601 13.499C35.2458 13.4488 34.8256 13.487 34.4272 13.6113C34.0289 13.7356 33.6614 13.9429 33.3492 14.2197C32.9946 14.7051 32.8282 15.3026 32.8806 15.9013C32.8395 16.4725 32.9926 17.0408 33.3149 17.5142C33.63 17.8078 34.0045 18.0301 34.4131 18.1663C34.8217 18.3025 35.2547 18.3493 35.6829 18.3036C36.5334 18.3727 37.3779 18.1104 38.0395 17.5714C38.1816 17.3937 38.2796 17.1848 38.3252 16.9618H35.1344V15.0319H41.1054V20.3516H38.646ZM48.0151 20.4887C52.2589 20.4887 54.0441 18.6578 54.0441 15.7984C54.0441 12.8925 52.031 11.1653 48.0151 11.1653C44.0578 11.1653 41.9747 13.0411 41.9747 15.7984C41.9747 18.91 44.1599 20.4887 48.0151 20.4887Z" fill="#808080"/>
<path d="M64.6523 20.3185V11.3379H66.8619V20.3185H64.6523Z" fill="#808080"/>
<path d="M78.2092 16.5664C77.6492 17.2986 76.6854 17.6331 75.3269 17.6415C75.0405 17.6415 71.2424 17.6301 71.2424 17.6301V20.3188H69.0801V11.3382H75.3277C75.8284 11.2853 76.3349 11.3384 76.8134 11.4941C77.2927 11.6498 77.733 11.9046 78.1071 12.2419C78.6008 12.8851 78.8408 13.687 78.7822 14.4956C78.8325 15.231 78.6306 15.9616 78.2092 16.5664ZM76.4363 13.6384C76.2077 13.2956 75.7147 13.1051 74.8805 13.1051H71.2309V15.8388H74.8568C75.749 15.8388 76.2191 15.656 76.4363 15.3009C76.565 15.0508 76.6207 14.7691 76.5963 14.4887C76.6153 14.1963 76.5605 13.9038 76.4363 13.6384Z" fill="#808080"/>
<path d="M85.1536 20.456C81.0805 20.456 79.834 18.9322 79.834 17.4244H82.1448C82.1448 18.168 83.1627 18.7288 85.2565 18.7288C87.338 18.7288 87.8873 18.3623 87.8873 17.7673C87.8873 17.1036 87.4759 16.8979 85.5422 16.6808C85.1612 16.6465 84.1243 16.5208 83.7349 16.4636C80.9921 16.1543 79.9361 15.3421 79.9361 13.8892C79.9361 12.3562 81.4812 11.2012 84.8328 11.2012C88.4709 11.2012 89.8667 12.6313 89.8667 14.1185H87.581C87.581 13.3635 86.7231 12.9284 84.698 12.9284C82.6157 12.9284 82.17 13.2141 82.17 13.7749C82.17 14.3585 82.6271 14.5414 84.8366 14.8042C85.3403 14.8736 86.461 14.9993 86.7696 15.0328C89.1041 15.2728 90.1563 16.1193 90.1563 17.6179C90.1525 19.4031 88.5509 20.456 85.1536 20.456Z" fill="#808080"/>
<path d="M96.6627 20.4442C93.6776 20.4442 91.7324 19.2655 91.7324 16.787V11.3379H93.9168V16.8175C93.9168 17.9505 94.844 18.7047 96.7541 18.7047C98.4814 18.7047 99.5115 17.9962 99.5115 16.8175V11.3379H101.674V16.9905C101.674 19.2434 99.8658 20.4442 96.6627 20.4442Z" fill="#808080"/>
<path d="M113.513 20.3185V14.3238L110.71 20.3185H108.583L105.86 14.3238V20.3185H103.803V11.3379H106.59L109.679 18.179L112.836 11.3379H115.579V20.3185H113.513Z" fill="#808080"/>
</svg>
