<svg width="32" height="27" viewBox="0 0 32 27" fill="none" xmlns="http://www.w3.org/2000/svg">
<path d="M14.2894 0.337973L2.35889 5.27461C1.69544 5.54918 1.70231 6.49173 2.36992 6.75635L14.3502 11.5072C15.4028 11.9247 16.5751 11.9247 17.6277 11.5072L29.6082 6.75617C30.2756 6.49173 30.2828 5.54936 29.619 5.27479L17.6888 0.337792C16.6004 -0.112597 15.3777 -0.112597 14.2893 0.337792" fill="#FCB400"/>
<path d="M17.0518 14.1008V25.9693C17.0518 26.5336 17.621 26.9203 18.1457 26.7123L31.4954 21.5306C31.6443 21.4716 31.772 21.3692 31.862 21.2367C31.952 21.1042 32.0001 20.9477 32 20.7876V8.91922C32 8.35471 31.4308 7.96818 30.9061 8.17619L17.5564 13.3579C17.4075 13.417 17.2798 13.5194 17.1899 13.6519C17.0999 13.7843 17.0518 13.9408 17.0518 14.1009" fill="#18BFFF"/>
<path d="M13.9343 14.7138L9.9724 16.6267L9.57013 16.8212L1.2068 20.8285C0.676837 21.0842 0 20.6979 0 20.1089V8.96953C0 8.75646 0.109249 8.57251 0.255758 8.43414C0.315863 8.37429 0.384052 8.32315 0.458339 8.28221C0.658026 8.16229 0.943086 8.13027 1.18546 8.22614L13.8677 13.2512C14.5124 13.507 14.563 14.4103 13.9343 14.714" fill="#F82B60"/>
<path d="M13.9344 14.7138L9.9725 16.6267L0.255859 8.43396C0.315976 8.37417 0.384164 8.32309 0.45844 8.28221C0.658127 8.16229 0.943187 8.13027 1.18556 8.22614L13.8678 13.2512C14.5125 13.507 14.5631 14.4103 13.9344 14.714" fill="black" fill-opacity="0.25"/>
</svg>
