<svg width="32" height="32" viewBox="0 0 32 32" fill="none" xmlns="http://www.w3.org/2000/svg">
<path fill-rule="evenodd" clip-rule="evenodd" d="M4.33325 13.3731C4.33325 9.7724 7.4921 7 11.1999 7C13.1112 7 14.793 7.89619 15.9999 9.05577C17.2069 7.89619 18.8886 7 20.7999 7C24.5078 7 27.6666 9.7724 27.6666 13.3731C27.6666 15.8396 26.6147 18.0085 25.1575 19.842C23.7027 21.6724 21.7999 23.2257 19.9779 24.488C19.2819 24.9701 18.5779 25.4148 17.9337 25.7429C17.3286 26.0511 16.6329 26.3333 15.9999 26.3333C15.367 26.3333 14.6713 26.0511 14.0662 25.7429C13.4219 25.4148 12.7179 24.9701 12.022 24.488C10.2 23.2257 8.29708 21.6724 6.84235 19.842C5.38509 18.0085 4.33325 15.8396 4.33325 13.3731ZM11.1999 9C8.42758 9 6.33325 11.0388 6.33325 13.3731C6.33325 15.2444 7.12764 16.9867 8.40804 18.5976C9.69096 20.2117 11.4171 21.6359 13.1609 22.844C13.8207 23.3011 14.4422 23.69 14.9739 23.9608C15.5447 24.2515 15.8755 24.3333 15.9999 24.3333C16.1243 24.3333 16.4551 24.2515 17.0259 23.9608C17.5577 23.69 18.1791 23.3011 18.839 22.844C20.5827 21.6359 22.3088 20.2117 23.5918 18.5976C24.8722 16.9867 25.6666 15.2444 25.6666 13.3731C25.6666 11.0388 23.5722 9 20.7999 9C19.2077 9 17.721 9.95123 16.7927 11.1586C16.6034 11.4047 16.3105 11.549 15.9999 11.549C15.6894 11.549 15.3965 11.4047 15.2071 11.1586C14.2789 9.95123 12.7921 9 11.1999 9Z" fill="black"/>
</svg>
