<svg width="32" height="32" viewBox="0 0 32 32" fill="none" xmlns="http://www.w3.org/2000/svg">
<path fill-rule="evenodd" clip-rule="evenodd" d="M15.4822 4.40275C15.8069 4.31035 16.1493 4.31027 16.4738 4.40239C17.1639 4.59822 17.8603 4.77984 18.559 4.96208C21.8401 5.81783 25.1725 6.68692 28.1371 9.10162L29.5023 10.2136C30.0561 10.6646 30.3331 11.3323 30.3334 12V21.3334C30.3334 21.8856 29.8857 22.3334 29.3334 22.3334C28.7811 22.3334 28.3334 21.8856 28.3334 21.3334V14.7423L28.1162 14.9195C27.0889 15.7578 26.0171 16.4088 24.9185 16.9372C24.971 17.0587 25.0001 17.1926 25.0001 17.3334V23.0586C25.0001 24.5696 24.0731 25.9259 22.6653 26.4748L17.3319 28.5542C16.4754 28.888 15.5247 28.888 14.6682 28.5542L9.33488 26.4748C7.92704 25.9259 7.00008 24.5696 7.00008 23.0586V17.3334C7.00008 17.1891 7.03064 17.0519 7.08565 16.928C5.97852 16.3964 4.89839 15.7418 3.86307 14.8984L2.49781 13.7864C1.39027 12.8844 1.38969 11.1159 2.49628 10.2129L3.88397 9.08054C6.82724 6.67876 10.136 5.81486 13.3927 4.96451C14.093 4.78168 14.7909 4.59947 15.4822 4.40275ZM28.3334 12.0008C28.3334 11.8807 28.2849 11.8014 28.2393 11.7643L26.8741 10.6523C24.0001 8.66671 21.4393 7.79096 18.1866 6.93626C17.4714 6.74832 16.7359 6.55506 15.9787 6.34083C15.2181 6.5566 14.4799 6.75079 13.7623 6.93958C10.5358 7.78842 7.72439 8.52806 5.14845 10.6301L3.76075 11.7625C3.71516 11.7997 3.66669 11.8791 3.66675 11.9992C3.6668 12.1194 3.71532 12.1987 3.76085 12.2358L5.12612 13.3478C7.72388 15.4636 10.5609 16.2091 13.8135 17.0638C14.5287 17.2518 15.2642 17.445 16.0214 17.6592C16.7821 17.4435 17.5201 17.2494 18.2377 17.0606C21.4642 16.2116 24.2758 15.472 26.8517 13.37L28.2394 12.2376C28.285 12.2004 28.3334 12.1208 28.3334 12.0008ZM18.6074 19.0355C20.0738 18.6527 21.5507 18.2671 23.0001 17.7395V23.0586C23.0001 23.7455 22.5787 24.3619 21.9387 24.6114L16.6054 26.6907C16.2162 26.8424 15.7839 26.8424 15.3947 26.6907L10.0614 24.6114C9.42143 24.3619 9.00008 23.7455 9.00008 23.0586V17.7282C10.4651 18.2618 11.9583 18.6512 13.4411 19.038C14.1398 19.2202 14.8362 19.4019 15.5263 19.5976C15.8509 19.6898 16.1934 19.6898 16.5179 19.5974C17.2093 19.4006 17.9071 19.2184 18.6074 19.0355Z" fill="black"/>
</svg>
