<svg width="32" height="32" viewBox="0 0 32 32" fill="none" xmlns="http://www.w3.org/2000/svg">
<path d="M9.00008 14.6666C8.26371 14.6666 7.66675 15.2636 7.66675 16C7.66675 16.7364 8.26371 17.3333 9.00008 17.3333C9.73645 17.3333 10.3334 16.7364 10.3334 16C10.3334 15.2636 9.73645 14.6666 9.00008 14.6666Z" fill="black"/>
<path d="M21.6667 16C21.6667 15.2636 22.2637 14.6666 23.0001 14.6666C23.7365 14.6666 24.3334 15.2636 24.3334 16C24.3334 16.7364 23.7365 17.3333 23.0001 17.3333C22.2637 17.3333 21.6667 16.7364 21.6667 16Z" fill="black"/>
<path fill-rule="evenodd" clip-rule="evenodd" d="M16.0001 12.6666C14.1591 12.6666 12.6667 14.159 12.6667 16C12.6667 17.8409 14.1591 19.3333 16.0001 19.3333C17.841 19.3333 19.3334 17.8409 19.3334 16C19.3334 14.159 17.841 12.6666 16.0001 12.6666ZM14.6667 16C14.6667 15.2636 15.2637 14.6666 16.0001 14.6666C16.7365 14.6666 17.3334 15.2636 17.3334 16C17.3334 16.7364 16.7365 17.3333 16.0001 17.3333C15.2637 17.3333 14.6667 16.7364 14.6667 16Z" fill="black"/>
<path fill-rule="evenodd" clip-rule="evenodd" d="M29 8.33337H3V23.6667H29V8.33337ZM5 21.6667V10.3334H27V21.6667H5Z" fill="black"/>
</svg>
