<svg width="20" height="20" viewBox="0 0 20 20" fill="none" xmlns="http://www.w3.org/2000/svg">
<path fill-rule="evenodd" clip-rule="evenodd" d="M11.3449 1.92496C11.5754 2.02311 11.725 2.24946 11.725 2.50001V8.33184H15C15.2223 8.33184 15.4278 8.44983 15.5399 8.64183C15.6519 8.83375 15.6535 9.07083 15.5442 9.26433L15.1341 9.99C13.579 12.7422 11.5958 15.2294 9.25885 17.3582L8.59594 17.9621C8.41294 18.1287 8.14885 18.1717 7.92246 18.0717C7.69607 17.9717 7.55002 17.7475 7.55002 17.5V11.7177H4.16669C3.82151 11.7177 3.54169 11.4378 3.54169 11.0927C3.54169 10.9808 3.57105 10.8759 3.62246 10.7851C5.08812 8.07555 6.9646 5.60932 9.18519 3.47413L10.6669 2.04949C10.8474 1.87583 11.1143 1.82681 11.3449 1.92496ZM5.23717 10.4677H8.17502C8.52019 10.4677 8.80002 10.7474 8.80002 11.0927V16.0787C10.8155 14.1742 12.5431 11.9856 13.9279 9.58183H11.1C10.7549 9.58183 10.475 9.302 10.475 8.95683V3.96803L10.0516 4.37517C8.17594 6.17868 6.55654 8.2287 5.23717 10.4677Z" fill="black"/>
</svg>
