<svg width="24" height="24" viewBox="0 0 24 24" fill="none" xmlns="http://www.w3.org/2000/svg">
<g clip-path="url(#clip0_246_14132)">
<path d="M23.714 12.2245C23.714 11.2412 23.6342 10.5237 23.4615 9.77963H12.2336V14.2176H18.8241C18.6913 15.3205 17.9738 16.9814 16.3793 18.0975L16.3569 18.2461L19.907 20.9963L20.1529 21.0208C22.4118 18.9347 23.714 15.8653 23.714 12.2245Z" fill="#4285F4"/>
<path d="M12.2337 23.9176C15.4625 23.9176 18.1732 22.8546 20.1531 21.0209L16.3794 18.0976C15.3696 18.8018 14.0142 19.2935 12.2337 19.2935C9.07128 19.2935 6.38721 17.2074 5.43042 14.324L5.29017 14.3359L1.59874 17.1927L1.55046 17.3269C3.517 21.2334 7.55644 23.9176 12.2337 23.9176Z" fill="#34A853"/>
<path d="M5.43035 14.324C5.17789 13.5799 5.03179 12.7826 5.03179 11.9588C5.03179 11.1349 5.17789 10.3377 5.41707 9.59359L5.41038 9.43511L1.6727 6.53239L1.55041 6.59056C0.73991 8.21166 0.274841 10.0321 0.274841 11.9588C0.274841 13.8855 0.73991 15.7058 1.55041 17.3269L5.43035 14.324Z" fill="#FBBC05"/>
<path d="M12.2337 4.62405C14.4792 4.62405 15.994 5.59403 16.8577 6.40463L20.2327 3.1093C18.1599 1.18261 15.4625 1.52588e-05 12.2337 1.52588e-05C7.55642 1.52588e-05 3.517 2.68408 1.55046 6.59058L5.41712 9.5936C6.38719 6.71021 9.07126 4.62405 12.2337 4.62405Z" fill="#EB4335"/>
</g>
<defs>
<clipPath id="clip0_246_14132">
<rect width="23.4528" height="24" fill="white" transform="translate(0.273605)"/>
</clipPath>
</defs>
</svg>
