<svg width="24" height="24" viewBox="0 0 24 24" fill="none" xmlns="http://www.w3.org/2000/svg">
<path d="M12.003 0H11.997C5.3805 0 0 5.382 0 12C0 14.625 0.846 17.058 2.2845 19.0335L0.789 23.4915L5.4015 22.017C7.299 23.274 9.5625 24 12.003 24C18.6195 24 24 18.6165 24 12C24 5.3835 18.6195 0 12.003 0Z" fill="#4CAF50"/>
<path d="M18.9854 16.9456C18.6959 17.7631 17.5469 18.4411 16.6304 18.6391C16.0034 18.7726 15.1844 18.8791 12.4274 17.7361C8.90089 16.2751 6.62989 12.6916 6.45289 12.4591C6.28339 12.2266 5.02789 10.5616 5.02789 8.83956C5.02789 7.11756 5.90239 6.27906 6.25489 5.91906C6.54439 5.62356 7.02289 5.48856 7.48189 5.48856C7.63039 5.48856 7.76389 5.49606 7.88389 5.50206C8.23639 5.51706 8.41339 5.53806 8.64589 6.09456C8.93539 6.79206 9.64039 8.51406 9.72439 8.69106C9.80989 8.86806 9.89539 9.10806 9.77539 9.34056C9.66289 9.58056 9.56389 9.68706 9.38689 9.89106C9.20989 10.0951 9.04189 10.2511 8.86489 10.4701C8.70289 10.6606 8.51989 10.8646 8.72389 11.2171C8.92789 11.5621 9.63289 12.7126 10.6709 13.6366C12.0104 14.8291 13.0964 15.2101 13.4849 15.3721C13.7744 15.4921 14.1194 15.4636 14.3309 15.2386C14.5994 14.9491 14.9309 14.4691 15.2684 13.9966C15.5084 13.6576 15.8114 13.6156 16.1294 13.7356C16.4534 13.8481 18.1679 14.6956 18.5204 14.8711C18.8729 15.0481 19.1054 15.1321 19.1909 15.2806C19.2749 15.4291 19.2749 16.1266 18.9854 16.9456Z" fill="#FAFAFA"/>
</svg>
