<svg width="24" height="24" viewBox="0 0 24 24" fill="none" xmlns="http://www.w3.org/2000/svg">
<path d="M12 24C18.6274 24 24 18.6274 24 12C24 5.37258 18.6274 0 12 0C5.37258 0 0 5.37258 0 12C0 18.6274 5.37258 24 12 24Z" fill="#8BC34A"/>
<path d="M16.8903 17.6415C16.7403 17.6415 16.5903 17.598 16.4598 17.505C13.6473 15.528 8.96883 15.4185 5.80983 16.155C5.40933 16.2495 5.00283 15.9975 4.90983 15.594C4.81683 15.1905 5.06583 14.787 5.47083 14.6925C8.94333 13.8885 14.1333 14.0355 17.3208 16.278C17.6613 16.5165 17.7408 16.9845 17.5038 17.322C17.3568 17.5305 17.1258 17.6415 16.8903 17.6415Z" fill="#37474F"/>
<path d="M18.3584 14.7075C18.2054 14.7075 18.0539 14.6625 17.9204 14.5665C14.6594 12.225 10.6514 11.643 5.30238 12.735C4.89888 12.8145 4.49988 12.5565 4.41738 12.15C4.33338 11.745 4.59588 11.3475 5.00088 11.265C10.7864 10.0846 15.1694 10.7445 18.7964 13.347C19.1324 13.5885 19.2089 14.058 18.9674 14.394C18.8219 14.598 18.5924 14.7075 18.3584 14.7075Z" fill="#37474F"/>
<path d="M19.8269 10.7941C19.6814 10.7941 19.5344 10.7521 19.4054 10.6651C15.2699 7.85858 8.98343 7.84508 4.91393 9.28508C4.52393 9.42008 4.09493 9.21758 3.95693 8.82608C3.81893 8.43608 4.02293 8.00708 4.41443 7.86908C8.84093 6.30457 15.7004 6.33757 20.2499 9.42308C20.5934 9.65558 20.6804 10.1221 20.4494 10.4641C20.3024 10.6786 20.0654 10.7941 19.8269 10.7941Z" fill="#37474F"/>
</svg>
