<svg width="24" height="24" viewBox="0 0 24 24" fill="none" xmlns="http://www.w3.org/2000/svg">
<path d="M16.5 0H7.5C3.3585 0 0 3.3585 0 7.5V16.5C0 20.6415 3.3585 24 7.5 24H16.5C20.6415 24 24 20.6415 24 16.5V7.5C24 3.3585 20.6415 0 16.5 0ZM21.75 16.5C21.75 19.395 19.395 21.75 16.5 21.75H7.5C4.605 21.75 2.25 19.395 2.25 16.5V7.5C2.25 4.605 4.605 2.25 7.5 2.25H16.5C19.395 2.25 21.75 4.605 21.75 7.5V16.5Z" fill="url(#paint0_linear_268_6047)"/>
<path d="M12 6C8.6865 6 6 8.6865 6 12C6 15.3135 8.6865 18 12 18C15.3135 18 18 15.3135 18 12C18 8.6865 15.3135 6 12 6ZM12 15.75C9.933 15.75 8.25 14.067 8.25 12C8.25 9.9315 9.933 8.25 12 8.25C14.067 8.25 15.75 9.9315 15.75 12C15.75 14.067 14.067 15.75 12 15.75Z" fill="url(#paint1_linear_268_6047)"/>
<path d="M18.4518 6.34948C18.8934 6.34948 19.2513 5.99154 19.2513 5.54999C19.2513 5.10844 18.8934 4.75049 18.4518 4.75049C18.0103 4.75049 17.6523 5.10844 17.6523 5.54999C17.6523 5.99154 18.0103 6.34948 18.4518 6.34948Z" fill="url(#paint2_linear_268_6047)"/>
<defs>
<linearGradient id="paint0_linear_268_6047" x1="2.19697" y1="21.8032" x2="21.803" y2="2.19682" gradientUnits="userSpaceOnUse">
<stop stop-color="#FFC107"/>
<stop offset="0.507" stop-color="#F44336"/>
<stop offset="0.99" stop-color="#9C27B0"/>
</linearGradient>
<linearGradient id="paint1_linear_268_6047" x1="7.75747" y1="16.2425" x2="16.2425" y2="7.75747" gradientUnits="userSpaceOnUse">
<stop stop-color="#FFC107"/>
<stop offset="0.507" stop-color="#F44336"/>
<stop offset="0.99" stop-color="#9C27B0"/>
</linearGradient>
<linearGradient id="paint2_linear_268_6047" x1="17.8866" y1="6.11541" x2="19.0171" y2="4.98471" gradientUnits="userSpaceOnUse">
<stop stop-color="#FFC107"/>
<stop offset="0.507" stop-color="#F44336"/>
<stop offset="0.99" stop-color="#9C27B0"/>
</linearGradient>
</defs>
</svg>
