<svg width="24" height="24" viewBox="0 0 24 24" fill="none" xmlns="http://www.w3.org/2000/svg">
<g clip-path="url(#clip0_268_6033)">
<path d="M23.9936 8.62388C23.8631 5.29546 20.8017 -0.0624174 11.9204 0.00058109C2.6461 0.0665796 -0.0643398 6.27793 0.00165863 9.82835C0.0661571 13.3803 2.3851 15.3452 2.3851 15.3452L5.84702 12.4923C5.84702 12.4923 4.37706 12.6183 4.37706 9.70235C4.37706 5.25946 9.70043 4.12248 13.0964 4.18548C16.4923 4.24848 19.1727 6.99042 19.2192 9.13087C19.2642 11.2233 18.7092 12.5508 17.0143 13.5048C14.9893 14.6462 12.5354 13.6323 12.5354 13.6323L12.5684 6.46843L7.99047 6.49543L7.97847 19.1491C7.97847 19.1491 7.93647 20.1616 6.7545 20.1001C5.90702 20.0566 4.83605 19.1251 4.83605 19.1251L4.84354 22.89C4.84354 22.89 6.16501 24 8.25596 24C12.7634 24 12.5669 19.5931 12.5669 19.5931V17.1107C12.5669 17.1107 13.4863 17.5547 15.3148 17.5547C22.8926 17.5547 24.1031 11.4153 23.9936 8.62388Z" fill="#C62828"/>
</g>
<defs>
<clipPath id="clip0_268_6033">
<rect width="24" height="24" fill="white"/>
</clipPath>
</defs>
</svg>
