<svg width="16" height="16" viewBox="0 0 16 16" fill="none" xmlns="http://www.w3.org/2000/svg">
<g clip-path="url(#clip0_322_1895)">
<path d="M15.9961 15.9995V15.9988H16.0001V10.1308C16.0001 7.26016 15.3821 5.04883 12.0261 5.04883C10.4128 5.04883 9.33009 5.93416 8.88809 6.7735H8.84142V5.31683H5.65942V15.9988H8.97276V10.7095C8.97276 9.31683 9.23676 7.97016 10.9614 7.97016C12.6608 7.97016 12.6861 9.5595 12.6861 10.7988V15.9995H15.9961Z" fill="#808080"/>
<path d="M0.263672 5.31836H3.58101V16.0004H0.263672V5.31836Z" fill="#808080"/>
<path d="M1.92133 0C0.860667 0 0 0.860667 0 1.92133C0 2.982 0.860667 3.86067 1.92133 3.86067C2.982 3.86067 3.84267 2.982 3.84267 1.92133C3.842 0.860667 2.98133 0 1.92133 0V0Z" fill="#808080"/>
</g>
<defs>
<clipPath id="clip0_322_1895">
<rect width="16" height="16" fill="white"/>
</clipPath>
</defs>
</svg>
