<svg width="146" height="40" viewBox="0 0 146 40" fill="none" xmlns="http://www.w3.org/2000/svg">
<path fill-rule="evenodd" clip-rule="evenodd" d="M16.1649 0L10.2268 11.8763L16.1649 17.8144L19.134 2.96907L16.1649 0ZM7.34497 21.1664L3.14607 8.56966L7.34497 8.56966L15.7428 21.1664H7.34497ZM0 23.835L11.8763 29.7732L17.8144 23.835L2.96907 20.866L0 23.835ZM8.56965 36.8539L21.1664 32.655V24.2572L8.56965 32.655V36.8539ZM18.8336 7.34498L31.4303 3.14607L31.4303 7.34498L18.8336 15.7428V7.34498ZM40 16.1649L28.1237 10.2268L22.1856 16.1649L37.0309 19.134L40 16.1649ZM32.655 18.8336L36.8539 31.4303H32.655L24.2572 18.8336H32.655ZM23.835 40L29.7732 28.1237L23.835 22.1856L20.866 37.0309L23.835 40Z" fill="#808080"/>
<path d="M60.184 12.894H52V27.524H55.916V22.75H60.184C63.55 22.75 64.892 20.572 64.892 17.734C64.892 15.072 63.55 12.894 60.184 12.894ZM55.916 19.758V15.864H58.93C60.316 15.864 60.844 16.634 60.844 17.756C60.844 18.9 60.294 19.758 58.886 19.758H55.916Z" fill="#F0EEEB"/>
<path d="M71.892 27.876C76.556 27.876 78.206 24.972 78.206 22.024C78.206 19.076 76.556 16.172 71.892 16.172C67.228 16.172 65.6 19.076 65.6 22.024C65.6 24.994 67.228 27.876 71.892 27.876ZM69.384 22.024C69.384 19.824 70.088 19.12 71.892 19.12C73.696 19.12 74.4 19.824 74.4 22.024C74.4 24.224 73.696 24.928 71.892 24.928C70.088 24.928 69.384 24.224 69.384 22.024Z" fill="#F0EEEB"/>
<path d="M92.7526 24.664L90.3106 16.524H86.3286L83.8866 24.642L82.0606 16.524H78.2546L80.9386 27.524H86.1966L88.1546 20.286L90.0906 27.524H95.3266L98.0326 16.524H94.5126L92.7526 24.664Z" fill="#F0EEEB"/>
<path d="M104.202 25.346C102.794 25.346 101.936 24.752 101.716 22.992H109.966C110.01 22.75 110.032 22.42 110.032 22.068C110.032 19.01 108.602 16.172 104.114 16.172C99.8902 16.172 98.0422 18.812 98.0422 22.002C98.0422 25.016 99.6262 27.876 104.114 27.876C108.118 27.876 109.614 26.094 109.988 24.202H106.314C106.006 24.862 105.324 25.346 104.202 25.346ZM104.158 18.658C105.632 18.658 106.314 19.406 106.446 20.792H101.76C102.002 19.208 102.794 18.658 104.158 18.658Z" fill="#F0EEEB"/>
<path d="M117.966 16.348C116.184 16.348 115.282 17.206 114.842 18.79V16.524H111.168V27.524H114.952V23.124C114.952 20.902 115.722 20.022 117.548 20.022H118.89V16.348H117.966Z" fill="#F0EEEB"/>
<path d="M124.809 27.524V19.362H127.383V16.524H124.237V14.852H127.933V12.124H124.919C122.147 12.124 121.025 13.576 121.025 15.776V16.502L119.023 17.602V19.362H121.025V27.524H124.809Z" fill="#F0EEEB"/>
<path d="M128.505 23.212C128.505 26.094 129.803 27.876 132.685 27.876C134.621 27.876 135.875 26.952 136.579 25.522V27.524H140.363V16.524H136.579V21.694C136.579 23.806 135.699 24.818 134.225 24.818C132.883 24.818 132.289 24.026 132.289 22.552V16.524H128.505V23.212Z" fill="#F0EEEB"/>
<path d="M145.945 27.524V12.124H142.161V27.524H145.945Z" fill="#F0EEEB"/>
</svg>
