<svg width="24" height="25" viewBox="0 0 24 25" fill="none" xmlns="http://www.w3.org/2000/svg">
<path fill-rule="evenodd" clip-rule="evenodd" d="M9.69897 0L6.13609 7.12578L9.69897 10.6887L11.4804 1.78144L9.69897 0ZM4.40721 12.7012L1.88787 5.14316L4.40721 5.14316L9.4459 12.7012H4.40721ZM0 14.3019L7.12578 17.8648L10.6887 14.3019L1.78144 12.5205L0 14.3019ZM5.1417 22.1133L12.6997 19.594V14.5553L5.1417 19.594V22.1133ZM11.3005 4.40721L18.8585 1.88787V4.40721L11.3005 9.44589V4.40721ZM23.9999 9.70117L16.8742 6.13828L13.3113 9.70117L22.2185 11.4826L23.9999 9.70117ZM19.5927 11.3019L22.1121 18.86H19.5927L14.554 11.3019L19.5927 11.3019ZM14.301 24.0012L17.8639 16.8754L14.301 13.3125L12.5195 22.2197L14.301 24.0012Z" fill="#808080"/>
</svg>
