<svg width="29" height="32" viewBox="0 0 29 32" fill="none" xmlns="http://www.w3.org/2000/svg">
<path d="M27.8747 28.6354C27.7747 28.7353 27.6498 28.7853 27.4999 28.7853C27.3499 28.7853 27.225 28.7353 27.125 28.6354C27.0251 28.5354 26.9751 28.4105 26.9751 28.2605C26.9751 28.1106 27.0251 27.9732 27.1375 27.8732C27.2375 27.7733 27.3624 27.7358 27.4999 27.7358C27.6498 27.7358 27.7747 27.7858 27.8747 27.8857C27.9746 27.9857 28.0246 28.1106 28.0246 28.2605C28.0371 28.4105 27.9871 28.5354 27.8747 28.6354V28.6354ZM27.2 27.9482C27.1125 28.0357 27.0751 28.1356 27.0751 28.2481C27.0751 28.373 27.1125 28.4729 27.2 28.5604C27.2875 28.6479 27.3874 28.6853 27.5124 28.6853C27.6373 28.6853 27.7372 28.6479 27.8247 28.5604C27.9122 28.4729 27.9496 28.373 27.9496 28.2481C27.9496 28.1356 27.9122 28.0232 27.8247 27.9482C27.7372 27.8607 27.6373 27.8108 27.5124 27.8108C27.3874 27.8233 27.2875 27.8607 27.2 27.9482ZM27.6748 28.5229C27.6248 28.5604 27.5748 28.5729 27.5248 28.5729C27.4499 28.5729 27.3749 28.5479 27.3124 28.4854C27.25 28.423 27.225 28.348 27.225 28.2605C27.225 28.1731 27.25 28.0981 27.3 28.0357C27.3499 27.9732 27.4249 27.9482 27.5124 27.9482C27.5623 27.9482 27.6123 27.9607 27.6623 27.9857C27.7248 28.0232 27.7747 28.0856 27.7872 28.1856H27.6498C27.6373 28.1481 27.6248 28.1106 27.5998 28.0981C27.5748 28.0856 27.5498 28.0731 27.5248 28.0731C27.4874 28.0731 27.4499 28.0856 27.4249 28.1231C27.3999 28.1606 27.3874 28.2106 27.3874 28.273C27.3874 28.3355 27.3999 28.3855 27.4249 28.4105C27.4499 28.4355 27.4874 28.4604 27.5248 28.4604C27.5623 28.4604 27.5873 28.448 27.6123 28.4355L27.6498 28.3605H27.7747C27.7622 28.4355 27.7248 28.4854 27.6748 28.5229V28.5229ZM28.9991 22.9756C28.9991 22.9256 28.9867 22.8756 28.9867 22.8256C28.9867 22.7882 28.9742 22.7632 28.9742 22.7382C28.9617 22.6632 28.9492 22.6007 28.9242 22.5258C28.8742 22.3884 28.7992 22.2509 28.6993 22.1385C28.5993 22.026 28.4869 21.9386 28.3744 21.8761C28.2495 21.8136 28.1246 21.7761 28.0246 21.7512C27.9871 21.7512 27.9621 21.7387 27.9372 21.7387C28.0746 21.1389 27.8997 20.6767 27.7872 20.4643L27.8122 20.4393C27.9621 20.2894 28.0871 20.1519 28.1995 20.0145L28.2245 19.9895C28.312 19.8646 28.3619 19.7396 28.3994 19.6272C28.4244 19.5272 28.4494 19.4398 28.4494 19.3523V19.2773V19.2274V19.1149C28.4369 18.9275 28.4119 18.6901 28.287 18.4277C28.2245 18.3028 28.1371 18.1654 28.0246 18.0404C27.9122 17.9155 27.7747 17.803 27.6123 17.7156C27.5998 17.7031 27.5873 17.7031 27.5748 17.6906C27.2375 17.2033 26.8627 16.816 26.5253 16.5287C26.3504 16.3787 26.188 16.2538 26.0505 16.1538C25.9131 16.0539 25.8007 15.9789 25.7382 15.9289C25.5883 15.8165 25.4758 15.754 25.4258 15.729C25.3009 15.6541 25.2134 15.5916 25.1635 15.5541C25.126 15.5166 25.101 15.5041 25.0885 15.4916C25.0885 15.4916 25.0885 15.4792 25.076 15.4542C25.0635 15.4167 25.0635 15.3667 25.0635 15.2793C25.0635 15.1543 25.0635 14.9669 25.076 14.717C25.101 14.3172 25.1385 13.78 25.1885 13.0428C25.201 12.8054 25.201 12.5805 25.201 12.3806C25.1885 12.0433 25.1385 11.7434 25.076 11.4686C25.0635 11.4061 25.0385 11.3436 25.026 11.2812C25.0135 11.2312 25.0011 11.2062 24.9886 11.1812C24.9761 11.1437 24.9636 11.1062 24.9386 11.0563C24.9261 11.0313 24.9261 11.0063 24.9011 10.9813C24.8761 10.9188 24.8511 10.8564 24.8136 10.7939L24.8011 10.7814L24.7887 10.7439L24.7762 10.7189C24.7137 10.6065 24.6387 10.5065 24.5638 10.4191C24.5263 10.2442 24.4638 9.99428 24.3514 9.70692C24.2514 9.45703 24.1265 9.18217 23.9391 8.9073C23.8766 8.80735 23.8016 8.71989 23.7267 8.63243L23.7516 8.60744C23.7891 8.56996 24.6637 7.6454 25.3634 6.44597C26.6503 4.20954 26.2255 2.84769 25.6382 2.09805L25.6258 2.07307L25.6133 2.04808C25.051 1.42338 24.2764 1.04856 23.3393 0.923615C21.3778 0.673734 19.1538 1.64827 18.5666 1.92314L17.4921 0.748699C17.3922 0.648746 17.2922 0.548794 17.1798 0.47383C17.0673 0.398866 16.9424 0.323902 16.8175 0.261431C16.5676 0.148985 16.2927 0.0740211 15.9928 0.036539C15.4056 -0.0384251 14.7309 0.036539 14.0063 0.223949C12.9193 0.498818 11.7074 1.04856 10.433 1.81069C9.1586 2.57283 7.83423 3.55985 6.54735 4.73429C4.9731 6.15861 3.67372 7.67039 2.72417 9.1197C2.24939 9.83186 1.86208 10.5315 1.57472 11.2062C1.28735 11.8684 1.09994 12.5056 1.02498 13.0803C0.975002 13.5051 0.975002 13.9049 1.06246 14.2672C1.09994 14.4297 1.14992 14.5796 1.22488 14.7295C1.31234 14.9169 1.42479 15.0918 1.56222 15.2418L2.67419 16.4037L2.79913 16.5287L2.78664 16.5411L2.74916 16.6161C2.72417 16.6536 2.71167 16.6911 2.68669 16.7161L2.6492 16.791C2.63671 16.8285 2.61172 16.866 2.59923 16.9035L2.56175 16.9784C2.54925 17.0159 2.52426 17.0534 2.51177 17.0909C2.49928 17.1159 2.48678 17.1409 2.48678 17.1658L2.4493 17.2783C2.43681 17.3033 2.43681 17.3283 2.42431 17.3533C2.41182 17.3907 2.39932 17.4282 2.38683 17.4782C2.38683 17.4907 2.37434 17.5032 2.37434 17.5157C2.37434 17.5282 2.36184 17.5407 2.36184 17.5532C2.34935 17.5906 2.33685 17.6406 2.32436 17.6781C2.32436 17.7031 2.31187 17.7281 2.31187 17.7531C2.31187 17.7656 2.29937 17.7905 2.29937 17.803C2.29937 17.828 2.28688 17.853 2.28688 17.878C2.28688 17.903 2.27438 17.928 2.27438 17.953C2.26189 18.0029 2.26189 18.0529 2.24939 18.1154C2.24939 18.1279 2.24939 18.1404 2.2369 18.1654V18.1779C2.2369 18.2153 2.22441 18.2528 2.22441 18.2778C2.22441 18.3278 2.21191 18.3903 2.21191 18.4402V19.0649C2.21191 19.0899 2.21191 19.1149 2.22441 19.1399C2.22441 19.1649 2.22441 19.2024 2.2369 19.2399V19.2773C2.2369 19.3023 2.24939 19.3398 2.24939 19.3648C2.24939 19.3898 2.26189 19.4148 2.26189 19.4523C2.26189 19.4647 2.26189 19.4772 2.27438 19.4897C2.27438 19.5022 2.28688 19.5272 2.28688 19.5397V19.5647C2.28688 19.5897 2.29937 19.6147 2.31187 19.6647C2.31187 19.6771 2.31187 19.6771 2.32436 19.6896C2.33685 19.7146 2.33685 19.7396 2.33685 19.7521L2.34935 19.7771C2.34935 19.7896 2.34935 19.7896 2.36184 19.8021L2.37434 19.8271V19.8646C2.37434 19.8771 2.37434 19.8771 2.38683 19.8895L2.39932 19.9145C2.39932 19.9395 2.41182 19.952 2.41182 19.977C2.42431 20.002 2.42431 20.027 2.43681 20.077V20.0645V20.077C2.43681 20.0894 2.43681 20.0894 2.4493 20.1019C2.46179 20.1394 2.47429 20.1644 2.47429 20.1769C2.48678 20.2019 2.49928 20.2269 2.51177 20.2769L2.52426 20.2894C2.53676 20.3143 2.53676 20.3393 2.54925 20.3518L2.56175 20.3768C2.56175 20.3893 2.57424 20.4018 2.57424 20.4143C2.57424 20.4268 2.58673 20.4518 2.59923 20.4643L2.61172 20.4893C2.62422 20.5018 2.62422 20.5267 2.63671 20.5392C2.6492 20.5517 2.6492 20.5642 2.6492 20.5767C2.6617 20.6017 2.67419 20.6267 2.68669 20.6642L2.69918 20.6767C2.71167 20.6892 2.71167 20.7017 2.72417 20.7142C2.73666 20.7266 2.73666 20.7516 2.74916 20.7641C2.76165 20.7766 2.77414 20.8016 2.78664 20.8391L2.79913 20.8516C2.81163 20.8641 2.81163 20.8766 2.82412 20.8891C2.83661 20.9141 2.84911 20.9266 2.84911 20.939C2.8616 20.9515 2.8741 20.9765 2.88659 21.0015V21.014C2.89909 21.0265 2.89909 21.039 2.91158 21.0515C2.92407 21.0765 2.93657 21.089 2.94906 21.1015C2.96156 21.114 2.97405 21.1389 2.99904 21.1764C3.01153 21.1889 3.02403 21.2014 3.02403 21.2139C3.03652 21.2389 3.04901 21.2514 3.06151 21.2639C3.074 21.2764 3.0865 21.3014 3.09899 21.3264C3.11148 21.3389 3.12398 21.3638 3.13647 21.3763C3.14897 21.4013 3.16146 21.4138 3.18645 21.4263L3.22393 21.4638L3.23642 21.4763C3.26141 21.5013 3.27391 21.5263 3.29889 21.5513L3.32388 21.5762L3.36136 21.6137L3.43633 21.6887L3.46132 21.7137L3.4988 21.7512L3.51129 21.7636C3.53628 21.7886 3.57376 21.8136 3.59875 21.8511L3.61125 21.8636C3.62374 21.8761 3.63623 21.8761 3.64873 21.9011C3.68621 21.9386 3.72369 21.9636 3.76117 22.001L3.78616 22.0135L3.79866 22.026L3.82364 22.0385C3.86113 22.0635 3.88611 22.0885 3.9236 22.1135L3.93609 22.126C3.94858 22.1385 3.96108 22.1385 3.96108 22.1385L3.98607 22.1635C4.01106 22.1884 4.03604 22.2009 4.06103 22.2259L4.08602 22.2384L4.11101 22.2634L4.1235 22.2759C4.14849 22.2884 4.18597 22.3134 4.21096 22.3259C4.22345 22.3384 4.23595 22.3509 4.26094 22.3509L4.28592 22.3634L4.29842 22.3759H4.31091C4.36089 22.4008 4.39837 22.4258 4.43585 22.4508L4.46084 22.4633L4.61077 22.5383H4.62326L4.64825 22.5508L4.72322 22.5883C4.73571 22.5883 4.7482 22.6007 4.7607 22.6007C4.77319 22.6132 4.78569 22.6132 4.81067 22.6257H4.82317C4.84816 22.6382 4.87314 22.6507 4.89813 22.6507H4.91063C4.93561 22.6632 4.9606 22.6757 4.99808 22.6882H5.01058L5.03557 22.7007C5.04806 22.7007 5.06055 22.7132 5.07305 22.7132H5.08554C5.12302 22.7257 5.16051 22.7382 5.21048 22.7507H5.22298C5.28545 22.7757 5.34792 22.7882 5.41039 22.8007H5.42288C5.47286 22.8131 5.53533 22.8256 5.5853 22.8381H5.63528C5.68526 22.8506 5.73523 22.8631 5.78521 22.8631H5.83519C5.87267 22.8631 5.89766 22.8756 5.93514 22.8756C5.93514 22.8881 5.94763 22.9006 5.94763 22.9131C6.03509 23.1505 6.12255 23.3879 6.2225 23.6128C7.6968 27.6983 11.7824 30.8718 16.4426 31.459C21.1029 32.0337 26.088 28.9352 28.1121 24.7497C28.1995 24.5873 28.2745 24.4374 28.3495 24.2749C28.5494 24.0626 28.7118 23.8502 28.8117 23.6253C28.9742 23.4878 29.0116 23.213 28.9991 22.9756V22.9756ZM3.12398 21.3513H3.13647H3.12398Z" fill="#664F44"/>
<path d="M25.0138 2.5367C24.7889 2.28682 24.5265 2.09941 24.2392 1.96198C24.1892 1.93699 24.1392 1.92449 24.0768 1.912C24.0518 1.89951 24.0268 1.87452 24.0018 1.86202C23.7519 1.76207 23.4895 1.6996 23.2147 1.66212C21.8653 1.4872 20.316 1.98696 19.4414 2.3368C19.3915 2.36179 19.3415 2.37428 19.2915 2.39927C19.2166 2.43675 19.1416 2.46174 19.0666 2.49922C18.9417 2.5492 18.8167 2.61167 18.6793 2.67414C18.6543 2.68663 18.6418 2.68663 18.6168 2.69913L18.3795 2.42426L18.267 2.29932L18.1671 2.18687L18.1296 2.13689L17.2175 1.08739L17.1425 0.999933L17.0426 0.887486H17.0301L16.7677 0.949957L16.4679 1.01243C16.3054 0.937463 16.1055 0.887486 15.8806 0.850004C15.4308 0.787534 14.8561 0.850004 14.2064 1.01243C13.5567 1.17485 12.8196 1.46221 12.0449 1.84953C10.4832 2.62416 8.759 3.8111 7.08479 5.33538C6.49757 5.86013 5.96033 6.40987 5.46056 6.94711C4.97329 7.47186 4.536 8.00911 4.13619 8.52136C3.32407 9.58336 2.71186 10.6079 2.31205 11.5324C2.04968 12.1446 1.88725 12.7069 1.82478 13.1941C1.77481 13.544 1.7873 13.8563 1.84977 14.1062C1.87476 14.1937 1.89975 14.2561 1.92474 14.3311C1.98721 14.481 2.06217 14.606 2.16212 14.7184L3.17414 15.7804L3.28659 15.8929L3.29909 15.8804C3.32407 15.8429 3.36156 15.8054 3.39904 15.7804L3.41153 15.7679L3.44901 15.7304C3.474 15.693 3.51148 15.668 3.53647 15.6305C3.56146 15.6055 3.57396 15.593 3.59894 15.5805C3.62393 15.568 3.63643 15.543 3.66141 15.5305L3.6864 15.5055C3.71139 15.4931 3.72388 15.4681 3.74887 15.4556C3.77386 15.4306 3.81134 15.4056 3.83633 15.3806C3.84883 15.3681 3.87381 15.3556 3.88631 15.3431H3.8988C3.93628 15.3181 3.96127 15.2931 3.99875 15.2682C4.02374 15.2557 4.03624 15.2432 4.06122 15.2182C4.09871 15.1932 4.1237 15.1682 4.16118 15.1432C4.18617 15.1307 4.19866 15.1182 4.22365 15.1057C4.26113 15.0808 4.29861 15.0558 4.33609 15.0433C4.36108 15.0308 4.37358 15.0183 4.39857 15.0058C4.43605 14.9808 4.47353 14.9683 4.51101 14.9433C4.536 14.9308 4.54849 14.9183 4.57348 14.9058L4.59847 14.8933C4.63595 14.8808 4.66094 14.8559 4.69842 14.8434C4.71092 14.8309 4.73591 14.8309 4.7484 14.8184C4.77339 14.8059 4.79838 14.7934 4.83586 14.7809L4.91082 14.7434L4.93581 14.7309L5.12322 14.656C5.14821 14.6435 5.1607 14.6435 5.18569 14.631C5.21068 14.6185 5.22318 14.6185 5.24816 14.606L5.27315 14.5935C5.28565 14.5935 5.29814 14.581 5.31063 14.581C5.33562 14.5685 5.36061 14.5685 5.39809 14.556H5.42308C5.46056 14.5435 5.48555 14.5435 5.52303 14.531C5.54802 14.5185 5.5855 14.5185 5.61049 14.506C5.64797 14.4935 5.68546 14.4935 5.72294 14.481C5.73543 14.481 5.74793 14.4685 5.77292 14.4685C5.78541 14.4685 5.8104 14.4685 5.82289 14.456C5.86037 14.4436 5.89786 14.4436 5.93534 14.4436C5.97282 14.4436 5.99781 14.4311 6.03529 14.4311C6.06028 14.4311 6.08527 14.4186 6.11026 14.4186H6.21021C6.33515 14.4186 6.48508 14.4186 6.63501 14.4311H6.65999C6.80992 14.4436 6.98484 14.4685 7.15976 14.506C7.19724 14.5185 7.24722 14.5185 7.2847 14.531C7.29719 14.5185 7.29719 14.4935 7.30969 14.481C7.40964 14.3186 7.4971 14.1437 7.59705 13.9813C8.15929 13.0442 8.759 12.2196 9.37121 11.495C9.58361 11.2451 9.79601 11.0202 10.0084 10.7953C10.8955 9.87072 11.7826 9.15856 12.5822 8.60882C12.7571 8.48388 12.9445 8.37143 13.1069 8.25899C13.3443 8.10906 13.5692 7.98412 13.7816 7.85918C13.9565 7.75923 14.119 7.67177 14.2814 7.5968C14.5438 7.45937 14.7812 7.34692 14.9936 7.25946L15.181 7.1845C15.2684 7.14702 15.3559 7.10953 15.4308 7.08455C15.3684 7.07205 15.2934 7.07205 15.2309 7.07205H14.9811C14.9186 7.07205 14.8436 7.07205 14.7812 7.08455C14.6562 7.09704 14.5188 7.10953 14.3813 7.12203C14.3314 7.13452 14.2939 7.13452 14.2439 7.14702C14.5812 6.9721 14.9186 6.84716 15.2309 6.74721C15.4433 6.68474 15.6557 6.63476 15.8556 6.59728C16.1305 6.5473 16.3929 6.50982 16.6303 6.49732C16.7927 6.48483 16.9426 6.48483 17.0801 6.48483C17.2175 6.48483 17.3549 6.49732 17.4674 6.49732C17.8797 6.52231 18.1296 6.58478 18.1296 6.58478C18.0671 6.49732 17.9921 6.43485 17.9172 6.37238C17.7672 6.25994 17.6048 6.18497 17.4549 6.1225C17.3924 6.09751 17.3424 6.08502 17.2925 6.06003C17.255 6.04754 17.2175 6.03504 17.1925 6.03504C17.2675 6.02255 17.3299 6.01006 17.3924 6.01006C17.4674 5.99756 17.5299 5.99756 17.6048 5.98507C18.192 5.93509 18.7168 5.98507 19.1041 6.04754C19.5664 6.135 19.8538 6.24744 19.8538 6.24744C19.7913 6.1225 19.6913 6.01006 19.5789 5.9101C19.5039 5.84763 19.4165 5.78516 19.3415 5.73519C19.5039 5.77267 19.6414 5.81015 19.7913 5.86013C20.1661 5.97257 20.4785 6.11001 20.7283 6.22245L20.9532 6.3349C20.9782 6.3474 20.9907 6.35989 21.0032 6.35989C21.2281 6.48483 21.353 6.57229 21.353 6.57229C21.3156 6.43485 21.2406 6.30991 21.1406 6.19747C21.1157 6.17248 21.0907 6.135 21.0657 6.11001H21.0782C21.0907 6.11001 21.1032 6.1225 21.1282 6.1225C21.1406 6.1225 21.1656 6.135 21.1906 6.14749C21.2906 6.18497 21.4405 6.24744 21.6154 6.3349C21.6279 6.3349 21.6279 6.3474 21.6404 6.3474L21.7154 6.38488C21.7778 6.42236 21.8403 6.44735 21.9028 6.49732L22.0902 6.60977C22.1277 6.63476 22.1527 6.64725 22.1901 6.67224C22.2526 6.72222 22.3276 6.77219 22.3901 6.83466C22.465 6.89713 22.5275 6.9596 22.59 7.02208L22.6274 7.05956C22.6774 7.10953 22.7274 7.15951 22.7649 7.20949C22.8523 7.30944 22.9273 7.42189 23.0023 7.53433C23.0897 7.67177 23.1522 7.83419 23.2147 7.99661C23.2147 8.00911 23.2147 8.0216 23.2272 8.0216C23.2646 7.98412 23.3396 7.90915 23.4271 7.8092C24.1517 6.9596 26.3257 4.21091 25.0138 2.5367" fill="#132134"/>
<path d="M28.2497 23.0634C28.2497 23.0634 28.2747 22.876 28.1747 22.7011C28.1747 22.6886 28.1622 22.6761 28.1622 22.6761L28.1497 22.6636L28.1123 22.6261C28.0873 22.6011 28.0623 22.5761 28.0248 22.5511C28.0123 22.5386 27.9873 22.5261 27.9623 22.5136C27.8999 22.4887 27.8374 22.4637 27.7499 22.4512C27.6875 22.4387 27.625 22.4387 27.55 22.4387H27.4501V22.4637C27.4501 22.4762 27.4626 22.4887 27.4626 22.5136C27.4626 22.5261 27.4626 22.5386 27.4751 22.5386C27.4876 22.5761 27.5001 22.6386 27.5125 22.6886C27.5125 22.6886 27.5125 22.7011 27.5001 22.726V22.7385C27.4626 22.826 27.3626 23.0259 27.1377 23.2758C27.1002 23.3258 27.0628 23.3632 27.0128 23.4132C26.3881 24.0629 25.0387 24.975 22.1901 25.4872C21.228 25.6246 20.3285 25.6371 19.5788 25.5372C18.4544 25.3997 17.6173 25.0374 17.2174 24.5502C17.18 24.5127 17.155 24.4627 17.1175 24.4252C17.0925 24.3877 17.08 24.3628 17.055 24.3253C17.0425 24.3128 17.0425 24.3003 17.03 24.2878C16.8676 23.9879 16.7926 23.6631 16.7926 23.3507C16.7926 22.9634 16.9176 22.6011 17.1175 22.3262C17.2799 22.1013 17.4923 21.9264 17.7547 21.8515C17.8796 21.814 18.0171 21.789 18.1545 21.8015C18.1795 21.8015 18.217 21.8015 18.2669 21.814C18.3544 21.8265 18.4918 21.839 18.6543 21.864C18.6668 21.864 18.6917 21.864 18.7042 21.8765C19.2415 21.9389 20.0911 22.0264 21.1156 21.9639C22.9897 21.8515 25.451 21.2642 27.6875 19.2402V19.2277C27.7 19.0528 27.675 18.753 27.4626 18.5156C27.4251 18.4781 27.3876 18.4406 27.3376 18.4031C27.3126 18.3781 27.2752 18.3656 27.2502 18.3407C27.2127 18.3282 27.1877 18.3032 27.1627 18.2907L27.0503 18.2157V18.2032C27.0378 18.1782 27.0253 18.1533 27.0003 18.1283C26.4256 17.2537 25.6259 16.7414 25.3011 16.504C25.1512 16.3916 25.0512 16.3416 25.0512 16.3416C24.364 15.9168 24.2641 15.7794 24.3266 14.6424C24.3515 14.2301 24.389 13.6929 24.439 12.9558C24.439 12.8558 24.4515 12.7684 24.4515 12.6809V12.6184V12.3186C24.4515 12.2561 24.439 12.1936 24.439 12.1437C24.439 12.1187 24.439 12.0937 24.4265 12.0687C24.414 12.0062 24.414 11.9438 24.4015 11.8813C24.4015 11.8563 24.389 11.8188 24.389 11.7938C24.389 11.7563 24.3765 11.7314 24.364 11.6939C24.3515 11.6689 24.3516 11.6314 24.3391 11.6064C24.3266 11.5689 24.3141 11.5315 24.3141 11.494C24.3141 11.4815 24.3016 11.469 24.3016 11.4565C24.3016 11.444 24.2891 11.4315 24.2891 11.419V11.4065L24.2766 11.369C24.2641 11.344 24.2516 11.3191 24.2516 11.2941V11.2816L24.2391 11.2566L24.2266 11.2316C24.2016 11.1816 24.1891 11.1316 24.1641 11.0942L24.1516 11.0567C24.1267 11.0192 24.1017 10.9692 24.0767 10.9317L24.0642 10.9192L24.0517 10.9068C24.0267 10.8818 24.0142 10.8568 23.9892 10.8318L23.9642 10.7943C23.9392 10.7568 23.9143 10.7318 23.8893 10.7069V10.6069C23.8768 10.5569 23.8643 10.4945 23.8518 10.432C23.8518 10.4195 23.8393 10.3945 23.8393 10.382V10.3695C23.8393 10.3445 23.8268 10.332 23.8268 10.307C23.8143 10.2571 23.8018 10.2071 23.7768 10.1571C23.7768 10.1446 23.7643 10.1196 23.7643 10.1071L23.7268 9.99469C23.7144 9.96971 23.7144 9.94472 23.7019 9.93223C23.6894 9.89474 23.6769 9.85726 23.6519 9.81978L23.6144 9.74482C23.6019 9.70733 23.5769 9.66985 23.5644 9.63237L23.5269 9.55741C23.502 9.51992 23.4895 9.48244 23.4645 9.44496L23.427 9.37C23.402 9.33251 23.377 9.29503 23.352 9.24506C23.3395 9.22007 23.327 9.20758 23.3145 9.18259C23.302 9.17009 23.2896 9.14511 23.2771 9.13261C23.2396 9.09513 23.2146 9.05765 23.1771 9.02017L23.1521 9.00767C23.1021 8.9577 23.0647 8.90772 23.0147 8.87024L23.0022 8.85774C22.9772 8.84525 22.9522 8.82026 22.9397 8.80777H22.9272C22.9022 8.79527 22.8897 8.78278 22.8648 8.77029L22.8523 8.75779C22.8273 8.7453 22.7898 8.72031 22.7398 8.69532C22.7273 8.68283 22.7023 8.68283 22.6773 8.67034C22.5649 8.63285 22.4275 8.58288 22.2525 8.5329C22.2401 8.5329 22.2276 8.5329 22.2151 8.52041C22.0776 8.48293 21.9152 8.44544 21.7403 8.42046C21.6778 8.40796 21.6278 8.40796 21.5654 8.39547C21.5404 8.39547 21.5154 8.39547 21.4779 8.38297H21.4404C21.303 8.37048 21.1781 8.35799 21.0406 8.35799H21.0281C20.8532 8.35799 20.6783 8.37048 20.5159 8.40796C20.5534 8.34549 20.6658 8.27053 20.7658 8.20806C20.9032 8.13309 21.0281 8.08312 21.0281 8.08312C20.9532 8.08312 20.8782 8.09561 20.8032 8.10811C20.7782 8.10811 20.7533 8.1206 20.7283 8.1206C20.7158 8.1206 20.6908 8.1206 20.6783 8.13309H20.6658C20.6533 8.13309 20.6408 8.13309 20.6283 8.14559C20.241 8.23305 19.8662 8.37048 19.6538 8.45794L19.5788 8.49542H19.5663C19.5413 8.49542 19.5288 8.49542 19.5039 8.50791C19.6538 8.22055 19.8787 8.07062 20.0536 7.99566C20.0786 7.98317 20.1161 7.97067 20.141 7.95818C20.1535 7.95818 20.1535 7.95818 20.166 7.94568C20.191 7.93319 20.216 7.93319 20.2285 7.9207C20.266 7.9082 20.291 7.9082 20.291 7.9082H20.0911C19.6663 7.95818 19.279 8.09561 18.9541 8.28302C18.7292 8.40796 18.5293 8.5454 18.3544 8.68283C18.3044 8.69532 18.2669 8.70782 18.217 8.70782C17.7422 8.80777 17.2049 8.93271 16.6427 9.10762C16.4303 9.17009 16.2179 9.24506 16.0055 9.32002C15.8431 9.38249 15.6682 9.44496 15.5058 9.50743C15.3808 9.55741 15.2684 9.60738 15.1434 9.65736C14.2813 10.0447 13.4192 10.5569 12.7071 11.2441L12.6321 11.3191L12.4447 11.5065L12.3697 11.5814C12.3448 11.6189 12.3073 11.6564 12.2823 11.6814C12.1449 11.8313 12.0199 11.9937 11.895 12.1686C11.8075 12.2936 11.7201 12.431 11.6451 12.5685L11.6326 12.5809C11.4702 12.8683 11.3202 13.1682 11.2078 13.5055C11.1453 13.6679 11.0953 13.8428 11.0454 14.0178C11.0329 14.0677 11.0204 14.1052 11.0079 14.1552L10.9954 14.1802C10.9454 14.3676 10.9079 14.5675 10.8829 14.7674C10.8829 14.8049 10.8705 14.8424 10.8705 14.8923C10.858 14.9923 10.8455 15.0922 10.8455 15.2047C10.833 15.3046 10.833 15.3921 10.833 15.492V15.8794C10.833 15.9918 10.833 16.1042 10.8455 16.2167V16.2292C10.8455 16.3416 10.858 16.4541 10.8705 16.579C10.8705 16.629 10.8829 16.679 10.8829 16.7289V16.7664C10.8829 16.7914 10.8829 16.8164 10.8954 16.8539C10.9079 16.9788 10.9329 17.1163 10.9454 17.2537C10.9454 17.2912 10.9579 17.3287 10.9579 17.3661C10.9829 17.4786 10.9954 17.6035 11.0204 17.716C11.0204 17.716 10.9954 17.566 11.0079 17.3411C11.0079 17.2912 11.0204 17.2287 11.0204 17.1787C11.0329 17.0538 11.0579 16.9039 11.1078 16.7664L11.1453 16.654C11.1453 16.6415 11.1578 16.629 11.1703 16.604C11.1953 16.5415 11.2328 16.4666 11.2703 16.4041C11.2828 16.4541 11.2828 16.504 11.2953 16.5415V17.2037C11.3077 17.6285 11.3452 18.1408 11.4327 18.578C11.4327 18.578 11.4452 17.7909 11.5826 17.691C11.5826 17.691 11.82 19.1653 12.0324 19.715C12.0574 19.79 12.0949 19.8399 12.1199 19.8774V19.7275L12.0949 18.9154V18.8279C12.2573 19.1653 12.4447 19.5026 12.6571 19.8649C12.7196 19.9649 12.7696 20.0648 12.832 20.1648C12.4322 20.5146 12.0574 21.0269 11.7825 21.6266C11.745 21.7265 11.6951 21.8265 11.6576 21.9264C11.6326 21.9889 11.6201 22.0389 11.5951 22.1013C11.5951 22.1138 11.5826 22.1388 11.5826 22.1513C11.5701 22.1888 11.5576 22.2388 11.5451 22.2763C11.5451 22.3012 11.5326 22.3137 11.5326 22.3387C11.5201 22.3762 11.5077 22.4262 11.4952 22.4637C11.4952 22.4887 11.4827 22.5012 11.4827 22.5261L11.4452 22.7135C11.4327 22.776 11.4202 22.8385 11.4202 22.901C11.4202 22.9259 11.4202 22.9384 11.4077 22.9634C11.4077 23.0134 11.3952 23.0509 11.3952 23.1009C11.3952 23.1258 11.3952 23.1508 11.3827 23.1758C11.3827 23.2258 11.3702 23.2633 11.3702 23.3133V23.7505C11.3702 23.8005 11.3702 23.8505 11.3827 23.913V23.9504C11.3827 24.0129 11.3952 24.0754 11.4077 24.1504C11.4077 24.1753 11.4077 24.1878 11.4202 24.2128C11.4202 24.2628 11.4327 24.3003 11.4452 24.3503C11.4452 24.3752 11.4577 24.4002 11.4577 24.4252C11.4702 24.4627 11.4702 24.5127 11.4827 24.5502C11.4827 24.5751 11.4952 24.6001 11.4952 24.6251C11.5077 24.6626 11.5201 24.7001 11.5201 24.7501C11.5326 24.7751 11.5326 24.8 11.5451 24.8375C11.5576 24.875 11.5701 24.925 11.5826 24.9625C11.5951 24.9874 11.5951 25.0124 11.6076 25.0374C11.6201 25.0749 11.6326 25.1249 11.6451 25.1624C11.6576 25.1874 11.6576 25.2123 11.6701 25.2373C11.6826 25.2873 11.7076 25.3373 11.7201 25.3748C11.7325 25.3998 11.7325 25.4122 11.745 25.4372L11.9325 25.8495C11.9449 25.8745 11.9574 25.887 11.9699 25.912L12.0449 26.0619C12.0574 26.0869 12.0699 26.1119 12.0949 26.1369C12.1199 26.1744 12.1449 26.2244 12.1698 26.2618C12.1823 26.2868 12.2073 26.3118 12.2198 26.3368C12.2448 26.3743 12.2698 26.4243 12.3073 26.4617C12.3323 26.4867 12.3448 26.5117 12.3697 26.5492C12.3947 26.5867 12.4322 26.6367 12.4572 26.6741C12.4822 26.6991 12.4947 26.7241 12.5197 26.7616C12.5572 26.7991 12.5821 26.849 12.6196 26.8865C12.6446 26.9115 12.6571 26.9365 12.6821 26.9615C12.7196 27.0115 12.7571 27.049 12.807 27.0989L12.8695 27.1614C12.932 27.2239 12.9944 27.2988 13.0569 27.3613C13.0569 27.3613 13.0194 27.3113 12.9695 27.2114C12.957 27.1989 12.9445 27.1739 12.9445 27.1489L12.907 27.0739C12.8945 27.049 12.882 27.024 12.8695 26.9865C12.7696 26.7616 12.6821 26.4367 12.6946 26.0869L12.807 26.2368C12.8445 26.3243 12.907 26.4367 12.9695 26.5617C12.9944 26.5992 13.0194 26.6491 13.0319 26.6866C13.1319 26.8615 13.2318 27.0614 13.3568 27.2489C13.5067 27.4862 13.6566 27.7111 13.8191 27.9235C13.8191 27.9235 13.6316 27.5237 13.5692 27.2613C13.5567 27.1864 13.5442 27.1239 13.5567 27.0864C13.5692 27.0989 13.5817 27.1239 13.6067 27.1364C13.6191 27.1489 13.6316 27.1739 13.6566 27.1864C13.6816 27.2239 13.7191 27.2738 13.7691 27.3363L13.7941 27.3613C13.8191 27.3863 13.8315 27.4238 13.8565 27.4488C13.8815 27.4862 13.9065 27.5237 13.944 27.5612C14.2064 27.8985 14.5687 28.3483 14.8186 28.5857C14.906 28.6607 14.981 28.7231 15.031 28.7481L14.6687 28.0984C15.4933 28.7731 18.9166 29.6352 22.2775 28.6732C22.6898 28.5607 23.0896 28.4108 23.4895 28.2359C23.7268 28.1359 23.9642 28.011 24.2016 27.886L24.2391 27.8611C24.4015 27.7736 24.5639 27.6737 24.7264 27.5737C24.8513 27.4987 24.9763 27.4113 25.0887 27.3363C25.2886 27.1989 25.4885 27.049 25.6884 26.8865C25.7009 26.874 25.7134 26.8615 25.7259 26.8615C25.9133 26.6991 26.1007 26.5242 26.2631 26.3493C26.488 26.1119 26.6879 25.8745 26.8629 25.6371L26.8754 25.6246C26.9253 25.5622 26.9628 25.5122 27.0003 25.4497L27.0128 25.4372C27.0253 25.4122 27.0378 25.3998 27.0503 25.3748C27.1127 25.2873 27.1627 25.2123 27.2252 25.1249C27.2377 25.0999 27.2502 25.0874 27.2627 25.0624C27.2877 25.0124 27.3126 24.975 27.3501 24.925C27.3751 24.8875 27.3876 24.8625 27.4126 24.825C27.4376 24.7875 27.4626 24.7501 27.4751 24.7126C27.5125 24.6501 27.55 24.5751 27.5875 24.5127L27.625 24.4377L27.7 24.2878L27.7374 24.2128L27.7499 24.1878C27.7749 24.1254 27.8124 24.0629 27.8374 24.0004V23.9879C27.9498 23.888 28.0248 23.788 28.0998 23.7006C28.1123 23.6881 28.1248 23.6756 28.1248 23.6631C28.1997 23.4257 28.2497 23.2383 28.2497 23.0634V23.0634ZM8.14675 20.6395C8.14675 20.6271 8.14675 20.6146 8.13426 20.5896C8.09677 20.3772 8.05929 20.1523 8.0468 19.9274V19.8774C8.00932 19.8899 7.97183 19.9399 7.92186 20.0024C7.90936 20.0273 7.88437 20.0523 7.87188 20.0898C7.75943 20.3022 7.65948 20.6021 7.65948 20.6021C7.67197 20.5021 7.68447 20.4022 7.68447 20.3022V20.2647C7.69696 20.1648 7.70946 20.0523 7.72195 19.9524V19.9149C7.73444 19.79 7.75943 19.6775 7.78442 19.5651C7.78442 19.5526 7.78442 19.5401 7.79692 19.5151V19.5026C7.79692 19.4901 7.79692 19.4776 7.80941 19.4651C7.80941 19.4401 7.8219 19.4276 7.8219 19.4026C7.8344 19.3152 7.85939 19.2277 7.87188 19.1403C7.88437 19.0653 7.89687 18.9903 7.90936 18.9279V18.9029C7.90936 18.8904 7.90936 18.8779 7.92186 18.8779V18.8529C7.92186 18.8404 7.93435 18.8154 7.93435 18.8029C7.93435 18.7904 7.93435 18.7779 7.94684 18.7655C7.94684 18.7405 7.95934 18.7155 7.95934 18.703C7.95934 18.6905 7.97183 18.6655 7.97183 18.653C7.97183 18.628 7.98433 18.603 7.98433 18.5905C7.98433 18.578 7.98433 18.5656 7.99682 18.5531C7.99682 18.5406 7.99682 18.5281 8.00931 18.5281C8.00931 18.5031 8.02181 18.4906 8.02181 18.4781V18.4406L7.99682 18.4656C7.97183 18.4781 7.95934 18.5031 7.93435 18.5156L7.90936 18.5406C7.88437 18.5656 7.85939 18.5905 7.84689 18.6155L7.8344 18.628L7.75943 18.7405L7.74694 18.753C7.74694 18.7655 7.73445 18.7655 7.73445 18.778L7.69696 18.8529V18.8779C7.68447 18.9154 7.65948 18.9529 7.64699 18.9903C7.6095 19.0903 7.57202 19.1903 7.54703 19.2777C7.53454 19.3027 7.53454 19.3402 7.52205 19.3527C7.50955 19.4026 7.49706 19.4526 7.49706 19.4651V19.4776V19.4651C7.49706 19.4276 7.49706 19.4026 7.50955 19.3652C7.50955 19.3027 7.52205 19.2277 7.52205 19.1653C7.52205 19.1153 7.53454 19.0528 7.54703 19.0028C7.54703 18.9903 7.54703 18.9654 7.55953 18.9529C7.55953 18.9279 7.57202 18.9029 7.57202 18.8779C7.57202 18.8529 7.58452 18.8279 7.58452 18.8029V18.7655C7.58452 18.7405 7.59701 18.703 7.59701 18.678V18.6155V18.5905C7.59701 18.578 7.59701 18.5656 7.60951 18.5531C7.622 18.5156 7.63449 18.4656 7.63449 18.4281V18.4156C7.64699 18.3906 7.64699 18.3532 7.65948 18.3282V18.3157C7.67197 18.2532 7.69696 18.1907 7.70946 18.1283V18.1033C7.70946 18.0908 7.70946 18.0783 7.72195 18.0658C7.74694 17.9658 7.78442 17.8659 7.80941 17.7784V17.7659C7.8344 17.691 7.87188 17.6035 7.89687 17.5286V17.5161C7.90936 17.4786 7.92186 17.4536 7.93435 17.4161C7.95934 17.3661 7.97183 17.3162 7.99682 17.2662C7.99682 17.2537 8.00931 17.2287 8.0343 17.1787C8.0468 17.1662 8.0468 17.1412 8.05929 17.1287C8.07179 17.1038 8.08428 17.0788 8.09677 17.0413L8.10927 17.0163L8.32167 16.629C8.33416 16.6165 8.33416 16.5915 8.34665 16.579V16.5665L8.35915 16.5415C8.38414 16.504 8.40912 16.4541 8.43411 16.4166C8.4716 16.3541 8.49658 16.2917 8.53407 16.2417C8.59654 16.1292 8.64651 16.0293 8.68399 15.9793C8.69649 15.9418 8.70898 15.9293 8.72148 15.9168C8.70898 15.9168 8.64651 15.8669 8.54656 15.8044C8.42162 15.7294 8.2467 15.6295 8.0343 15.5295C7.95934 15.492 7.89687 15.4671 7.8219 15.4296C7.73445 15.3921 7.63449 15.3546 7.53454 15.3171C7.50955 15.3046 7.48456 15.3046 7.45958 15.2921C7.37212 15.2671 7.29715 15.2422 7.20969 15.2172C7.14722 15.2047 7.08475 15.1922 7.03478 15.1797C6.9848 15.1672 6.93482 15.1672 6.88485 15.1547C6.85986 15.1547 6.83487 15.1547 6.80988 15.1422C6.7849 15.1422 6.75991 15.1422 6.73492 15.1297C6.67245 15.1297 6.59749 15.1172 6.53502 15.1172H6.43506C6.28513 15.1172 6.1477 15.1297 6.01026 15.1547H5.98528C5.7354 15.1922 5.49801 15.2547 5.26062 15.3421C5.18566 15.3671 5.11069 15.4046 5.02323 15.4421C4.99825 15.4546 4.98575 15.4671 4.96076 15.4671L4.8858 15.5045C4.66091 15.617 4.44851 15.7669 4.2486 15.9293H4.23611C4.06119 16.0668 3.91126 16.2292 3.77383 16.3916L3.66138 16.5415C3.6114 16.604 3.57392 16.6665 3.53644 16.7289C3.46148 16.8414 3.38651 16.9663 3.32404 17.0913C3.29905 17.1412 3.27406 17.1787 3.26157 17.2287C3.26157 17.2412 3.24908 17.2412 3.24908 17.2537C3.12414 17.5535 3.02418 17.8659 2.9867 18.2032C2.97421 18.2657 2.97421 18.3282 2.96171 18.4031V18.4281C2.96171 18.4781 2.94922 18.5281 2.94922 18.5905V18.8154C2.94922 18.8654 2.94922 18.9154 2.96171 18.9654V19.0278C2.96171 19.0653 2.97421 19.1028 2.97421 19.1403V19.1528C2.97421 19.1778 2.97421 19.1903 2.9867 19.2152C2.9867 19.2527 2.99919 19.2902 2.99919 19.3152C2.99919 19.3402 3.01169 19.3652 3.01169 19.3902C3.02418 19.4276 3.02418 19.4526 3.03668 19.4901C3.03668 19.5151 3.04917 19.5401 3.06167 19.5651V19.5776L3.07416 19.6026V19.6275L3.08665 19.6525C3.09915 19.6775 3.09915 19.7025 3.11164 19.7275C3.12414 19.7525 3.12414 19.79 3.13663 19.8149C3.14912 19.8399 3.16162 19.8649 3.16162 19.9024L3.17411 19.9274C3.18661 19.9524 3.18661 19.9649 3.1991 19.9899C3.21159 20.0149 3.22409 20.0398 3.23658 20.0773L3.27406 20.1523C3.28656 20.1648 3.28656 20.1773 3.29905 20.1898C3.31155 20.2023 3.31155 20.2148 3.32404 20.2272L3.36152 20.3022C3.37402 20.3272 3.38651 20.3647 3.4115 20.3897C3.42399 20.4147 3.43649 20.4396 3.44898 20.4521C3.46148 20.4771 3.48646 20.5146 3.49896 20.5396C3.51145 20.5646 3.52395 20.5771 3.53644 20.6021C3.54893 20.6271 3.57392 20.6645 3.59891 20.6895C3.6114 20.7145 3.6239 20.727 3.63639 20.7395C3.66138 20.7645 3.67387 20.802 3.69886 20.827C3.71136 20.8395 3.72385 20.8644 3.73634 20.8769C3.76133 20.9019 3.78632 20.9394 3.81131 20.9644C3.8238 20.9769 3.8363 20.9894 3.84879 21.0144C3.87378 21.0394 3.89877 21.0768 3.92376 21.1018L3.96124 21.1393C3.98623 21.1643 4.01121 21.2018 4.0487 21.2268L4.08618 21.2642L4.17364 21.3517C4.18613 21.3642 4.19863 21.3767 4.21112 21.3767C4.23611 21.4017 4.27359 21.4267 4.31107 21.4642C4.32357 21.4766 4.33606 21.4766 4.34855 21.4891C4.38604 21.5141 4.41102 21.5391 4.44851 21.5641C4.461 21.5766 4.47349 21.5766 4.47349 21.5891L4.58594 21.6641L4.61093 21.6765L4.72338 21.7515L4.74836 21.764C4.78585 21.789 4.83582 21.814 4.8733 21.839L4.89829 21.8515C4.93577 21.8765 4.98575 21.9014 5.02323 21.9139L5.04822 21.9264C5.0982 21.9514 5.13568 21.9639 5.18566 21.9889L5.19815 22.0014C5.24813 22.0264 5.2981 22.0389 5.33559 22.0639H5.34808C5.39806 22.0764 5.44803 22.1013 5.49801 22.1138H5.5105C5.53549 22.1263 5.56048 22.1263 5.58547 22.1388C5.61045 22.1513 5.63544 22.1513 5.67292 22.1638H5.68542C5.7354 22.1763 5.79787 22.1888 5.84784 22.2013C5.89782 22.2138 5.96029 22.2263 6.01026 22.2263C6.18518 22.2513 6.3601 22.2638 6.53502 22.2763H6.65996C6.72243 22.2763 6.7724 22.2763 6.83487 22.2638C6.90984 22.2513 6.9973 22.2513 7.08475 22.2388C7.15972 22.2263 7.23468 22.2138 7.29715 22.2013C7.4096 22.1763 7.52205 22.1513 7.622 22.1138C7.94684 22.0264 8.22171 21.9014 8.39663 21.764C8.39663 21.764 8.28418 21.2642 8.19673 20.7645C8.17174 20.7395 8.15924 20.6895 8.14675 20.6395" fill="#90694C"/>
<path d="M16.1681 2.07324L16.1306 1.57348L16.3805 1.02374L16.4805 0.998755C16.3181 0.923791 16.1181 0.873814 15.8933 0.836332C15.4435 0.773862 14.8687 0.836332 14.2191 0.998755C13.5694 1.16118 12.8322 1.44854 12.0576 1.83586C10.4958 2.61049 8.77166 3.79742 7.09746 5.3217C6.51024 5.84645 5.973 6.39619 5.47324 6.93343C4.98597 7.45818 4.54868 7.99543 4.14887 8.50768C3.33676 9.56968 2.72455 10.5942 2.32475 11.5188C2.06237 12.131 1.89995 12.6932 1.83748 13.1805C1.7875 13.5303 1.8 13.8426 1.86247 14.0925C1.88745 14.18 1.91244 14.2425 1.93743 14.3174C1.9999 14.4673 2.07486 14.5923 2.17482 14.7047L3.18683 15.7667L3.29928 15.8792L3.31177 15.8667C3.33676 15.8292 3.37424 15.7917 3.41173 15.7667L3.42422 15.7542L3.4617 15.7168C3.48669 15.6793 3.52417 15.6543 3.54916 15.6168C3.57415 15.5918 3.58664 15.5793 3.61163 15.5668C3.63662 15.5543 3.64911 15.5293 3.6741 15.5168L3.69909 15.4919C3.72408 15.4794 3.73657 15.4544 3.76156 15.4419C3.78655 15.4169 3.82403 15.3919 3.84902 15.3669C3.86151 15.3544 3.8865 15.3419 3.89899 15.3294H3.91149C3.94897 15.3045 3.97396 15.2795 4.01144 15.2545C4.03643 15.242 4.04892 15.2295 4.07391 15.2045C4.11139 15.1795 4.13638 15.1545 4.17386 15.1295C4.19885 15.117 4.21134 15.1045 4.23633 15.0921C4.27381 15.0671 4.31129 15.0421 4.34878 15.0296C4.37376 15.0171 4.38626 15.0046 4.41125 14.9921C4.44873 14.9671 4.48621 14.9546 4.52369 14.9296C4.54868 14.9171 4.56118 14.9046 4.58616 14.8921L4.61115 14.8797C4.84854 14.2175 5.21086 13.4803 5.68564 12.7307C6.26036 11.8061 6.99751 10.8316 7.87209 9.85704C8.42183 9.24483 9.02154 8.63262 9.67123 8.0454C10.5083 7.28327 11.3704 6.59609 12.22 5.99638C12.7947 5.59657 13.357 5.23424 13.9067 4.92189C13.9567 4.8969 14.0067 4.85942 14.0691 4.83443C14.2191 4.74697 14.3565 4.67201 14.5064 4.59704C14.8188 4.43462 15.1311 4.28469 15.431 4.15975L15.281 3.98483L15.2561 3.95985L15.0686 3.74745L14.0316 2.49804L14.0441 1.59847L14.0316 1.58598L14.7688 1.36108L16.1681 2.07324Z" fill="#2F83C1"/>
<path d="M28.2501 23.0631C28.2501 23.0631 28.2751 22.8757 28.1752 22.7008C28.1752 22.6883 28.1627 22.6758 28.1627 22.6758L28.1502 22.6633L28.1127 22.6258C28.0877 22.6008 28.0627 22.5758 28.0253 22.5509C28.0128 22.5384 27.9878 22.5259 27.9628 22.5134C27.9003 22.4884 27.8378 22.4634 27.7504 22.4509C27.6879 22.4384 27.6254 22.4384 27.5505 22.4384H27.4505V22.4634C27.4505 22.4759 27.463 22.4884 27.463 22.5134C27.463 22.5259 27.463 22.5384 27.4755 22.5384C27.488 22.5758 27.5005 22.6383 27.513 22.6883C27.513 22.6883 27.513 22.7008 27.5005 22.7258V22.7383C27.463 22.8257 27.3631 23.0256 27.1382 23.2755C27.1007 23.3255 27.0632 23.363 27.0132 23.4129C26.3885 24.0626 25.0392 24.9747 22.1905 25.487C21.2285 25.6244 20.3289 25.6369 19.5793 25.5369C18.4548 25.3995 17.6177 25.0372 17.2179 24.5499C17.1804 24.5124 17.1555 24.4624 17.118 24.425C17.093 24.3875 17.0805 24.3625 17.0555 24.325C17.043 24.3125 17.043 24.3 17.0305 24.2875C16.8681 23.9877 16.7931 23.6628 16.7931 23.3505C16.7931 22.9632 16.9181 22.6008 17.118 22.326C17.2804 22.1011 17.4928 21.9262 17.7552 21.8512C17.8801 21.8137 18.0175 21.7887 18.155 21.8012C18.18 21.8012 18.2174 21.8012 18.2674 21.8137C18.3549 21.8262 18.4923 21.8387 18.6547 21.8637C18.6672 21.8637 18.6922 21.8637 18.7047 21.8762C19.242 21.9386 20.0916 22.0261 21.1161 21.9636C22.9902 21.8512 25.4515 21.264 27.6879 19.2399V19.2274C27.7004 19.0525 27.6754 18.7527 27.463 18.5153C27.4255 18.4778 27.3881 18.4403 27.3381 18.4028C27.3131 18.3778 27.2756 18.3654 27.2506 18.3404C27.2131 18.3279 27.1882 18.3029 27.1632 18.2904L27.0507 18.2154V18.2029C27.0382 18.1779 27.0257 18.153 27.0007 18.128C26.426 17.2534 25.6264 16.7411 25.3016 16.5037C25.1516 16.3913 25.0517 16.3413 25.0517 16.3413C24.3645 15.9165 24.2646 15.7791 24.327 14.6421C24.352 14.2298 24.3895 13.6926 24.4395 12.9554C24.4395 12.8555 24.452 12.768 24.452 12.6806V12.6181V12.3182C24.452 12.2558 24.4395 12.1933 24.4395 12.1433C24.4395 12.1183 24.4395 12.0933 24.427 12.0684C24.4145 12.0059 24.4145 11.9434 24.402 11.8809C24.402 11.856 24.3895 11.8185 24.3895 11.7935C24.3895 11.756 24.377 11.731 24.3645 11.6935C24.352 11.6685 24.352 11.6311 24.3395 11.6061C24.327 11.5686 24.3145 11.5311 24.3145 11.4936C24.3145 11.4811 24.302 11.4686 24.302 11.4562C24.302 11.4437 24.2895 11.4312 24.2895 11.4187V11.4062L24.277 11.3687C24.2646 11.3437 24.2521 11.3187 24.2521 11.2937V11.2812L24.2396 11.2562L24.2271 11.2313C24.2021 11.1813 24.1896 11.1313 24.1646 11.0938L24.1521 11.0563C24.1271 11.0189 24.1021 10.9689 24.0771 10.9314L24.0647 10.9189L24.0522 10.9064C24.0272 10.8814 24.0147 10.8564 23.9897 10.8314L23.9647 10.794C23.9397 10.7565 23.9147 10.7315 23.8897 10.7065L23.7898 10.6066C23.7523 10.5816 23.7148 10.5566 23.6773 10.5441C23.6648 10.5316 23.6523 10.5316 23.6399 10.5316L23.5649 10.4941C23.5524 10.4941 23.5399 10.4816 23.5274 10.4816C23.5024 10.4691 23.4774 10.4691 23.4649 10.4566C23.4524 10.4566 23.4399 10.4441 23.415 10.4441C23.39 10.4441 23.3775 10.4316 23.3525 10.4316H23.0776C23.0651 10.4316 23.0526 10.4316 23.0401 10.4441C23.0276 10.4441 23.0152 10.4441 23.0027 10.4566C22.9777 10.4566 22.9527 10.4691 22.9152 10.4816H22.8902C22.8152 10.5066 22.7528 10.5316 22.6778 10.5566L22.6528 10.5691C22.6278 10.5816 22.6029 10.5941 22.5654 10.6066L22.5279 10.6191L22.4529 10.6565L22.4154 10.6815L22.3405 10.719L22.303 10.744C22.278 10.7565 22.253 10.7815 22.228 10.794L22.203 10.8065C22.1781 10.8314 22.1406 10.8439 22.1156 10.8689L22.1031 10.8814C22.0656 10.9064 22.0406 10.9314 22.0031 10.9439C21.9407 10.9814 21.8782 11.0314 21.8157 11.0688C21.7658 11.1063 21.7158 11.1438 21.6533 11.1813L21.6283 11.1938C21.5783 11.2313 21.5159 11.2687 21.4659 11.2937L21.4409 11.3062C21.3909 11.3437 21.3285 11.3687 21.2785 11.4062L21.2535 11.4187C21.2035 11.4562 21.141 11.4811 21.0786 11.5061L21.0536 11.5186C20.9911 11.5436 20.9411 11.5686 20.8787 11.5936L20.8537 11.6061C20.7912 11.6311 20.7287 11.6436 20.6663 11.6686H20.6538C20.5913 11.681 20.5163 11.6935 20.4539 11.706C20.3414 11.7185 20.2165 11.731 20.104 11.731C19.9166 11.731 19.7292 11.7185 19.5293 11.6935L19.3419 11.6561C19.3169 11.6561 19.2919 11.6436 19.2794 11.6436C19.117 11.6061 18.9421 11.5686 18.7797 11.5311C18.7047 11.5186 18.6422 11.4936 18.5673 11.4811C18.4548 11.4562 18.3424 11.4312 18.2174 11.4062C18.1925 11.4062 18.1675 11.3937 18.155 11.3937C18.1425 11.3937 18.1175 11.3812 18.105 11.3812C18.08 11.3812 18.055 11.3687 18.03 11.3687C18.0051 11.3687 17.9801 11.3562 17.9551 11.3562H17.9301C17.9051 11.3562 17.8801 11.3437 17.8676 11.3437C17.8176 11.3312 17.7677 11.3187 17.7052 11.3187C17.6927 11.3187 17.6677 11.3187 17.6552 11.3062C17.6177 11.3062 17.5803 11.2937 17.5428 11.2937C17.5178 11.2937 17.5053 11.2937 17.4803 11.2812C17.4428 11.2812 17.4178 11.2687 17.3803 11.2687H16.8056C16.7432 11.2687 16.6932 11.2812 16.6307 11.2812H16.5807C16.5432 11.2812 16.5058 11.2937 16.4683 11.2937H16.4558C16.4308 11.2937 16.4183 11.3062 16.3933 11.3062C16.3558 11.3187 16.3184 11.3187 16.2809 11.3312C16.2559 11.3312 16.2309 11.3437 16.2184 11.3437C16.1809 11.3562 16.1434 11.3687 16.106 11.3687C16.081 11.3687 16.0685 11.3812 16.0435 11.3937C16.006 11.4062 15.956 11.4187 15.9185 11.4312C15.8936 11.4437 15.8811 11.4437 15.8686 11.4562C15.8061 11.4811 15.7436 11.5061 15.6937 11.5311C15.2189 11.806 14.8066 12.1808 14.4942 12.6056C14.3818 12.7555 14.2818 12.9055 14.1944 13.0554C14.0944 13.2178 14.0195 13.3927 13.9445 13.5676C13.9195 13.6176 13.907 13.6676 13.882 13.7176C13.857 13.805 13.8196 13.8925 13.7946 13.9799C13.7946 13.9924 13.7946 14.0049 13.7821 14.0049C13.7571 14.1049 13.7321 14.2048 13.7071 14.3173C13.6821 14.4297 13.6696 14.5297 13.6571 14.6421C13.6446 14.7046 13.6446 14.7546 13.6446 14.817C13.6321 14.9795 13.6321 15.1294 13.6446 15.2918V15.3293C13.6446 15.3668 13.6446 15.4043 13.6571 15.4542C13.6696 15.5667 13.6821 15.6791 13.7071 15.7916C13.7196 15.8291 13.7321 15.8665 13.7321 15.9165C13.7446 15.954 13.7446 15.9915 13.7571 16.029C13.832 16.3163 13.9445 16.5787 14.0819 16.8036C14.5942 17.6907 15.4438 18.2279 16.0685 18.5153C16.3059 18.6152 16.5557 18.7152 16.8181 18.8026L16.7931 18.8276C16.7432 18.8401 16.6932 18.8526 16.6307 18.8651C16.5432 18.8901 16.4308 18.9276 16.3184 18.9651C16.1934 19.0025 16.0435 19.065 15.8936 19.1275C15.4938 19.2899 15.044 19.5273 14.6442 19.8521C14.5942 19.8896 14.5442 19.9396 14.4942 19.9771C14.4068 20.052 14.3318 20.127 14.2568 20.2145L14.2319 20.2395L14.1944 20.2769C14.1694 20.3144 14.1319 20.3394 14.1069 20.3769L14.0694 20.4144C14.032 20.4643 13.9945 20.5143 13.9695 20.5643C13.932 20.6143 13.907 20.6643 13.8695 20.7142C13.6321 21.1265 13.4947 21.6263 13.5322 22.226V22.201C13.5322 22.1885 13.5322 22.176 13.5447 22.1635V22.151C13.5447 22.1386 13.5572 22.1261 13.5572 22.1011V22.0886C13.5572 22.0761 13.5697 22.0511 13.5697 22.0261C13.5697 22.0011 13.5822 21.9886 13.5947 21.9636V21.9511C13.6072 21.9262 13.6072 21.9012 13.6196 21.8762V21.8637C13.6321 21.8387 13.6321 21.8137 13.6446 21.7887V21.7762C13.6571 21.7512 13.6696 21.7262 13.6821 21.6888L13.6946 21.6763C13.7071 21.6513 13.7196 21.6138 13.7446 21.5888C13.7696 21.5388 13.7946 21.5014 13.8196 21.4514C13.832 21.4389 13.8445 21.4139 13.857 21.4014L13.8695 21.3889L13.9445 21.2765C13.9695 21.2515 13.9945 21.214 14.0195 21.189L14.0444 21.164C14.0694 21.139 14.0819 21.114 14.1069 21.1015L14.1319 21.0766C14.1569 21.0516 14.1944 21.0266 14.2194 20.9891C14.2194 20.9891 13.6821 22.2135 13.9195 23.1756V23.1631V23.1381V23.1006V23.0506V22.9881C13.9195 22.9632 13.9195 22.9382 13.932 22.9132C13.932 22.8882 13.932 22.8632 13.9445 22.8382V22.8257C13.9445 22.8007 13.957 22.7633 13.957 22.7383V22.7133C13.9695 22.6758 13.9695 22.6508 13.982 22.6133V22.6008C13.9945 22.5633 14.007 22.5259 14.007 22.5009C14.007 22.4884 14.0195 22.4759 14.0195 22.4634L14.032 22.4384C14.0444 22.4134 14.0569 22.3759 14.0694 22.3509C14.0819 22.3135 14.1069 22.276 14.1319 22.2385C14.1319 22.226 14.1444 22.2135 14.1444 22.2135L14.2194 22.1011C14.2194 22.1011 14.1944 22.4009 14.1944 22.7633C14.1944 22.8257 14.1944 22.8757 14.2069 22.9382C14.2069 22.9757 14.2069 23.0131 14.2194 23.0506C14.2444 22.6633 14.3193 22.301 14.4193 21.9636C14.3193 22.301 14.2444 22.6633 14.2194 23.0506C14.2069 23.3005 14.2069 23.5504 14.2319 23.8128C14.2693 24.25 14.3818 24.7248 14.5692 25.2121C14.5692 25.2121 14.3943 24.6499 14.6442 24.0876L14.7191 24.2375C14.7441 24.4 14.7691 24.6374 14.8191 24.8997C14.8691 25.337 15.069 26.6489 15.9685 27.561C15.9685 27.561 15.6312 27.1237 15.6812 26.5614C15.7186 26.6364 15.7561 26.6989 15.7811 26.7613C15.931 27.0487 16.2309 27.5735 16.5682 27.9483C16.5682 27.9483 16.3059 27.436 16.3683 27.3236C16.3683 27.3236 17.2429 28.4106 17.5178 28.5105L17.1555 27.9108L17.143 27.8983C18.4049 28.8229 20.154 29.1602 22.303 28.5605C22.6778 28.4605 23.0526 28.3231 23.4524 28.1607C23.6898 28.0607 23.9272 27.9358 24.1646 27.8108L24.2021 27.7859C24.3645 27.6984 24.5269 27.5984 24.6894 27.4985C24.8143 27.4235 24.9392 27.3361 25.0517 27.2611C25.2516 27.1237 25.4515 26.9737 25.6514 26.8113C25.6639 26.7988 25.6764 26.7863 25.6889 26.7863C25.8763 26.6239 26.0637 26.449 26.2261 26.2741C26.451 26.0367 26.6509 25.7993 26.8258 25.5619L26.8383 25.5494C26.8883 25.487 26.9258 25.437 26.9633 25.3745L26.9758 25.362C26.9882 25.337 27.0007 25.3245 27.0132 25.2995C27.0757 25.2121 27.1257 25.1371 27.1882 25.0497C27.2006 25.0247 27.2131 25.0122 27.2256 24.9872C27.2506 24.9372 27.2756 24.8997 27.3131 24.8498C27.3381 24.8123 27.3506 24.7873 27.3756 24.7498C27.4006 24.7123 27.4255 24.6748 27.438 24.6374C27.4755 24.5749 27.513 24.4999 27.5505 24.4375L27.588 24.3625L27.6629 24.2126L27.7004 24.1376L27.7129 24.1126C27.7379 24.0501 27.7754 23.9877 27.8004 23.9252V23.9127C27.9128 23.8127 27.9878 23.7128 28.0627 23.6253C28.0752 23.6128 28.0877 23.6004 28.0877 23.5879C28.2002 23.4254 28.2501 23.238 28.2501 23.0631V23.0631ZM8.04732 19.8771C8.00984 19.8896 7.97235 19.9396 7.92238 20.0021C7.90988 20.0271 7.8849 20.052 7.8724 20.0895C7.75995 20.3019 7.66 20.6018 7.66 20.6018C7.6725 20.5018 7.68499 20.4019 7.68499 20.3019V20.2644C7.69748 20.1645 7.70998 20.052 7.72247 19.9521V19.9146C7.73497 19.7897 7.75995 19.6772 7.78494 19.5648C7.78494 19.5523 7.78494 19.5398 7.79744 19.5148V19.5023C7.79744 19.4898 7.79744 19.4773 7.80993 19.4648C7.80993 19.4398 7.82242 19.4273 7.82242 19.4024C7.83492 19.3149 7.85991 19.2274 7.8724 19.14C7.8849 19.065 7.89739 18.9901 7.90988 18.9276V18.9026C7.90988 18.8901 7.90988 18.8776 7.92238 18.8776V18.8526C7.92238 18.8401 7.93487 18.8151 7.93487 18.8026C7.93487 18.7901 7.93487 18.7777 7.94737 18.7652C7.94737 18.7402 7.95986 18.7152 7.95986 18.7027C7.95986 18.6902 7.97235 18.6652 7.97235 18.6527C7.97235 18.6277 7.98485 18.6027 7.98485 18.5902C7.98485 18.5778 7.98485 18.5653 7.99734 18.5528C7.99734 18.5403 7.99734 18.5278 8.00984 18.5278C8.00984 18.5028 8.02233 18.4903 8.02233 18.4778V18.4403L7.99734 18.4653C7.97235 18.4778 7.95986 18.5028 7.93487 18.5153L7.90988 18.5403C7.8849 18.5653 7.85991 18.5902 7.84741 18.6152L7.83492 18.6277L7.75995 18.7402L7.74746 18.7527C7.74746 18.7652 7.73497 18.7652 7.73497 18.7777L7.69748 18.8526V18.8776C7.68499 18.9151 7.66 18.9526 7.64751 18.9901C7.61003 19.09 7.57254 19.19 7.54756 19.2774C7.53506 19.3024 7.53506 19.3399 7.52257 19.3524C7.51007 19.4024 7.49758 19.4523 7.49758 19.4648V19.4773V19.4648C7.49758 19.4273 7.49758 19.4024 7.51007 19.3649C7.51007 19.3024 7.52257 19.2274 7.52257 19.165C7.52257 19.115 7.53506 19.0525 7.54756 19.0025C7.54756 18.9901 7.54756 18.9651 7.56005 18.9526C7.56005 18.9276 7.57254 18.9026 7.57254 18.8776C7.57254 18.8526 7.58504 18.8276 7.58504 18.8026V18.7652C7.58504 18.7402 7.59753 18.7027 7.59753 18.6777V18.6152V18.5902C7.59753 18.5778 7.59753 18.5653 7.61003 18.5528C7.62252 18.5153 7.63501 18.4653 7.63501 18.4278V18.4153C7.64751 18.3903 7.64751 18.3529 7.66 18.3279V18.3154C7.6725 18.2529 7.69748 18.1904 7.70998 18.128V18.103C7.70998 18.0905 7.70998 18.078 7.72247 18.0655C7.74746 17.9655 7.78494 17.8656 7.80993 17.7781V17.7656C7.83492 17.6907 7.8724 17.6032 7.89739 17.5283V17.5158C7.90988 17.4783 7.92238 17.4533 7.93487 17.4158C7.95986 17.3658 7.97235 17.3159 7.99734 17.2659C7.99734 17.2534 8.00984 17.2284 8.03482 17.1784C8.04732 17.1659 8.04732 17.1409 8.05981 17.1284C8.07231 17.1035 8.0848 17.0785 8.09729 17.041L8.10979 17.016C8.09729 17.0035 8.07231 17.0035 8.05981 16.991H8.04732L8.02233 16.9785C7.90988 16.9285 7.78494 16.8786 7.66 16.8411H7.63501C7.54756 16.8161 7.47259 16.8036 7.38513 16.7911C7.33516 16.7911 7.28518 16.7786 7.23521 16.7786H7.11027C7.0478 16.7786 6.98533 16.7911 6.92286 16.7911C6.89787 16.7911 6.88537 16.7911 6.86039 16.8036C6.8354 16.8036 6.79792 16.8161 6.77293 16.8161C6.76043 16.8161 6.74794 16.8161 6.73545 16.8286C6.71046 16.8286 6.69796 16.8411 6.67298 16.8411C6.63549 16.8536 6.58552 16.8661 6.54804 16.8786C6.53554 16.8786 6.51055 16.8911 6.49806 16.8911C6.44808 16.916 6.38561 16.9285 6.33564 16.9535C6.31065 16.966 6.29815 16.9785 6.27317 16.9785L6.1982 17.016L6.17321 17.0285C6.14823 17.041 6.12324 17.0535 6.09825 17.0785C6.07326 17.091 6.04827 17.1035 6.02329 17.1284C5.9983 17.1409 5.97331 17.1659 5.94832 17.1784C5.93583 17.1909 5.91084 17.2034 5.89835 17.2159C5.86086 17.2534 5.81089 17.2909 5.77341 17.3283L5.71094 17.3908C5.67345 17.4283 5.64847 17.4658 5.61098 17.5033L5.59849 17.5158C5.586 17.5407 5.56101 17.5532 5.54851 17.5782L5.51103 17.6157C5.44856 17.7032 5.38609 17.8031 5.33612 17.9031C5.32362 17.9156 5.32362 17.9281 5.31113 17.9406C5.28614 17.9905 5.27365 18.0405 5.24866 18.0905C5.23616 18.1155 5.23616 18.128 5.22367 18.153C5.21117 18.2029 5.18619 18.2529 5.17369 18.3154V18.3654C5.1612 18.4028 5.1612 18.4403 5.14871 18.4778C5.14871 18.5028 5.1487 18.5153 5.13621 18.5403C5.13621 18.5653 5.13621 18.5777 5.12372 18.6027V18.6527C5.12372 18.7152 5.11122 18.7777 5.12372 18.8401C5.12372 18.8901 5.12372 18.9401 5.13621 18.9901V19.015C5.13621 19.04 5.14871 19.065 5.14871 19.09C5.1612 19.19 5.18619 19.2774 5.21118 19.3774C5.23616 19.4523 5.26115 19.5148 5.28614 19.5773C5.33612 19.7022 5.39859 19.8147 5.47355 19.9271C5.62348 20.152 5.82338 20.3519 6.06077 20.5018C6.18571 20.5893 6.33564 20.6518 6.48557 20.7017C6.623 20.7517 6.77293 20.7892 6.93535 20.8017C6.97283 20.8017 7.01031 20.8142 7.0353 20.8142H7.19772C7.2477 20.8142 7.29768 20.8017 7.34765 20.8017C7.37264 20.8017 7.41012 20.8017 7.43511 20.7892C7.51007 20.7767 7.57254 20.7642 7.64751 20.7517H7.66C7.68499 20.7392 7.70998 20.7392 7.74746 20.7267C7.83492 20.7017 7.92238 20.6643 7.99734 20.6268L8.00984 20.6143C8.03482 20.6018 8.05981 20.5893 8.07231 20.5893C8.03482 20.3769 7.99734 20.152 7.98485 19.9271C8.04732 19.9021 8.04732 19.8896 8.04732 19.8771" fill="#FCE9CD"/>
<path d="M16.4805 2.22461L16.5179 2.24959L16.4805 2.22461Z" fill="#4D9ED7"/>
<path d="M27.4882 22.5509C27.4882 22.5384 27.4882 22.5259 27.4757 22.5259C27.4632 22.501 27.4632 22.4885 27.4632 22.476C27.4007 22.2761 27.3257 22.1261 27.2508 22.0137C27.1633 21.8762 27.0884 21.8013 27.0884 21.8013L27.1258 21.6514C27.1383 21.5889 27.1508 21.5264 27.1508 21.4639C27.2008 21.0142 27.0884 20.6643 26.9884 20.4644C26.9759 20.4269 26.9634 20.4019 26.9509 20.377C26.876 20.4269 26.8135 20.4769 26.7385 20.5269C25.3892 21.439 23.8774 22.0262 22.2406 22.2761C21.1162 22.451 19.9292 22.4635 18.6923 22.3135L18.7173 22.326C18.7173 22.326 17.9677 22.426 17.7677 23.1382L17.7802 23.1506L17.7178 23.6254C17.7428 24.2751 18.0301 24.6749 18.3675 24.8873C18.7173 25.0248 19.1421 25.1247 19.6169 25.1872C20.429 25.2871 21.3785 25.2622 22.3281 25.1122C23.6025 24.9373 25.4017 24.2626 26.6885 23.388C26.9759 23.1881 27.2508 22.9757 27.4757 22.7633L27.4882 22.7508L27.5007 22.7383C27.5007 22.6509 27.4882 22.6009 27.4882 22.5509" fill="white"/>
<path d="M25.0522 16.3802C24.365 15.9554 24.2651 15.818 24.3275 14.681C24.3525 14.2687 24.39 13.7315 24.44 12.9943C24.44 12.8944 24.4525 12.8069 24.4525 12.7194V12.657V12.3571C24.4525 12.2946 24.44 12.2322 24.44 12.1822C24.44 12.1572 24.44 12.1322 24.4275 12.1072C24.415 12.0448 24.415 11.9823 24.4025 11.9198C24.4025 11.8948 24.39 11.8574 24.39 11.8324C24.39 11.7949 24.3775 11.7699 24.365 11.7324C24.3525 11.7074 24.3525 11.6699 24.34 11.645C24.2401 11.495 24.1276 11.3701 23.9902 11.2576L23.9652 11.2326L23.9402 11.2202H23.9277C23.9027 11.2077 23.8903 11.1952 23.8653 11.1827C23.8403 11.1702 23.8153 11.1577 23.8028 11.1452C23.6029 11.0202 23.3655 10.9453 23.1281 10.9078C22.9907 10.8828 22.8532 10.8828 22.7158 10.8828C22.6533 10.8828 22.5784 10.8953 22.5159 10.8953C22.341 10.9203 22.1661 10.9578 21.9787 11.0078C21.9162 11.0452 21.8537 11.0952 21.7912 11.1327C21.7413 11.1702 21.6913 11.2077 21.6288 11.2451L21.6038 11.2576C21.5539 11.2951 21.4914 11.3326 21.4414 11.3576L21.4164 11.3701C21.3664 11.4076 21.304 11.4326 21.254 11.47L21.229 11.4825C21.179 11.52 21.1166 11.545 21.0541 11.57L21.0291 11.5825C20.9666 11.6075 20.9167 11.6325 20.8542 11.6574L20.8292 11.6699C20.7667 11.6949 20.7043 11.7074 20.6418 11.7324H20.6293C20.5668 11.7449 20.4919 11.7574 20.4294 11.7699C20.3169 11.7824 20.192 11.7949 20.0796 11.7949C19.8921 11.7949 19.7047 11.7824 19.5048 11.7574L19.3174 11.7199C19.2924 11.7199 19.2674 11.7074 19.255 11.7074C19.0925 11.6699 18.9176 11.6325 18.7552 11.595C18.6802 11.5825 18.6178 11.5575 18.5428 11.545C18.4303 11.52 18.3179 11.495 18.193 11.47C18.168 11.47 18.143 11.4575 18.1305 11.4575C18.0305 11.4575 17.9306 11.47 17.8431 11.4825H17.8181C17.5308 11.52 17.2559 11.5825 16.9685 11.6824C16.956 11.6824 16.9435 11.6949 16.9186 11.6949C16.8686 11.7074 16.8311 11.7324 16.7811 11.7449C16.7187 11.7699 16.6687 11.7949 16.6062 11.8199C16.1939 11.9948 15.8066 12.2447 15.4318 12.557C15.2818 12.682 15.1444 12.8194 15.007 12.9568C14.8071 13.1692 14.6321 13.3941 14.4697 13.6315C14.4572 13.644 14.4572 13.6565 14.4447 13.669C14.3573 13.7939 14.2823 13.9314 14.2198 14.0563C14.1948 14.1063 14.1699 14.1563 14.1449 14.1937V14.2062C14.0699 14.3687 14.0074 14.5186 13.9575 14.681C13.9575 14.6935 13.9575 14.706 13.945 14.706C13.9325 14.731 13.9325 14.756 13.92 14.781C13.895 14.8559 13.87 14.9309 13.8575 15.0059C13.8325 15.0808 13.82 15.1558 13.8075 15.2432C13.8075 15.2557 13.795 15.2807 13.795 15.2932C13.7825 15.3432 13.7825 15.3932 13.77 15.4307C13.7451 15.6056 13.7326 15.7805 13.7201 15.9554V16.0803C13.795 16.3677 13.9075 16.6301 14.0449 16.855C14.5572 17.7421 15.4068 18.2793 16.0315 18.5667C16.2689 18.6666 16.5187 18.7666 16.7811 18.854L16.7936 18.8665L16.8061 18.854C16.8436 18.829 16.8686 18.8041 16.9061 18.7791C16.9186 18.7666 16.931 18.7666 16.9435 18.7541L17.056 18.6791C17.0685 18.6666 17.081 18.6666 17.0935 18.6541L17.2059 18.5792C17.2184 18.5667 17.2309 18.5667 17.2434 18.5542C17.2809 18.5292 17.3184 18.5042 17.3683 18.4792C17.3808 18.4667 17.3933 18.4667 17.4058 18.4542C17.4433 18.4292 17.4933 18.4042 17.5308 18.3793C17.5433 18.3668 17.5558 18.3668 17.5682 18.3543C17.6057 18.3293 17.6557 18.3043 17.6932 18.2793C17.7057 18.2668 17.7307 18.2668 17.7432 18.2543C17.7806 18.2293 17.8306 18.2043 17.8681 18.1794C17.8806 18.1669 17.9056 18.1544 17.9181 18.1544C17.9556 18.1294 18.0055 18.1044 18.0555 18.0794C18.0805 18.0669 18.093 18.0544 18.118 18.0544C18.168 18.0294 18.2054 18.0044 18.2554 17.9919C18.2804 17.9794 18.2929 17.967 18.3179 17.967C18.3679 17.942 18.4054 17.9295 18.4553 17.9045L18.5303 17.867C18.5803 17.842 18.6178 17.8295 18.6677 17.8045C18.6927 17.792 18.7177 17.7795 18.7552 17.767C18.8052 17.7546 18.8426 17.7296 18.8926 17.7171C18.9176 17.7046 18.9551 17.6921 18.9801 17.6796C19.0301 17.6671 19.0675 17.6421 19.1175 17.6296C19.155 17.6171 19.18 17.6046 19.2175 17.5921C19.2674 17.5796 19.3049 17.5546 19.3549 17.5422L19.4673 17.5047C19.5048 17.4922 19.5548 17.4797 19.5923 17.4547C19.6298 17.4422 19.6797 17.4297 19.7172 17.4172C19.7547 17.4047 19.8047 17.3922 19.8422 17.3797C19.8921 17.3672 19.9421 17.3547 19.9796 17.3423C20.0171 17.3298 20.0546 17.3173 20.1045 17.3048C20.1545 17.2923 20.2045 17.2798 20.267 17.2548C20.292 17.2423 20.3169 17.2423 20.3419 17.2298C20.5418 16.7175 21.1541 15.4432 22.1911 15.3057C22.3035 15.2932 22.4035 15.2807 22.5034 15.2807H22.5784C22.5659 15.2058 22.5534 15.1308 22.5534 15.0433C22.5159 14.4936 22.6908 14.0313 22.9282 14.0188C23.1156 14.0063 23.2656 14.2812 23.2905 14.3687C23.3655 14.5311 23.4155 14.7435 23.428 14.9809C23.4405 15.1933 23.4155 15.3932 23.378 15.5681C23.403 15.5931 23.4155 15.6181 23.4405 15.6306C23.6779 15.9304 23.7153 16.3302 23.7028 16.6301C23.7903 16.6176 23.8903 16.6176 23.9902 16.6051C24.0152 16.6051 24.0402 16.6051 24.0652 16.5926H24.1151C24.2276 16.5801 24.3525 16.5676 24.4775 16.5676C24.7523 16.5426 25.0272 16.5301 25.3146 16.5176C25.1522 16.4302 25.0522 16.3802 25.0522 16.3802V16.3802ZM27.6635 24.0766C27.2137 24.4764 26.7389 24.8012 26.2641 25.0636C26.0267 25.1885 25.7894 25.301 25.5645 25.4009C25.0522 25.6258 24.5649 25.7758 24.1276 25.8882C23.1656 26.1256 22.5034 26.1256 22.5034 26.1256C23.0282 26.413 23.6903 26.413 24.1401 26.3755C24.4525 26.3505 24.6649 26.288 24.6649 26.288C24.6524 26.4754 24.6274 26.6503 24.6024 26.8253C24.5649 27.0127 24.515 27.1751 24.4525 27.325V27.3375C24.3775 27.5249 24.2776 27.6873 24.1776 27.8373C24.1651 27.8498 24.1526 27.8748 24.1401 27.8873L24.1776 27.8623C24.34 27.7748 24.5025 27.6749 24.6649 27.5749C24.7898 27.4999 24.9148 27.4125 25.0272 27.3375C25.2271 27.2001 25.427 27.0501 25.6269 26.8877C25.6394 26.8752 25.6519 26.8627 25.6644 26.8627C25.8518 26.7003 26.0392 26.5254 26.2017 26.3505C26.4266 26.1131 26.6265 25.8757 26.8014 25.6383L26.8139 25.6258C26.8638 25.5634 26.9013 25.5134 26.9388 25.4509L26.9513 25.4384C26.9638 25.4134 26.9763 25.4009 26.9888 25.3759C27.0513 25.2885 27.1012 25.2135 27.1637 25.1261C27.1762 25.1011 27.1887 25.0886 27.2012 25.0636C27.2262 25.0136 27.2512 24.9761 27.2886 24.9262C27.3136 24.8887 27.3261 24.8637 27.3511 24.8262C27.3761 24.7887 27.4011 24.7512 27.4136 24.7138C27.4511 24.6513 27.4886 24.5763 27.526 24.5139L27.5635 24.4389L27.6385 24.289L27.676 24.214L27.6885 24.189C27.7134 24.1265 27.7509 24.0641 27.7759 24.0016C27.7259 24.0141 27.701 24.0391 27.6635 24.0766V24.0766ZM16.2689 19.0414C16.1439 19.0789 15.994 19.1414 15.8441 19.2039C15.4443 19.3663 14.9945 19.6037 14.5947 19.9285C14.5447 19.966 14.4947 20.016 14.4447 20.0535C14.3573 20.1284 14.2823 20.2034 14.2073 20.2909L14.1824 20.3158L14.1449 20.3533C14.1199 20.3908 14.0824 20.4158 14.0574 20.4533L14.0199 20.4908C13.9824 20.5407 13.945 20.5907 13.92 20.6407C13.8825 20.6907 13.8575 20.7406 13.82 20.7906C13.5826 21.2029 13.4452 21.7027 13.4827 22.3024V22.2774C13.4827 22.2649 13.4827 22.2524 13.4952 22.2399V22.2274C13.4952 22.2149 13.5077 22.2024 13.5077 22.1775V22.165C13.5077 22.1525 13.5202 22.1275 13.5202 22.1025C13.5202 22.0775 13.5327 22.065 13.5452 22.04V22.0275C13.5576 22.0025 13.5576 21.9776 13.5701 21.9526V21.9401C13.5826 21.9151 13.5826 21.8901 13.5951 21.8651V21.8526C13.6076 21.8276 13.6201 21.8026 13.6326 21.7652L13.6451 21.7527C13.6576 21.7277 13.6701 21.6902 13.6951 21.6652C13.7201 21.6152 13.7451 21.5777 13.77 21.5278C13.7825 21.5153 13.795 21.4903 13.8075 21.4778L13.82 21.4653L13.895 21.3528C13.92 21.3279 13.945 21.2904 13.97 21.2654L13.9949 21.2404C14.0199 21.2154 14.0324 21.1904 14.0574 21.1779L14.0824 21.1529C14.1074 21.128 14.1449 21.103 14.1699 21.0655C14.1699 21.0655 13.6326 22.2899 13.87 23.252V23.2395V23.2145V23.177V23.127V23.0645C13.87 23.0396 13.87 23.0146 13.8825 22.9896C13.8825 22.9646 13.8825 22.9396 13.895 22.9146V22.9021C13.895 22.8771 13.9075 22.8396 13.9075 22.8147V22.7897C13.92 22.7522 13.92 22.7272 13.9325 22.6897V22.6772C13.945 22.6397 13.9575 22.6023 13.9575 22.5773C13.9575 22.5648 13.97 22.5523 13.97 22.5398L13.9824 22.5148C13.9949 22.4898 14.0074 22.4523 14.0199 22.4273C14.0324 22.3899 14.0574 22.3524 14.0824 22.3149C14.0824 22.3024 14.0949 22.2899 14.0949 22.2899L14.1699 22.1775C14.1699 22.1775 14.1449 22.4773 14.1449 22.8396C14.1449 22.9021 14.1449 22.9521 14.1574 23.0146C14.1574 23.052 14.1574 23.0895 14.1699 23.127C14.1948 22.7397 14.2698 22.3774 14.3698 22.04C14.3948 21.9526 14.4322 21.8526 14.4572 21.7652C14.4572 21.7527 14.4697 21.7402 14.4697 21.7277C14.5072 21.6402 14.5322 21.5652 14.5697 21.4778C14.5822 21.4653 14.5822 21.4528 14.5947 21.4278C14.6321 21.3528 14.6696 21.2654 14.7071 21.1904C14.7196 21.1779 14.7196 21.1654 14.7196 21.1529C14.8071 20.9905 14.8945 20.8406 14.982 20.7032C14.9945 20.6907 14.9945 20.6782 15.007 20.6657C15.0444 20.6157 15.0819 20.5657 15.1194 20.5033C15.1319 20.4908 15.1319 20.4783 15.1444 20.4658C15.1569 20.4533 15.1569 20.4408 15.1694 20.4283C15.2194 20.3658 15.2568 20.3033 15.3068 20.2409C15.3193 20.2284 15.3193 20.2159 15.3318 20.2159C15.3818 20.1534 15.4318 20.0909 15.4817 20.041C15.5442 19.966 15.6067 19.9035 15.6691 19.8286C15.7191 19.7786 15.7566 19.7286 15.8066 19.6911L15.8566 19.6412C15.9565 19.5412 16.0565 19.4413 16.1564 19.3538C16.4313 19.1039 16.6562 18.9415 16.7311 18.8915C16.6812 18.904 16.6312 18.9165 16.5687 18.929C16.4938 18.9665 16.3938 19.004 16.2689 19.0414" fill="#F2D2AC"/>
<path d="M23.4651 16.3294C23.4651 16.3294 23.4651 16.3044 23.4526 16.2544C23.4026 16.0795 23.2277 15.6547 22.5405 15.7172C21.8159 15.7921 21.566 16.3793 21.5035 16.5792C21.491 16.6167 21.491 16.6417 21.491 16.6417L21.516 16.6542C21.6035 16.5792 21.7784 16.5792 21.9408 16.6917C22.0158 16.7417 22.0658 16.7916 22.1157 16.8541C22.1782 16.9541 22.1907 17.054 22.1532 17.129L22.1157 17.1665C22.1157 17.1665 22.1407 17.179 22.1907 17.1915C22.3906 17.2539 22.9528 17.3664 23.2527 16.9791C23.2652 16.9541 23.2777 16.9416 23.2902 16.9166C23.2277 16.8916 23.2027 16.8041 23.2027 16.6917C23.2027 16.6417 23.2152 16.5917 23.2277 16.5293C23.2652 16.3793 23.3776 16.2919 23.4651 16.3294ZM19.8543 21.6768C19.3796 21.7768 18.9673 21.8518 18.6549 21.9017C18.6674 21.9017 18.6924 21.9017 18.7049 21.9142C19.2421 21.9767 20.0917 22.0642 21.1162 22.0017C22.9903 21.8892 25.4516 21.302 27.6881 19.278V19.2655C27.7006 19.0906 27.6756 18.7907 27.4632 18.5533C27.4257 18.5158 27.3882 18.4784 27.3382 18.4409C27.3257 18.4409 27.3258 18.4284 27.3133 18.4284C27.2508 18.3909 27.2008 18.3659 27.1508 18.3284L27.0384 18.2535V18.241C26.901 18.4409 26.7385 18.6283 26.5636 18.8032C26.5011 18.8657 26.4387 18.9281 26.3637 18.9906C25.7515 19.5404 24.9519 20.0151 24.0898 20.39C22.6655 21.0147 21.0662 21.427 19.8543 21.6768ZM8.01 18.4159C7.98501 18.4284 7.97252 18.4534 7.94753 18.4659L7.92254 18.4908C7.89755 18.5158 7.87257 18.5408 7.86007 18.5658L7.84758 18.5783L7.77261 18.6908L7.76012 18.7032C7.76012 18.7157 7.74763 18.7157 7.74763 18.7282L7.71014 18.8032V18.8282C7.69765 18.8657 7.67266 18.9032 7.66017 18.9406C7.62269 19.0406 7.5852 19.1405 7.56022 19.228C7.54772 19.253 7.54772 19.2905 7.53523 19.303C7.52273 19.3529 7.51024 19.4029 7.51024 19.4154V19.4279V19.4154C7.51024 19.3779 7.51024 19.3529 7.52273 19.3155C7.52273 19.253 7.53523 19.178 7.53523 19.1156C7.53523 19.0656 7.54772 19.0031 7.56022 18.9531C7.56022 18.9406 7.56021 18.9156 7.57271 18.9032C7.57271 18.8782 7.5852 18.8532 7.5852 18.8282C7.5852 18.8032 7.5977 18.7782 7.5977 18.7532V18.7157C7.5977 18.6908 7.61019 18.6533 7.61019 18.6283V18.5658V18.5408C7.61019 18.5283 7.61019 18.5158 7.62269 18.5033C7.63518 18.4659 7.64767 18.4159 7.64767 18.3784V18.3659C7.66017 18.3409 7.66017 18.3034 7.67266 18.2784V18.266C7.68516 18.2035 7.71014 18.141 7.72264 18.0785V18.0536C7.72264 18.0411 7.72264 18.0286 7.73513 18.0161C7.76012 17.9161 7.7976 17.8162 7.82259 17.7287V17.7162C7.84758 17.6412 7.88506 17.5538 7.91005 17.4788V17.4663C7.92254 17.4288 7.93504 17.4039 7.94753 17.3664C7.97252 17.3164 7.98501 17.2664 8.01 17.2164C8.01 17.204 8.02249 17.179 8.04748 17.129C8.05998 17.1165 8.05998 17.0915 8.07247 17.079C8.08496 17.054 8.09746 17.029 8.10995 16.9916L8.12245 16.9666C8.10995 16.9541 8.08496 16.9541 8.07247 16.9416H8.05998L8.03499 16.9291C7.92254 16.8791 7.7976 16.8291 7.67266 16.7916H7.64767C7.56022 16.7667 7.48525 16.7542 7.39779 16.7417C7.34782 16.7417 7.29784 16.7292 7.24786 16.7292H7.12292C7.06045 16.7292 6.99798 16.7417 6.93551 16.7417C6.91053 16.7417 6.89803 16.7417 6.87304 16.7542C6.84806 16.7542 6.81057 16.7667 6.78559 16.7667C6.77309 16.7667 6.7606 16.7667 6.7481 16.7792C6.72312 16.7792 6.71062 16.7916 6.68563 16.7916C6.64815 16.8041 6.59818 16.8166 6.56069 16.8291C6.5482 16.8291 6.52321 16.8416 6.51072 16.8416C6.46074 16.8666 6.39827 16.8791 6.3483 16.9041C6.32331 16.9166 6.31081 16.9291 6.28583 16.9291L6.21086 16.9666L6.18587 16.9791C6.16089 16.9916 6.1359 17.004 6.11091 17.029C6.08592 17.0415 6.06093 17.054 6.03594 17.079C6.01096 17.0915 5.98597 17.1165 5.96098 17.129C5.94849 17.1415 5.9235 17.154 5.911 17.1665C5.87352 17.204 5.82355 17.2414 5.78606 17.2789L5.72359 17.3414C5.68611 17.3789 5.66112 17.4164 5.62364 17.4538L5.61115 17.4663C5.59865 17.4913 5.57367 17.5038 5.56117 17.5288L5.52369 17.5663C5.46122 17.6537 5.39875 17.7537 5.34877 17.8536C5.33628 17.8661 5.33628 17.8786 5.32379 17.8911C5.2988 17.9411 5.2863 17.9911 5.26132 18.0411C5.24882 18.066 5.24882 18.0785 5.23633 18.1035C5.23633 18.116 5.24882 18.1285 5.24882 18.141C5.26132 18.191 5.27381 18.2285 5.2863 18.2784V18.3034C5.2988 18.3409 5.32379 18.3909 5.33628 18.4284C5.38626 18.5533 5.43623 18.6658 5.4987 18.7657C5.5112 18.7782 5.5112 18.7907 5.52369 18.8032V18.8157L5.53618 18.8282C5.57367 18.9032 5.61115 18.9656 5.64863 19.0156C5.7111 19.1031 5.76108 19.1655 5.79856 19.2155L5.82355 19.2405C5.82355 19.253 5.83604 19.253 5.83604 19.253L5.86103 19.278C5.86103 19.253 5.84853 19.228 5.84853 19.2155C5.81105 19.0531 5.79856 18.9032 5.79856 18.7407V18.7157C5.79856 18.6158 5.79856 18.5158 5.81105 18.4284L5.84853 18.5408C5.86103 18.5908 5.88602 18.6408 5.89851 18.6908V18.7157C5.97348 18.9281 6.06093 19.1031 6.14839 19.2405C6.24834 19.4154 6.3358 19.5279 6.39827 19.6028C6.41077 19.6153 6.42326 19.6278 6.42326 19.6403L6.44825 19.6653C6.41077 19.4904 6.38578 19.328 6.38578 19.1655V19.0031C6.38578 18.9281 6.38578 18.8657 6.39827 18.8032C6.42326 18.9156 6.46074 19.0281 6.49822 19.128V19.1405C6.63566 19.5029 6.79808 19.7652 6.91053 19.9277L6.92302 19.9402C6.94801 19.9652 6.9605 19.9901 6.973 20.0151C6.98549 20.0276 6.99798 20.0401 6.99798 20.0526L7.02297 20.0776L7.03547 20.0901V20.0651C7.03547 20.0401 7.02297 20.0151 7.02297 19.9901C7.01048 19.9027 6.99798 19.8152 6.98549 19.7403C6.98549 19.6903 6.973 19.6278 6.973 19.5778V19.4279V19.4029V19.303C6.973 19.2405 6.98549 19.1655 6.98549 19.1031C6.99798 19.1405 7.01048 19.1905 7.02297 19.228C7.03547 19.253 7.04796 19.2905 7.06045 19.3155V19.328L7.07295 19.3404C7.08544 19.3779 7.09794 19.4154 7.11043 19.4404C7.13542 19.5029 7.16041 19.5653 7.19789 19.6153C7.23537 19.6903 7.26036 19.7528 7.29784 19.8027C7.32283 19.8402 7.33532 19.8652 7.34782 19.8902C7.3728 19.9277 7.39779 19.9652 7.41029 19.9901C7.43527 20.0151 7.44777 20.0401 7.46026 20.0651L7.47276 20.0776C7.48525 20.1026 7.51024 20.1151 7.52273 20.1401C7.53523 20.1526 7.54772 20.1651 7.54772 20.1776C7.57271 20.2025 7.5852 20.2275 7.5977 20.2275L7.61019 20.24V20.2025C7.62269 20.1026 7.63518 19.9901 7.64767 19.8902V19.8527C7.66017 19.7278 7.68516 19.6153 7.71014 19.5029C7.71014 19.4904 7.71014 19.4779 7.72264 19.4529V19.4404C7.72264 19.4279 7.72264 19.4154 7.73513 19.4029C7.73513 19.3779 7.74763 19.3654 7.74763 19.3404C7.76012 19.253 7.78511 19.1655 7.7976 19.0781C7.8101 19.0031 7.82259 18.9281 7.83508 18.8657V18.8407C7.83508 18.8282 7.83508 18.8157 7.84758 18.8157V18.7907C7.84758 18.7782 7.86007 18.7532 7.86007 18.7407C7.86007 18.7282 7.86007 18.7157 7.87257 18.7032C7.87257 18.6783 7.88506 18.6533 7.88506 18.6408C7.88506 18.6283 7.89755 18.6033 7.89755 18.5908C7.89755 18.5658 7.91005 18.5408 7.91005 18.5283C7.91005 18.5158 7.91005 18.5033 7.92254 18.4908C7.92254 18.4784 7.92254 18.4659 7.93504 18.4659C7.93504 18.4409 7.94753 18.4284 7.94753 18.4159V18.3784L8.01 18.4159V18.4159ZM23.1527 23.6384C23.3277 23.576 23.4776 23.526 23.6025 23.476C23.8399 23.376 23.9649 23.3011 23.9649 23.2761C23.9524 23.2511 23.8149 23.2636 23.5651 23.3261C23.4401 23.3511 23.2902 23.376 23.1028 23.426C23.0153 23.451 22.9154 23.4635 22.8154 23.476C22.7155 23.4885 22.603 23.5135 22.4906 23.526C22.2657 23.5635 22.0158 23.5884 21.7409 23.6134L21.3286 23.6509C21.1912 23.6634 21.0413 23.6634 20.8913 23.6759C20.2916 23.6884 19.6294 23.6634 18.9548 23.5385C18.6049 23.476 18.1177 23.3136 17.7803 23.1262L17.7678 23.1137C17.9677 22.4015 18.7174 22.3016 18.7174 22.3016L18.6924 22.2891H18.6549C18.5425 22.2766 18.455 22.2641 18.3675 22.2516C18.3051 22.2391 18.2551 22.2391 18.2176 22.2266C18.1801 22.2266 18.1426 22.2141 18.1302 22.2141C17.6804 22.1891 17.4305 22.5639 17.3555 22.7264L17.318 22.8013C17.2556 22.9512 17.2056 23.1137 17.1931 23.3011C17.1681 23.6384 17.2556 24.0008 17.5179 24.3131C17.6929 24.5255 17.9927 24.7129 18.38 24.8628C18.0427 24.6504 17.7428 24.2381 17.7303 23.6009C18.1177 23.7634 18.5549 23.8633 18.8923 23.9258C19.6044 24.0632 20.3041 24.0757 20.9163 24.0382C21.0662 24.0257 21.2287 24.0132 21.3661 24.0008C21.516 23.9758 21.6535 23.9633 21.7909 23.9508C22.0658 23.9008 22.3032 23.8633 22.5405 23.8133C22.653 23.7884 22.7654 23.7634 22.8654 23.7259C22.9778 23.7009 23.0653 23.6759 23.1527 23.6384" fill="#F2D2AC"/>
<path d="M22.5652 15.2928C22.94 15.3053 23.1899 15.4177 23.3648 15.5927C23.4023 15.4302 23.4273 15.2303 23.4148 15.0054C23.4023 14.7681 23.3523 14.5557 23.2773 14.3932C23.2523 14.2933 23.1024 14.0309 22.915 14.0434C22.6776 14.0559 22.5027 14.5182 22.5402 15.0679C22.5402 15.1429 22.5527 15.2178 22.5652 15.2928ZM23.1899 16.7046C23.1899 16.8046 23.2274 16.892 23.2773 16.9295C23.3648 16.9795 23.4772 16.8795 23.5272 16.7171C23.5272 16.7046 23.5397 16.6921 23.5397 16.6796C23.5772 16.5297 23.5397 16.3798 23.4523 16.3423C23.3648 16.2923 23.2523 16.3923 23.2024 16.5547C23.2024 16.6047 23.1899 16.6547 23.1899 16.7046ZM21.4907 16.9795C21.5282 17.042 21.5907 17.1044 21.6656 17.1544C21.828 17.2544 22.003 17.2669 22.1029 17.1794L22.1404 17.1419C22.1779 17.067 22.1654 16.967 22.1029 16.8671C22.0654 16.8046 22.003 16.7421 21.928 16.7046C21.7656 16.6047 21.5907 16.5922 21.5032 16.6671C21.4907 16.6796 21.4782 16.6921 21.4657 16.7171C21.4282 16.7796 21.4407 16.8795 21.4907 16.9795V16.9795ZM27.7002 19.2659C27.6877 19.2659 27.6877 19.2659 27.7002 19.2659V19.2659ZM27.5003 22.7268C27.2629 22.9516 27.0005 23.164 26.7007 23.3639C25.4138 24.2385 23.6147 24.9257 22.3403 25.0881C21.3783 25.2381 20.4412 25.263 19.6291 25.1631C19.1543 25.1006 18.742 25.0007 18.3797 24.8632C17.9924 24.7133 17.6925 24.5259 17.5176 24.3135C17.2552 24.0011 17.1803 23.6263 17.1928 23.3015C17.2053 23.1266 17.2428 22.9516 17.3177 22.8017L17.3552 22.7268C17.4427 22.5643 17.68 22.177 18.1298 22.2145C18.1423 22.2145 18.1798 22.2145 18.2173 22.227C18.2548 22.227 18.3172 22.2395 18.3672 22.252C18.4547 22.2645 18.5421 22.277 18.6546 22.2895H18.6921C19.929 22.4394 21.1159 22.4269 22.2403 22.252C23.877 22.0021 25.3888 21.4149 26.7382 20.5028C26.8131 20.4528 26.8756 20.4029 26.9506 20.3529L27.6877 19.2534C25.4513 21.2899 22.99 21.8772 21.1159 21.9896C20.0914 22.0521 19.2418 21.9771 18.7045 21.9021C18.6796 21.9021 18.6671 21.9021 18.6546 21.8897C18.4921 21.8647 18.3672 21.8522 18.2673 21.8397C18.2173 21.8397 18.1798 21.8272 18.1548 21.8272C18.0174 21.8147 17.8799 21.8397 17.755 21.8772C17.5051 21.9521 17.2802 22.127 17.1178 22.3519C16.9179 22.6268 16.793 23.0016 16.793 23.3764C16.793 23.6888 16.8679 24.0136 17.0304 24.3135C17.0428 24.326 17.0428 24.3385 17.0553 24.351C17.0803 24.3885 17.0928 24.4134 17.1178 24.4509C17.1428 24.4884 17.1803 24.5384 17.2178 24.5759C17.6051 25.0631 18.4547 25.413 19.5791 25.5629C20.3413 25.6629 21.2283 25.6504 22.1904 25.5129C25.039 25.0007 26.3883 24.0761 27.013 23.4389C27.063 23.3889 27.1005 23.3515 27.138 23.3015C27.3629 23.0391 27.4628 22.8392 27.5003 22.7642V22.7517C27.5128 22.7268 27.5128 22.7143 27.5128 22.7143L27.5003 22.7268" fill="#664F44"/>
<path d="M18.4426 12.8571C18.3551 12.8072 18.2552 12.7697 18.1552 12.7447C18.0928 12.7322 18.0303 12.7197 17.9553 12.7072C17.9303 12.7072 17.9053 12.7072 17.8804 12.6947C17.543 12.6697 17.2557 12.7197 17.2557 12.7197C17.1932 12.7322 17.1307 12.7447 17.0807 12.7697C16.631 12.9071 16.3186 13.1445 16.0937 13.4194C15.9188 13.6443 15.7939 13.8817 15.7314 14.1191C15.7189 14.144 15.7189 14.1565 15.7189 14.1815C15.7064 14.244 15.6814 14.3065 15.6689 14.3564C15.6314 14.5563 15.6064 14.7313 15.6064 14.8812C15.6064 15.0811 15.6189 15.2061 15.6189 15.2061C15.6939 15.0311 15.7814 14.8812 15.8688 14.7313C16.0812 14.3689 16.3061 14.0691 16.5435 13.8317C16.9933 13.3694 17.4556 13.1195 17.8054 12.9946C18.1802 12.8696 18.4426 12.8571 18.4426 12.8571V12.8571ZM23.8525 12.2199L23.84 12.1949C23.79 12.1325 23.7276 12.07 23.6526 12.02C23.4777 11.9076 23.2403 11.8451 22.9155 11.9076C22.9155 11.9076 22.5281 11.995 22.3032 12.2574C22.3032 12.2574 22.9779 11.97 23.7026 12.4823C23.765 12.5323 23.84 12.5823 23.9025 12.6447C23.965 12.7072 24.0399 12.7697 24.1024 12.8571C24.1024 12.8571 24.0774 12.5448 23.89 12.2699C23.8775 12.2449 23.865 12.2324 23.8525 12.2199" fill="#E9B784"/>
<path d="M18.5295 17.1921C18.7919 17.1172 19.0668 17.0422 19.3791 16.9672C19.4291 16.7298 19.4416 16.4425 19.4041 16.1301C19.3166 15.4054 18.9918 14.8432 18.667 14.8807C18.3421 14.9182 18.1547 15.5429 18.2422 16.2676C18.2921 16.6424 18.3921 16.9672 18.5295 17.1921Z" fill="#664F44"/>
<path d="M17.0425 0.861328L16.3678 1.01126L16.5052 2.23568L14.7186 1.32361L13.9814 1.5485L13.9939 1.561L16.1679 4.03483L16.1929 4.02233L16.2179 4.00984C16.2803 3.97236 16.3553 3.92238 16.4178 3.8849C16.4428 3.8724 16.4678 3.85991 16.4927 3.83492C16.5927 3.77245 16.6927 3.70998 16.7926 3.66001L15.868 2.59801L17.3548 3.32266C17.4048 3.29768 17.4423 3.27269 17.4923 3.2477L17.3548 2.1857L18.0295 2.97283H18.042C18.1045 2.94784 18.1545 2.91036 18.2169 2.88537L18.2419 2.87288L18.2669 2.86038C18.2794 2.86038 18.2919 2.84789 18.2919 2.84789L18.3669 2.81041C18.3669 2.81041 18.3793 2.81041 18.3793 2.79791C18.4543 2.76043 18.5418 2.72295 18.6167 2.68547L17.0425 0.861328Z" fill="#FFD250"/>
<path d="M16.3809 1.04951V1.01202V1.04951ZM16.3809 1.01202L16.4809 0.987036C16.3185 0.912072 16.1185 0.862096 15.8937 0.824613C15.4439 0.762143 14.8691 0.824614 14.2195 0.987036C13.5698 1.14946 12.8326 1.43682 12.058 1.82414C10.4962 2.59877 8.77206 3.78571 7.09786 5.30998C6.51064 5.83473 5.97339 6.38447 5.47363 6.92172L7.49767 9.42053C8.0474 8.82082 8.63462 8.2211 9.28431 7.63388C10.1464 6.84675 11.021 6.14709 11.8831 5.54737C12.7202 4.96015 13.5573 4.46039 14.3444 4.06058L13.9946 2.46134L14.0071 1.56176L13.9946 1.54927L14.7317 1.32438L16.1685 2.06153L16.131 1.56176L16.3809 1.01202" fill="#4D9ED7"/>
<path d="M16.3804 1.01172L16.1305 1.56146L16.168 2.07371L16.5179 2.24863L16.3804 1.01172ZM15.8682 2.59846L17.3674 3.33561L16.7927 3.66045L15.8682 2.59846ZM17.3674 2.18616L17.5049 3.24815L18.0421 2.97328L17.3674 2.18616Z" fill="#132134"/>
<path d="M23.0152 1.7985H23.2901C23.54 1.7985 23.7774 1.83598 24.0023 1.88596C24.0148 1.88596 24.0273 1.88596 24.0398 1.89845H24.0523L24.0772 1.91094H24.1022C24.0772 1.89845 24.0523 1.87346 24.0273 1.86097C23.7774 1.76102 23.515 1.69854 23.2401 1.66106C21.8908 1.48615 20.3415 1.98591 19.4669 2.33574C19.417 2.36073 19.367 2.37322 19.317 2.39821C19.2421 2.43569 19.1671 2.46068 19.0921 2.49816C18.9672 2.54814 18.8422 2.61061 18.7048 2.67308C18.6798 2.68557 18.6673 2.68557 18.6423 2.69807C18.5674 2.73555 18.4799 2.77303 18.405 2.81051C18.405 2.81051 18.3925 2.81051 18.3925 2.82301L18.3175 2.86049C18.305 2.86049 18.2925 2.87298 18.2925 2.87298H18.2425L18.23 2.88548C18.1676 2.91047 18.1176 2.93545 18.0551 2.97294H18.0426C18.0301 2.98543 18.0176 2.98543 18.0051 2.99792H17.9926C17.9802 2.99792 17.9677 3.01042 17.9677 3.01042C17.8802 3.06039 17.7927 3.09788 17.7053 3.14785C17.6428 3.18534 17.5803 3.21032 17.5179 3.24781H17.5054C17.4554 3.27279 17.4179 3.29778 17.3679 3.32277C17.218 3.39773 17.0806 3.48519 16.9307 3.57265C16.9182 3.58514 16.9057 3.58514 16.8807 3.59764C16.8682 3.61013 16.8557 3.61013 16.8432 3.62263C16.8307 3.63512 16.8182 3.63512 16.8057 3.64761L16.7932 3.66011C16.6933 3.72258 16.5933 3.77255 16.4934 3.83502C16.4684 3.84752 16.4434 3.86001 16.4184 3.885C16.3559 3.92248 16.281 3.97246 16.2185 4.00994L16.1935 4.02244L16.1685 4.03493L15.6063 4.40975C15.2939 4.62215 14.9941 4.83455 14.6942 5.05944C14.6567 5.08443 14.6193 5.12191 14.5818 5.1469C13.7947 5.73412 13.045 6.37131 12.3204 7.021C11.5582 7.72067 10.8211 8.43283 10.1339 9.15748C9.75908 9.5323 9.43423 9.86964 9.18435 10.1445C8.6596 10.7067 8.37224 11.0566 8.38474 11.0691C8.38474 11.0691 8.43471 11.0316 8.52217 10.9441C8.4597 11.0191 8.38474 11.1066 8.32227 11.1815C9.47172 9.9571 10.7336 8.7077 12.0955 7.53326C12.9201 6.8211 13.7822 6.13393 14.6692 5.49673C15.0566 5.22186 15.4564 4.94699 15.8562 4.68462C15.9811 4.59716 16.1185 4.5222 16.2435 4.43474C16.306 4.39726 16.3684 4.35977 16.4434 4.32229C16.4809 4.2973 16.5184 4.27232 16.5558 4.25982C16.6308 4.22234 16.6933 4.17236 16.7682 4.13488C16.8307 4.0974 16.9057 4.05992 16.9681 4.00994C17.0056 3.98495 17.0431 3.97246 17.0806 3.94747L17.343 3.79754C17.3929 3.77255 17.4429 3.73507 17.4929 3.71008C17.6553 3.62263 17.8177 3.53517 17.9926 3.44771C18.0051 3.43522 18.0176 3.43522 18.0301 3.42272L18.1051 3.38524C18.1426 3.37275 18.1676 3.34776 18.205 3.33526C18.2175 3.32277 18.23 3.32277 18.2425 3.31028L18.3175 3.27279C18.3175 3.27279 18.33 3.27279 18.33 3.2603H18.3425C18.4174 3.22282 18.4924 3.18533 18.5549 3.16035C18.5674 3.16035 18.5799 3.14785 18.5924 3.13536L18.6673 3.09788C18.7548 3.06039 18.8297 3.02291 18.9172 2.98543C18.9422 2.97294 18.9672 2.96044 18.9797 2.94795C18.9922 2.94795 19.0047 2.93545 19.0172 2.93545C19.0421 2.92296 19.0671 2.91047 19.0921 2.91047C19.1921 2.87298 19.2795 2.82301 19.3795 2.78553C19.4669 2.74804 19.5419 2.71056 19.6294 2.67308C20.1041 2.47318 20.5414 2.31075 20.9537 2.17332C21.7284 1.96092 22.4155 1.82349 23.0152 1.7985" fill="white"/>
</svg>
