<svg width="28" height="19" viewBox="0 0 28 19" fill="none" xmlns="http://www.w3.org/2000/svg">
<path d="M24.373 6.69727L27.7365 14.2592C28.4171 15.7894 27.7296 17.5823 26.2009 18.2636C24.6721 18.9449 22.8811 18.2567 22.2004 16.7264L19.4815 10.6135L18.2832 13.4393V6.69727H24.373V6.69727Z" fill="white"/>
<path d="M24.373 6.69727L27.7365 14.2592C28.4171 15.7894 27.7296 17.5823 26.2009 18.2636C24.6721 18.9449 22.8811 18.2567 22.2004 16.7264L19.4815 10.6135L18.2832 13.4393V6.69727H24.373V6.69727Z" fill="#2AA8FF"/>
<path d="M24.7378 7.51367L25.4337 9.07824C25.0133 8.93207 24.5618 8.85264 24.0916 8.85264C22.1497 8.85264 20.5244 10.2078 20.1104 12.0238L19.4817 10.6104L18.8154 12.1816L18.8154 7.51367H24.7378Z" fill="white"/>
<path d="M24.7378 7.51367L25.4337 9.07824C25.0133 8.93207 24.5618 8.85264 24.0916 8.85264C22.1497 8.85264 20.5244 10.2078 20.1104 12.0238L19.4817 10.6104L18.8154 12.1816L18.8154 7.51367H24.7378Z" fill="#393939" fill-opacity="0.2"/>
<path d="M14.6167 6.56294V11.9179H9.01329L8.43243 10.612L7.87865 11.9179H1.68066V11.0093L5.56527 1.84867C6.05658 0.690083 7.18303 -0.00410703 8.36624 1.82839e-05C9.53023 -0.00403884 10.6426 0.667313 11.1464 1.8001L13.9569 8.11875L14.6167 6.56294Z" fill="white"/>
<path d="M14.6167 6.56294V11.9179H9.01329L8.43243 10.612L7.87865 11.9179H1.68066V11.0093L5.56527 1.84867C6.05658 0.690083 7.18303 -0.00410703 8.36624 1.82839e-05C9.53023 -0.00403884 10.6426 0.667313 11.1464 1.8001L13.9569 8.11875L14.6167 6.56294Z" fill="#017ACE"/>
<path d="M13.9523 8.1096L13.9563 8.11875L16.6152 1.84867C17.1065 0.690083 18.233 -0.00410703 19.4162 1.82839e-05C20.5802 -0.00403884 21.6925 0.667313 22.1964 1.8001L25.4315 9.07349C24.7791 8.50955 23.9291 8.16849 22.9995 8.16849C21.3843 8.16849 20.0094 9.19813 19.4937 10.6376L19.4824 10.612L16.8705 16.7713C16.2166 18.3132 14.4378 19.0326 12.8975 18.3781C12.7467 18.314 12.6039 18.2392 12.4694 18.1549C11.9045 17.8474 11.4326 17.3583 11.1508 16.7249L8.44238 10.6356C8.8501 10.7525 9.28071 10.8151 9.72593 10.8151C11.5993 10.8151 13.2142 9.70692 13.9523 8.1096Z" fill="white"/>
<path d="M13.9523 8.1096L13.9563 8.11875L16.6152 1.84867C17.1065 0.690083 18.233 -0.00410703 19.4162 1.82839e-05C20.5802 -0.00403884 21.6925 0.667313 22.1964 1.8001L25.4315 9.07349C24.7791 8.50955 23.9291 8.16849 22.9995 8.16849C21.3843 8.16849 20.0094 9.19813 19.4937 10.6376L19.4824 10.612L16.8705 16.7713C16.2166 18.3132 14.4378 19.0326 12.8975 18.3781C12.7467 18.314 12.6039 18.2392 12.4694 18.1549C11.9045 17.8474 11.4326 17.3583 11.1508 16.7249L8.44238 10.6356C8.8501 10.7525 9.28071 10.8151 9.72593 10.8151C11.5993 10.8151 13.2142 9.70692 13.9523 8.1096Z" fill="#AEDEFF"/>
<path d="M8.41556 10.6515L6.46511 15.251C5.98944 15.4696 5.4594 15.5913 4.90061 15.5913C2.94046 15.5913 1.33403 14.0935 1.1875 12.172L2.52603 9.01551C3.17059 8.48127 3.99811 8.16016 4.90061 8.16016C6.52509 8.16016 7.90663 9.20056 8.41556 10.6515Z" fill="white"/>
<path d="M8.41556 10.6515L6.46511 15.251C5.98944 15.4696 5.4594 15.5913 4.90061 15.5913C2.94046 15.5913 1.33403 14.0935 1.1875 12.172L2.52603 9.01551C3.17059 8.48127 3.99811 8.16016 4.90061 8.16016C6.52509 8.16016 7.90663 9.20056 8.41556 10.6515Z" fill="black"/>
<path d="M7.84249 12.0018L5.81987 16.7714C5.16602 18.3134 3.38724 19.0327 1.84685 18.3782C0.306471 17.7237 -0.412203 15.9432 0.24165 14.4013L2.48758 9.105C2.96301 8.89433 3.48883 8.77734 4.04186 8.77734C5.95112 8.77734 7.53614 10.1717 7.84249 12.0018Z" fill="white"/>
<path d="M7.84249 12.0018L5.81987 16.7714C5.16602 18.3134 3.38724 19.0327 1.84685 18.3782C0.306471 17.7237 -0.412203 15.9432 0.24165 14.4013L2.48758 9.105C2.96301 8.89433 3.48883 8.77734 4.04186 8.77734C5.95112 8.77734 7.53614 10.1717 7.84249 12.0018Z" fill="#393939"/>
</svg>
