<svg width="28" height="28" viewBox="0 0 28 28" fill="none" xmlns="http://www.w3.org/2000/svg">
<path d="M17.4999 14.0061C17.5004 15.0157 17.3182 16.0171 16.9623 16.9619C16.0172 17.3178 15.0156 17.5002 14.0057 17.5003H13.9939C12.9539 17.499 11.9575 17.3089 11.0381 16.9623C10.682 16.0174 10.4997 15.0159 10.5 14.0061V13.9939C10.4995 12.9845 10.6814 11.9833 11.037 11.0386C11.9821 10.682 12.9839 10.4995 13.994 10.5H14.0058C15.0158 10.4995 16.0175 10.6819 16.9624 11.0385C17.3184 11.9831 17.5005 12.9843 17.5 13.9938V14.006L17.4999 14.0061ZM27.8055 11.6667H19.6335L25.4116 5.88809C24.9581 5.251 24.4522 4.65287 23.8992 4.09992V4.09948C23.3462 3.54713 22.7482 3.04168 22.1115 2.58836L16.3329 8.36697V0.194906C15.5643 0.0656172 14.7863 0.000424036 14.007 0L13.9926 0C13.1998 0.0004375 12.4234 0.0678125 11.6667 0.194906V8.36697L5.88809 2.58836C5.25125 3.04156 4.65354 3.54737 4.10123 4.10047L4.09817 4.10266C3.54611 4.65491 3.04091 5.25212 2.58781 5.88809L8.36686 11.6667H0.194906C0.194906 11.6667 0 13.2016 0 13.9952V14.0048C0 14.7984 0.0672656 15.5762 0.194906 16.3333H8.36697L2.58792 22.1119C3.49701 23.3877 4.61234 24.503 5.88809 25.4121L11.6667 19.633V27.8055C12.4344 27.9342 13.2114 27.9992 13.9898 28H14.0096C14.788 27.9993 15.5651 27.9343 16.3328 27.8055V19.633L22.1119 25.4121C22.7485 24.9586 23.3463 24.453 23.8992 23.9005L23.9005 23.8992C24.4528 23.3462 24.9582 22.7484 25.4116 22.1119L19.6326 16.3333H27.8055C27.9327 15.5775 27.9991 14.802 28 14.0102V13.9898C27.9991 13.198 27.9327 12.4225 27.8055 11.6667V11.6667Z" fill="#FF4A00"/>
</svg>
